<?xml version="1.0" encoding="utf-8"?>
<!-- Generator: Adobe Illustrator 22.1.0, SVG Export Plug-In . SVG Version: 6.00 Build 0)  -->
<svg version="1.1" id="vectorportal.com" xmlns="http://www.w3.org/2000/svg" xmlns:xlink="http://www.w3.org/1999/xlink" x="0px"
	 y="0px" viewBox="0 0 1261 300" style="enable-background:new 0 0 1261 300;" xml:space="preserve">
<style type="text/css">
	.st0{fill:#243153;}
	.st1{fill:none;}
	.st2{enable-background:new    ;}
</style>
<g>
	<g>
		<path class="st0" d="M279.9,74.7c-13.4-23-31.6-41.2-54.6-54.6S177.2,0,150,0S97.7,6.7,74.7,20.1S33.5,51.7,20.1,74.7
			S0,122.8,0,150s6.7,52.3,20.1,75.3s31.6,41.2,54.6,54.6S122.8,300,150,300s52.3-6.7,75.3-20.1s41.2-31.6,54.6-54.6
			S300,177.2,300,150S293.3,97.7,279.9,74.7z M242,203.3c-9.5,16.3-22.4,29.2-38.7,38.7s-34.1,14.3-53.3,14.3
			c-19.3,0-37-4.7-53.3-14.3c-16.3-9.5-29.2-22.4-38.7-38.7S43.7,169.2,43.7,150c0-19.3,4.8-37,14.3-53.3
			C67.5,80.4,80.4,67.5,96.7,58s34.1-14.3,53.3-14.3c19.3,0,37.1,4.8,53.3,14.3c16.3,9.5,29.2,22.4,38.7,38.7s14.3,34.1,14.3,53.3
			C256.3,169.3,251.5,187.1,242,203.3z"/>
		<path class="st0" d="M208.8,96.3c-2.5-2.5-5.4-3.7-8.8-3.7c-3.4,0-6.3,1.2-8.8,3.7L137.5,150l-28.7-28.7c-2.5-2.5-5.4-3.7-8.8-3.7
			s-6.3,1.2-8.8,3.7l-19.9,19.9c-2.5,2.5-3.7,5.4-3.7,8.8c0,3.4,1.2,6.3,3.7,8.8l57.4,57.4c2.5,2.5,5.4,3.7,8.8,3.7
			c3.4,0,6.3-1.2,8.8-3.7l82.4-82.4c2.5-2.5,3.7-5.4,3.7-8.8c0-3.4-1.2-6.3-3.7-8.8L208.8,96.3z"/>
	</g>
</g>
<rect x="382.6" y="8.4" class="st1" width="620.2" height="135.6"/>
<g class="st2">
	<path class="st0" d="M396.2,8.4h57.3c21.8,0,34.4,13.4,34.4,31.1c0,15.4-10.1,25.6-21.2,28c13,2,23.6,15.2,23.6,30
		c0,19.2-12.8,32.9-35.3,32.9h-58.7V8.4z M450,60.2c12.3,0,19-7.7,19-17.8c0-10.1-6.8-17.9-19-17.9h-35.5v35.7H450z M450.9,114.3
		c12.8,0,20.5-7.3,20.5-19.2c0-10.1-7-18.8-20.5-18.8h-36.4v38.1H450.9z"/>
	<path class="st0" d="M569.3,6.4c36.4,0,61.5,26.9,61.5,63.1s-25.1,63.1-61.5,63.1c-36.4,0-61.5-26.9-61.5-63.1S532.9,6.4,569.3,6.4
		z M569.3,22.7c-26.2,0-42.6,19.9-42.6,46.8c0,26.7,16.5,46.8,42.6,46.8c25.8,0,42.6-20.1,42.6-46.8
		C611.9,42.6,595.1,22.7,569.3,22.7z"/>
	<path class="st0" d="M723.5,105.2h-59.8l-9.9,25.3h-20.1L682.2,8.4h22.9l48.5,122.1h-20.1L723.5,105.2z M669,88.9h49.2l-24.7-64.6
		L669,88.9z"/>
	<path class="st0" d="M809.4,83.4h-22.9v47h-18.3V8.4h51.4c23.2,0,39.2,15,39.2,37.5c0,22-14.8,33.7-30.4,35.7l31.3,48.9h-21.2
		L809.4,83.4z M817.2,24.5h-30.7v42.8h30.7c13.2,0,22.7-8.6,22.7-21.4C839.9,33.1,830.4,24.5,817.2,24.5z"/>
	<path class="st0" d="M881.3,8.4h43.6c38.1,0,63.3,26,63.3,61.1c0,35.3-25.3,60.9-63.3,60.9h-43.6V8.4z M924.8,114.3
		c28.2,0,44.5-20.1,44.5-44.8c0-25.1-15.7-45-44.5-45h-25.3v89.9H924.8z"/>
</g>
<rect x="384.6" y="170.4" class="st1" width="892.7" height="135.6"/>
<g class="st2">
	<path class="st0" d="M393,231.5c0-37.5,27.8-63.1,62.6-63.1c24,0,39,11.5,48.5,25.8l-15.6,8.2c-6.4-10.2-18.5-17.8-32.9-17.8
		c-24.7,0-43.7,19.4-43.7,46.8c0,27.3,19,46.8,43.7,46.8c14.5,0,26.5-7.5,32.9-17.8l15.6,8.2c-9.7,14.3-24.5,25.8-48.5,25.8
		C420.8,294.6,393,269,393,231.5z"/>
	<path class="st0" d="M522.4,170.4h82v16.1h-63.7v35.7h62.4v16.1h-62.4v38.1h63.7v16.1h-82V170.4z"/>
	<path class="st0" d="M668.4,245.4h-22.9v47h-18.3V170.4h51.4c23.2,0,39.2,15,39.2,37.5c0,22-14.8,33.7-30.4,35.7l31.3,48.9h-21.2
		L668.4,245.4z M676.3,186.5h-30.7v42.8h30.7c13.2,0,22.7-8.6,22.7-21.4C699,195.1,689.5,186.5,676.3,186.5z"/>
	<path class="st0" d="M768.4,186.5h-37.9v-16.1h93.9v16.1h-37.7v106h-18.3V186.5z"/>
	<path class="st0" d="M843.4,170.4h18.3v122.1h-18.3V170.4z"/>
	<path class="st0" d="M889,170.4h82v16.1h-63.7v35.7h62.4v16.1h-62.4v54.2H889V170.4z"/>
	<path class="st0" d="M990.7,170.4h18.3v122.1h-18.3V170.4z"/>
	<path class="st0" d="M1036.3,170.4h82v16.1h-63.7v35.7h62.4v16.1h-62.4v38.1h63.7v16.1h-82V170.4z"/>
	<path class="st0" d="M1141.1,170.4h43.6c38.1,0,63.3,26,63.3,61.1c0,35.3-25.3,60.9-63.3,60.9h-43.6V170.4z M1184.7,276.3
		c28.2,0,44.5-20.1,44.5-44.8c0-25.1-15.7-45-44.5-45h-25.3v89.9H1184.7z"/>
</g>
</svg>
