<?xml version="1.0" encoding="utf-8"?>
<!-- Generator: Adobe Illustrator 22.1.0, SVG Export Plug-In . SVG Version: 6.00 Build 0)  -->
<svg version="1.1" id="Layer_1" xmlns="http://www.w3.org/2000/svg" xmlns:xlink="http://www.w3.org/1999/xlink" x="0px" y="0px"
	 viewBox="0 0 226 226" style="enable-background:new 0 0 226 226;" xml:space="preserve">
<style type="text/css">
	.st0{fill:#FFFFFF;}
	.st1{fill:#F8E8E0;}
	.st2{fill:none;stroke:#212D49;stroke-width:4;stroke-linecap:round;stroke-linejoin:round;stroke-miterlimit:10;}
</style>
<circle class="st0" cx="113" cy="113" r="113"/>
<path class="st1" d="M173.2,125.5h-51.7c-8.7,0-15.7-7.1-15.7-15.7V78.6c0-8.7,7.1-15.7,15.7-15.7h51.7c8.7,0,15.7,7.1,15.7,15.7
	v31.2C188.9,118.4,181.8,125.5,173.2,125.5z"/>
<path class="st2" d="M80.8,86.9H52.5c-8.5,0-15.4,6.9-15.4,15.4v37.5c0,8.5,6.9,15.4,15.4,15.4h53l21.1,21.1l0.3-46.2"/>
<path class="st2" d="M165.1,118h-53L91,139.1l-0.3-36.5V65c0-8.5,6.9-15.4,15.4-15.4h58.9c8.5,0,15.4,6.9,15.4,15.4v37.5
	C180.5,111.1,173.6,118,165.1,118z"/>
<line class="st2" x1="81.1" y1="120.1" x2="53.9" y2="120.1"/>
<line class="st2" x1="75.6" y1="129.1" x2="53.9" y2="129.1"/>
<line class="st2" x1="81.1" y1="111" x2="53.9" y2="111"/>
<line class="st2" x1="163.6" y1="81.5" x2="110" y2="81.5"/>
<line class="st2" x1="152.9" y1="90.6" x2="110" y2="90.6"/>
<line class="st2" x1="163.6" y1="72.5" x2="110" y2="72.5"/>
</svg>
