<svg width="14" height="14" viewBox="0 0 14 14" fill="none" xmlns="http://www.w3.org/2000/svg">
<path d="M11.4297 12.0515V13.3438C11.4297 13.4018 11.4066 13.4574 11.3656 13.4984C11.3246 13.5395 11.269 13.5625 11.2109 13.5625C11.1529 13.5625 11.0973 13.5395 11.0563 13.4984C11.0152 13.4574 10.9922 13.4018 10.9922 13.3438V12.0515C10.9923 11.7534 10.9192 11.4598 10.7792 11.1966C10.6392 10.9334 10.4366 10.7086 10.1894 10.5421C10.1413 10.5095 10.1081 10.4591 10.0972 10.402C10.0863 10.3449 10.0985 10.2859 10.1311 10.2378C10.1638 10.1897 10.2142 10.1565 10.2712 10.1456C10.3283 10.1347 10.3874 10.1469 10.4355 10.1795C10.7418 10.3863 10.9926 10.6651 11.166 10.9915C11.3394 11.3179 11.4299 11.6819 11.4297 12.0515ZM11.8945 5.79688V8.55859C11.8945 8.61661 11.8715 8.67225 11.8305 8.71327C11.7894 8.7543 11.7338 8.77734 11.6758 8.77734H11.2109C10.9297 8.77764 10.6518 8.71581 10.3972 8.59627C10.1427 8.47673 9.91761 8.30242 9.7382 8.08582C9.71876 8.06388 9.70392 8.03826 9.69457 8.01048C9.68522 7.98269 9.68155 7.95331 9.68378 7.92408C9.68601 7.89485 9.69409 7.86637 9.70755 7.84032C9.721 7.81428 9.73955 7.7912 9.7621 7.77247C9.78465 7.75373 9.81073 7.73972 9.8388 7.73126C9.86687 7.72281 9.89635 7.72008 9.9255 7.72324C9.95464 7.7264 9.98285 7.73539 10.0085 7.74967C10.0341 7.76395 10.0565 7.78323 10.0745 7.80637C10.213 7.97345 10.3867 8.10791 10.5831 8.20013C10.7795 8.29234 10.9939 8.34005 11.2109 8.33984H11.457V5.79688C11.4567 5.55212 11.3724 5.31489 11.2181 5.12489C11.0637 4.9349 10.8489 4.80367 10.6094 4.75316V5.53246C10.6094 5.59048 10.5863 5.64612 10.5453 5.68714C10.5043 5.72816 10.4486 5.75121 10.3906 5.75121C10.3326 5.75121 10.277 5.72816 10.2359 5.68714C10.1949 5.64612 10.1719 5.59048 10.1719 5.53246V3.39062C10.1712 2.72366 9.90588 2.08422 9.43427 1.61261C8.96265 1.14099 8.32321 0.875724 7.65625 0.875H6.34375C5.67679 0.875724 5.03735 1.14099 4.56573 1.61261C4.09412 2.08422 3.82885 2.72366 3.82813 3.39062V5.53246C3.82813 5.61671 3.85102 5.69938 3.89437 5.77162C3.93772 5.84386 3.99988 5.90297 4.07422 5.94262V4.64844C4.07422 4.59042 4.09727 4.53478 4.13829 4.49376C4.17931 4.45273 4.23495 4.42969 4.29297 4.42969C4.35099 4.42969 4.40663 4.45273 4.44765 4.49376C4.48867 4.53478 4.51172 4.59042 4.51172 4.64844V6.18324C4.51172 6.84318 4.77388 7.47608 5.24052 7.94272C5.70716 8.40937 6.34007 8.67152 7 8.67152C7.65993 8.67152 8.29284 8.40937 8.75948 7.94272C9.22612 7.47608 9.48828 6.84318 9.48828 6.18324V4.87348C8.96055 4.8434 8.50391 4.51391 8.33984 3.90168C7.87378 4.20023 7.3761 4.44628 6.8559 4.63531C6.11762 4.90328 5.38699 5.01484 5.30578 5.01484C5.25064 5.01426 5.19775 4.99286 5.15771 4.95495C5.11767 4.91703 5.09342 4.86539 5.08983 4.81037C5.08624 4.75534 5.10356 4.70098 5.13833 4.65818C5.1731 4.61538 5.22275 4.58729 5.27734 4.57953C5.7653 4.51121 6.24478 4.39208 6.70797 4.22406C7.30156 4.00838 7.86356 3.71409 8.37895 3.34906C8.41176 3.32623 8.4502 3.31282 8.49009 3.31029C8.52998 3.30777 8.56981 3.31622 8.60524 3.33474C8.64066 3.35326 8.67034 3.38113 8.69104 3.41532C8.71174 3.44952 8.72268 3.48874 8.72266 3.52871C8.72266 3.53418 8.72457 4.07559 9.13609 4.32414C9.40816 4.4882 9.66738 4.42367 9.73328 4.43133C9.79021 4.43822 9.84215 4.46719 9.87793 4.51199C9.8968 4.53572 9.91058 4.56309 9.9184 4.59238C9.92906 4.63367 9.92578 4.5377 9.92578 6.19965C9.92578 8.10223 8.06641 9.54707 6.17504 8.99035C6.15474 9.25283 6.05722 9.50343 5.89477 9.71059L7 10.553L7.58297 10.1087C7.60574 10.0906 7.63191 10.0772 7.65993 10.0693C7.68795 10.0614 7.71727 10.0592 7.74616 10.0628C7.77504 10.0663 7.80293 10.0757 7.82817 10.0902C7.85341 10.1047 7.87551 10.1241 7.89316 10.1472C7.91081 10.1704 7.92367 10.1968 7.93097 10.225C7.93828 10.2531 7.93988 10.2825 7.93569 10.3113C7.93151 10.3401 7.92161 10.3678 7.90659 10.3927C7.89156 10.4177 7.87172 10.4394 7.8482 10.4565C7.0957 11.0307 7.13125 11.005 7.10555 11.0193C7.07342 11.0369 7.03745 11.0463 7.00082 11.0466C6.97685 11.0463 6.95306 11.0423 6.93027 11.0348C6.88188 11.0184 6.98059 11.0873 5.56883 10.0114C5.42999 10.1022 5.27554 10.1665 5.11328 10.2011V11.1855C5.30454 11.2384 5.47012 11.3589 5.57936 11.5245C5.6886 11.6902 5.73409 11.8899 5.70738 12.0865C5.68068 12.2831 5.58361 12.4634 5.43415 12.594C5.28468 12.7245 5.09297 12.7964 4.89453 12.7964C4.69609 12.7964 4.50438 12.7245 4.35492 12.594C4.20546 12.4634 4.10838 12.2831 4.08168 12.0865C4.05498 11.8899 4.10046 11.6902 4.2097 11.5245C4.31894 11.3589 4.48453 11.2384 4.67578 11.1855V10.238C4.22094 10.2759 3.79696 10.4834 3.48798 10.8193C3.17901 11.1553 3.00761 11.5951 3.00781 12.0515V13.3438C3.00781 13.4018 2.98477 13.4574 2.94374 13.4984C2.90272 13.5395 2.84708 13.5625 2.78906 13.5625C2.73105 13.5625 2.67541 13.5395 2.63438 13.4984C2.59336 13.4574 2.57031 13.4018 2.57031 13.3438V12.0515C2.57017 11.7549 2.62847 11.4613 2.74188 11.1873C2.8553 10.9133 3.0216 10.6644 3.23128 10.4547C3.44096 10.245 3.68991 10.0787 3.9639 9.96528C4.23789 9.85187 4.53155 9.79357 4.82809 9.79371C4.94797 9.79389 5.06672 9.77045 5.17754 9.72473C5.28837 9.67901 5.3891 9.61191 5.47398 9.52725C5.55887 9.44259 5.62625 9.34204 5.67227 9.23134C5.71828 9.12064 5.74204 9.00196 5.74219 8.88207V8.82438C5.27818 8.60281 4.88062 8.26307 4.58943 7.83927C4.29825 7.41547 4.12367 6.92252 4.08324 6.40992C3.88598 6.36278 3.71035 6.25056 3.58469 6.09136C3.45903 5.93217 3.39066 5.73528 3.39063 5.53246V3.39062C3.39149 2.60767 3.7029 1.85704 4.25653 1.30341C4.81016 0.749779 5.5608 0.438368 6.34375 0.4375H7.65625C8.4392 0.438368 9.18984 0.749779 9.74347 1.30341C10.2971 1.85704 10.6085 2.60767 10.6094 3.39062V4.3091C10.9663 4.36198 11.2924 4.54126 11.5283 4.81432C11.7641 5.08737 11.8941 5.43605 11.8945 5.79688ZM4.89453 11.5938C4.81882 11.5938 4.74481 11.6162 4.68185 11.6583C4.6189 11.7003 4.56983 11.7601 4.54086 11.8301C4.51188 11.9 4.5043 11.977 4.51907 12.0512C4.53385 12.1255 4.5703 12.1937 4.62384 12.2473C4.67738 12.3008 4.74559 12.3372 4.81985 12.352C4.89411 12.3668 4.97108 12.3592 5.04103 12.3302C5.11098 12.3013 5.17076 12.2522 5.21283 12.1892C5.25489 12.1263 5.27734 12.0523 5.27734 11.9766C5.27734 11.875 5.23701 11.7777 5.16522 11.7059C5.09343 11.6341 4.99606 11.5938 4.89453 11.5938ZM9.32422 11.177C9.32422 9.92742 9.32914 9.98949 9.31273 9.94055C9.29892 9.8998 9.27339 9.86403 9.23934 9.83772C9.2053 9.8114 9.16425 9.79572 9.12133 9.79262C8.97325 9.78433 8.82941 9.74018 8.70218 9.66396C8.57496 9.58775 8.46816 9.48176 8.39098 9.35512C8.37645 9.32977 8.35699 9.30758 8.33375 9.28988C8.31051 9.27217 8.28395 9.2593 8.25566 9.25203C8.22736 9.24475 8.19789 9.24322 8.16899 9.24752C8.14009 9.25182 8.11235 9.26186 8.08739 9.27706C8.06244 9.29226 8.04079 9.3123 8.02371 9.33601C8.00663 9.35971 7.99447 9.3866 7.98795 9.41508C7.98143 9.44356 7.98068 9.47306 7.98575 9.50184C7.99082 9.53061 8.0016 9.55808 8.01746 9.58262C8.11291 9.73902 8.23921 9.87434 8.38865 9.98035C8.5381 10.0864 8.70756 10.1608 8.88672 10.1992V11.1759C8.61762 11.2272 8.37482 11.3707 8.20013 11.5817C8.02545 11.7928 7.92981 12.0581 7.92969 12.332V13.3438C7.92969 13.4018 7.95273 13.4574 7.99376 13.4984C8.03478 13.5395 8.09042 13.5625 8.14844 13.5625C8.20645 13.5625 8.26209 13.5395 8.30312 13.4984C8.34414 13.4574 8.36719 13.4018 8.36719 13.3438V12.332C8.36719 12.1362 8.44497 11.9484 8.58343 11.81C8.72188 11.6715 8.90966 11.5938 9.10547 11.5938C9.30127 11.5938 9.48906 11.6715 9.62751 11.81C9.76597 11.9484 9.84375 12.1362 9.84375 12.332V13.3438C9.84375 13.4018 9.8668 13.4574 9.90782 13.4984C9.94884 13.5395 10.0045 13.5625 10.0625 13.5625C10.1205 13.5625 10.1762 13.5395 10.2172 13.4984C10.2582 13.4574 10.2812 13.4018 10.2812 13.3438V12.332C10.2809 12.0583 10.1851 11.7932 10.0105 11.5824C9.83579 11.3716 9.59314 11.2283 9.32422 11.177Z" fill="#243153"/>
</svg>
