<svg width="16" height="17" viewBox="0 0 16 17" fill="none" xmlns="http://www.w3.org/2000/svg">
<path d="M15 2.83301H1C0.734784 2.83301 0.48043 2.93836 0.292893 3.1259C0.105357 3.31344 0 3.56779 0 3.83301L0 13.1663C0 13.4316 0.105357 13.6859 0.292893 13.8734C0.48043 14.061 0.734784 14.1663 1 14.1663H15C15.2652 14.1663 15.5196 14.061 15.7071 13.8734C15.8946 13.6859 16 13.4316 16 13.1663V3.83301C16 3.56779 15.8946 3.31344 15.7071 3.1259C15.5196 2.93836 15.2652 2.83301 15 2.83301ZM14.7867 3.49967L8 8.74634L1.21333 3.49967H14.7867ZM0.666667 13.0297V3.91967L5.80333 7.88968L0.666667 13.0297ZM1.13667 13.4997L6.33333 8.30301L7.79333 9.43301C7.85162 9.47788 7.92311 9.50221 7.99667 9.50221C8.07022 9.50221 8.14171 9.47788 8.2 9.43301L9.66667 8.30301L14.8633 13.4997H1.13667ZM15.3333 13.0297L10.1967 7.88968L15.3333 3.91967V13.0297Z" fill="black"/>
</svg>
