<svg width="16" height="17" viewBox="0 0 16 17" fill="none" xmlns="http://www.w3.org/2000/svg">
<g clip-path="url(#clip0_1125_121)">
<path d="M9.56521 11.5757C9.56521 11.5757 10.7799 10.8803 11.0979 10.7132C11.415 10.5455 11.7435 10.5032 11.943 10.625C12.2451 10.8098 14.7819 12.4974 14.9955 12.6468C15.2091 12.7965 15.312 13.224 15.0183 13.6428C14.7258 14.0616 13.3764 15.7176 12.8046 15.6999C12.2319 15.6813 9.85081 15.6291 5.36072 11.1377C0.871538 6.64786 0.818438 4.26612 0.800138 3.69342C0.781838 3.12101 2.43783 1.77129 2.85663 1.47848C3.27603 1.18598 3.70413 1.29608 3.85293 1.50188C4.02213 1.73618 5.69012 4.26493 5.87372 4.55473C5.99942 4.75273 5.95322 5.08304 5.78552 5.40044C5.61872 5.71845 4.92333 6.93317 4.92333 6.93317C4.92333 6.93317 5.41352 7.76928 7.07132 9.42681C8.72941 11.0846 9.56521 11.5757 9.56521 11.5757Z" stroke="black" stroke-miterlimit="10"/>
</g>
<defs>
<clipPath id="clip0_1125_121">
<rect width="16" height="16" fill="white" transform="translate(0 0.5)"/>
</clipPath>
</defs>
</svg>
