<svg version="1.1" id="Layer_1" xmlns="http://www.w3.org/2000/svg" xmlns:xlink="http://www.w3.org/1999/xlink" x="0px" y="0px"
	 viewBox="0 0 16 20" style="enable-background:new 0 0 16 20;" xml:space="preserve">
<style type="text/css">
	.st0{fill:#243153;}
</style>
<title>bag</title>
<g id="Calque_2">
	<g id="Calque_2-2">
		<path class="st0" d="M11.5,4.5c0-0.4,0-0.6,0-0.9c0-1.3,0-3.3-1.8-3.3C9.1,0.2,8.5,0.4,8,0.6C7.6,0.2,7.1,0,6.5,0
			C4.2,0,2.8,1.4,2.8,3.6c0,0.3,0,0.6,0.1,0.9H1.4L0,18.8L11.5,20L11.5,4.5z M9.6,0.9c1,0,1.1,0.9,1.1,2.7c0,0.3,0,0.5,0,0.9H8.6
			c0-0.4,0-0.6,0-0.9c0-0.8-0.1-1.6-0.3-2.4C8.7,1,9.2,0.9,9.6,0.9 M6.7,4.5c0-0.3-0.1-0.5-0.1-0.8C6.6,2.9,7,2,7.7,1.5
			c0.1,0.7,0.2,1.3,0.2,2c0,0.3,0,0.5,0,0.9L6.7,4.5z M3.4,3.6C3.3,2.1,4.5,0.7,6,0.6c0.2,0,0.3,0,0.5,0c0.3,0,0.7,0.1,0.9,0.4
			C6.5,1.6,6,2.6,6,3.7C6,4,6,4.2,6,4.5H3.5C3.5,4.2,3.4,3.9,3.4,3.6 M11,19.1l-10.2-1L2,5.4h1c0.2,0.5,0.5,0.9,0.8,1.3l0,0
			c0,0.6,0.3,1,0.7,1s0.7-0.5,0.7-1s-0.3-1-0.7-1C4.4,5.7,4.2,5.8,4.1,6C3.9,5.8,3.8,5.6,3.7,5.4H8C8.1,5.7,8.1,6,8.2,6.3
			c0,0.1,0,0.3-0.1,0.4c0,0.6,0.3,1,0.7,1s0.7-0.5,0.7-1S9.4,5.8,9,5.7c-0.2,0-0.3,0-0.3,0.1c0-0.1-0.1-0.4-0.1-0.4H11V19.1z"/>
		<polygon class="st0" points="16,19.1 15.2,4.4 13.4,5.2 13.9,19.6 		"/>
		<polygon class="st0" points="11.4,4.5 11.5,20 13.4,19.6 12.8,5.2 		"/>
	</g>
</g>
</svg>