<?xml version="1.0" encoding="utf-8"?>
<!-- Generator: Adobe Illustrator 22.1.0, SVG Export Plug-In . SVG Version: 6.00 Build 0)  -->
<svg version="1.1" id="Layer_1" xmlns="http://www.w3.org/2000/svg" xmlns:xlink="http://www.w3.org/1999/xlink" x="0px" y="0px"
	 viewBox="0 0 226 226" style="enable-background:new 0 0 226 226;" xml:space="preserve">
<style type="text/css">
	.st0{fill:#FFFFFF;}
	.st1{fill:#F8E8E0;}
	.st2{fill:#212D49;}
</style>
<circle class="st0" cx="113" cy="113" r="113"/>
<rect x="66.3" y="89.7" class="st1" width="77" height="55.5"/>
<path class="st2" d="M183.5,47.2H42.5c-1.2,0-2.1,1-2.1,2.1v127.4c0,1.2,1,2.1,2.1,2.1h141.1c1.2,0,2.1-1,2.1-2.1V49.3
	C185.7,48.1,184.7,47.2,183.5,47.2z M44.6,174.6v-105h14.3c1.2,0,2.1-1,2.1-2.1c0-1.2-1-2.1-2.1-2.1H44.6V51.4h136.8v13.9H68.7
	c-1.2,0-2.1,1-2.1,2.1c0,1.2,1,2.1,2.1,2.1h112.7v105H44.6z"/>
<path class="st2" d="M119.8,147.3h-13.7c-4.9,0-9,4-9,9c0,4.9,4,9,9,9h13.7c4.9,0,9-4,9-9C128.8,151.3,124.8,147.3,119.8,147.3z
	 M119.8,160.9h-13.7c-2.6,0-4.7-2.1-4.7-4.7c0-2.6,2.1-4.7,4.7-4.7h13.7c2.6,0,4.7,2.1,4.7,4.7C124.5,158.8,122.4,160.9,119.8,160.9
	z"/>
<path class="st2" d="M165.1,60.5h0.3c1.2,0,2.1-1,2.1-2.1s-1-2.1-2.1-2.1h-0.3c-1.2,0-2.1,1-2.1,2.1S163.9,60.5,165.1,60.5z"/>
<path class="st2" d="M174.2,60.5h0.3c1.2,0,2.1-1,2.1-2.1s-1-2.1-2.1-2.1h-0.3c-1.2,0-2.1,1-2.1,2.1S173,60.5,174.2,60.5z"/>
<path class="st2" d="M155.7,60.5h0.3c1.2,0,2.1-1,2.1-2.1s-1-2.1-2.1-2.1h-0.3c-1.2,0-2.1,1-2.1,2.1S154.5,60.5,155.7,60.5z"/>
<path class="st2" d="M159.1,138.3l8.1-8.1c1.1-1.1,0.6-3.1-0.9-3.6l-14.7-4V94.8c0-1.2-1-2.1-2.1-2.1H76.6c-1.2,0-2.1,1-2.1,2.1
	v45.5c0,1.2,1,2.1,2.1,2.1h57.9l3.4,12.5c0.4,1.5,2.4,2.1,3.6,0.9l8.1-8.1l14.6,14.6c0.8,0.8,2.2,0.8,3,0l6.4-6.4
	c0.8-0.8,0.8-2.2,0-3L159.1,138.3z M78.7,138.2V96.9h68.6v24.4l-16.4-4.5c-1.6-0.4-3,1.1-2.6,2.6l5.1,18.7h-8.8H78.7z M165.7,157.8
	l-14.6-14.6c-0.8-0.8-2.2-0.8-3,0l-7.1,7.1l-7.7-28.3l28.3,7.7l-7.1,7.1c-0.8,0.8-0.8,2.2,0,3l14.6,14.6L165.7,157.8z"/>
<path class="st0" d="M165.7,157.8l-14.6-14.6c-0.8-0.8-2.2-0.8-3,0l-7.1,7.1l-7.7-28.3l28.3,7.7l-7.1,7.1c-0.8,0.8-0.8,2.2,0,3
	l14.6,14.6L165.7,157.8z"/>
</svg>
