<svg xmlns="http://www.w3.org/2000/svg" xmlns:xlink="http://www.w3.org/1999/xlink" viewBox="0 0 437.38 57.23"><defs><style>.cls-1{fill:none;}.cls-2{fill:#11b3a1;}.cls-3{fill:#253152;}.cls-4{fill:url(#New_Pattern_Swatch_4);}</style><pattern id="New_Pattern_Swatch_4" data-name="New Pattern Swatch 4" width="137.41" height="137.41" patternTransform="translate(-478.55 -501.09) scale(5.74)" patternUnits="userSpaceOnUse" viewBox="0 0 137.41 137.41"><rect class="cls-1" width="137.41" height="137.41"/><rect class="cls-2" width="137.41" height="137.41"/></pattern></defs><title>CosmeticRx Wordmark</title><g id="Layer_2" data-name="Layer 2"><g id="Wordmark"><path class="cls-3" d="M40.73,7.91A24.55,24.55,0,0,1,49.5,20.62H44a18.64,18.64,0,0,0-7-9.07A20.74,20.74,0,0,0,24.9,8.18,18.85,18.85,0,0,0,15,10.88,18.65,18.65,0,0,0,8,18.6,25.53,25.53,0,0,0,5.4,30.3,25.27,25.27,0,0,0,8,42a18.53,18.53,0,0,0,17,10.39A20.74,20.74,0,0,0,37,49a18.62,18.62,0,0,0,7-9.08H49.5a24.47,24.47,0,0,1-8.77,12.71Q34.49,57.23,25,57.23a24.55,24.55,0,0,1-13-3.45,23.51,23.51,0,0,1-8.85-9.57A29.91,29.91,0,0,1,0,30.3a30.31,30.31,0,0,1,3.15-14A23.27,23.27,0,0,1,12,6.71,24.8,24.8,0,0,1,25,3.3Q34.49,3.3,40.73,7.91Z"/><path class="cls-3" d="M86.94,17.74A17.91,17.91,0,0,1,94.18,25,22.91,22.91,0,0,1,96.8,36.23,22.63,22.63,0,0,1,94.18,47.4a18.16,18.16,0,0,1-7.24,7.27,22.73,22.73,0,0,1-21,0,18.24,18.24,0,0,1-7.31-7.31A22.36,22.36,0,0,1,56,36.23,22.6,22.6,0,0,1,58.67,25,18.08,18.08,0,0,1,66,17.74a23.13,23.13,0,0,1,21,0ZM69,21.6a13.56,13.56,0,0,0-5.55,5.51,18.28,18.28,0,0,0-2.1,9.12,18,18,0,0,0,2.1,9.07A13.6,13.6,0,0,0,69,50.78a16,16,0,0,0,7.5,1.8,15.55,15.55,0,0,0,7.38-1.8,13.66,13.66,0,0,0,5.52-5.48,18,18,0,0,0,2.1-9.07,18.28,18.28,0,0,0-2.1-9.12,13.61,13.61,0,0,0-5.52-5.51,15.55,15.55,0,0,0-7.38-1.8A16,16,0,0,0,69,21.6Z"/><path class="cls-3" d="M127.68,18.75a15.12,15.12,0,0,1,4.95,9.53h-5a10.17,10.17,0,0,0-3.26-6.57,10.7,10.7,0,0,0-7.54-2.59,9.34,9.34,0,0,0-6.33,2,6.65,6.65,0,0,0-2.29,5.29,5.48,5.48,0,0,0,1.46,4,9.49,9.49,0,0,0,3.64,2.28,48.94,48.94,0,0,0,5.85,1.62,53.73,53.73,0,0,1,7.24,2.13,11.74,11.74,0,0,1,4.68,3.42A9.48,9.48,0,0,1,133,46.12a10,10,0,0,1-3.63,8q-3.65,3.12-9.64,3.12-7,0-11.55-3.49a14,14,0,0,1-5.33-9.57H108a9.6,9.6,0,0,0,3.52,6.61q3.08,2.55,8.32,2.55a8.59,8.59,0,0,0,6.08-2,6.84,6.84,0,0,0,2.17-5.25,5.84,5.84,0,0,0-1.5-4.2,9.27,9.27,0,0,0-3.71-2.36,57.75,57.75,0,0,0-6-1.69,53.53,53.53,0,0,1-7.08-2.1,11.32,11.32,0,0,1-4.54-3.26,9.06,9.06,0,0,1-1.88-6A10,10,0,0,1,107,18.3q3.67-3.08,10-3.07Q123.62,15.23,127.68,18.75Z"/><path class="cls-3" d="M202.89,19.54q4.38,4.53,4.39,13.31V56.7H202V33.23q0-6.6-3.19-10.13a11.2,11.2,0,0,0-8.74-3.52,12.11,12.11,0,0,0-9.45,3.9q-3.53,3.9-3.52,11.47V56.7H172V33.23q0-6.6-3.19-10.13A11.16,11.16,0,0,0,160,19.58a12.11,12.11,0,0,0-9.45,3.9q-3.53,3.9-3.53,11.47V56.7h-5.32V15.75h5.32V25.5a13.66,13.66,0,0,1,5.44-7.84A15.9,15.9,0,0,1,161.6,15a15.33,15.33,0,0,1,9.3,2.85,14.74,14.74,0,0,1,5.4,8.4,15.13,15.13,0,0,1,5.78-8.36A15.9,15.9,0,0,1,191.45,15,15.19,15.19,0,0,1,202.89,19.54Z"/><path class="cls-3" d="M244.5,50.1a11.14,11.14,0,0,0,4.5-7.5h5.55a16.64,16.64,0,0,1-6.23,10.57q-5.1,4.06-12.9,4.06A21,21,0,0,1,225,54.71,17.56,17.56,0,0,1,218,47.44a23.42,23.42,0,0,1-2.55-11.21A23.46,23.46,0,0,1,218,25,17.56,17.56,0,0,1,225,17.74a21,21,0,0,1,10.38-2.51,20.5,20.5,0,0,1,10.39,2.51,17,17,0,0,1,6.68,6.71,18.87,18.87,0,0,1,2.28,9.15,22.26,22.26,0,0,1-.3,3.82h-33.9a17.24,17.24,0,0,0,2.14,8.67,12.9,12.9,0,0,0,5.36,5.14,15.73,15.73,0,0,0,7.13,1.65A15.21,15.21,0,0,0,244.5,50.1ZM228.15,21.15a13,13,0,0,0-5.36,5.06,17.2,17.2,0,0,0-2.22,8.52h29a15.12,15.12,0,0,0-1.65-8.48,12.28,12.28,0,0,0-5.25-5.1,16.69,16.69,0,0,0-14.47,0Z"/><path class="cls-3" d="M280.85,52.05V56.7H276q-5.93,0-8.85-2.81T264.2,44.4V20.33H258V15.75h6.22V5.4h5.33V15.75h11.25v4.58H269.53V44.48c0,2.9.52,4.88,1.57,6s2.9,1.61,5.55,1.61Z"/><path class="cls-3" d="M287.58,1a4,4,0,0,1,2.81-1,4,4,0,0,1,2.78,1,3.43,3.43,0,0,1,1,2.62,3.35,3.35,0,0,1-1,2.55,3.94,3.94,0,0,1-2.78,1,4,4,0,0,1-2.81-1,3.25,3.25,0,0,1-1.09-2.55A3.32,3.32,0,0,1,287.58,1ZM293,15.75v41h-5.32V15.75Z"/><path class="cls-3" d="M334.23,19.35a17.11,17.11,0,0,1,6.26,11H335a11.67,11.67,0,0,0-4.57-7.69,15,15,0,0,0-9.23-2.81,15.16,15.16,0,0,0-7.31,1.8,13.06,13.06,0,0,0-5.32,5.51,19.07,19.07,0,0,0-2,9.12,19.05,19.05,0,0,0,2,9.11,13.06,13.06,0,0,0,5.32,5.51,15.16,15.16,0,0,0,7.31,1.8,15,15,0,0,0,9.23-2.81A11.67,11.67,0,0,0,335,42.15h5.48a17.11,17.11,0,0,1-6.26,11,20,20,0,0,1-12.94,4.13,21.06,21.06,0,0,1-10.39-2.52,17.62,17.62,0,0,1-7.09-7.27,23.42,23.42,0,0,1-2.55-11.21A23.46,23.46,0,0,1,303.81,25a17.62,17.62,0,0,1,7.09-7.27,21.05,21.05,0,0,1,10.39-2.51Q329.09,15.23,334.23,19.35Z"/><path class="cls-4" d="M376,56.7l-11.47-20h-2.93v20H348.8v-53h21.9a23.64,23.64,0,0,1,10.65,2.17,15,15,0,0,1,6.52,6,17.12,17.12,0,0,1,2.18,8.67,15.36,15.36,0,0,1-3.19,9.82,16.27,16.27,0,0,1-9.26,5.55L390.2,56.7Zm-14.4-28.8h7.95q3.82,0,5.63-1.69a6.49,6.49,0,0,0,1.8-5,6.58,6.58,0,0,0-1.84-4.95q-1.85-1.8-5.59-1.8h-7.95Z"/><path class="cls-4" d="M423,56.7l-8.55-11.92-7,11.92H393.35l13.88-21.82-14.4-20h14.4l8.48,11.77,7-11.77h14.1L422.6,36.15,437.38,56.7Z"/></g></g></svg>