<?xml version="1.0" standalone="no"?>
<!DOCTYPE svg PUBLIC "-//W3C//DTD SVG 20010904//EN"
 "http://www.w3.org/TR/2001/REC-SVG-20010904/DTD/svg10.dtd">
<svg version="1.0" xmlns="http://www.w3.org/2000/svg"
 width="500.000000pt" height="500.000000pt" viewBox="0 0 500.000000 500.000000"
 preserveAspectRatio="xMidYMid meet">
<metadata>
Created by potrace 1.11, written by Peter Selinger 2001-2013
</metadata>
<g transform="translate(0.000000,500.000000) scale(0.100000,-0.100000)"
fill="#000000" stroke="none">
<path d="M2399 4986 c-2 -2 -53 -7 -114 -10 -374 -22 -698 -93 -898 -198 -243
-127 -508 -389 -667 -659 -179 -306 -305 -640 -359 -954 -6 -33 -13 -73 -16
-90 -42 -244 -52 -726 -20 -995 3 -19 7 -55 10 -80 53 -434 190 -830 394
-1140 160 -244 394 -476 581 -577 155 -83 417 -167 625 -199 28 -4 57 -9 65
-10 93 -18 343 -41 530 -49 278 -12 1130 2 1147 19 12 11 -11 24 -52 29 -464
63 -913 309 -1215 667 -30 36 -57 67 -60 70 -16 14 -124 176 -170 255 -127
217 -249 539 -285 755 -3 19 -8 42 -10 50 -7 24 -18 95 -30 190 -25 192 -25
589 -1 717 3 11 7 44 11 74 19 157 100 468 158 609 5 14 11 30 12 35 11 47
153 330 227 450 44 71 163 242 177 255 4 3 24 28 46 55 53 68 224 239 310 310
155 129 374 253 555 315 52 17 104 34 115 36 17 3 66 14 85 19 3 1 31 5 63 9
38 6 57 13 57 22 0 8 -1 14 -2 15 -8 3 -1265 8 -1269 5z"/>
<path d="M3788 4765 c-2 -2 -21 -6 -43 -9 -199 -24 -505 -154 -770 -325 -70
-45 -175 -121 -207 -151 -16 -15 -15 -16 15 -18 191 -13 350 -78 460 -187 54
-53 129 -152 191 -249 21 -33 44 -66 52 -73 8 -8 14 -18 14 -22 0 -20 146
-151 198 -179 197 -105 495 -98 678 15 78 48 110 76 160 139 200 253 172 665
-60 877 -134 123 -323 186 -557 186 -70 0 -129 -2 -131 -4z"/>
<path d="M2810 2537 c0 -601 3 -756 13 -752 6 2 44 6 82 10 39 3 81 7 95 9 14
3 55 7 92 11 l67 7 0 236 c0 130 0 253 0 272 1 34 2 36 37 35 22 0 40 -6 46
-15 4 -8 62 -114 128 -235 66 -121 124 -227 129 -235 6 -11 24 -15 62 -14 47
0 165 10 224 19 11 1 25 3 32 4 6 0 -15 48 -47 105 -95 171 -121 217 -163 296
-22 41 -43 79 -48 85 -12 12 -11 25 2 25 26 0 106 46 149 86 119 111 149 326
71 499 -57 124 -189 219 -333 240 -24 3 -55 8 -69 10 -14 3 -52 7 -85 10 -32
3 -75 8 -94 10 -19 2 -66 7 -105 11 -38 3 -83 8 -100 10 -16 2 -65 6 -107 10
l-78 6 0 -755z m515 418 c108 -8 158 -32 186 -87 29 -56 30 -151 3 -197 -32
-54 -81 -70 -221 -70 -74 0 -125 4 -129 10 -7 13 -8 334 -1 346 5 9 38 8 162
-2z"/>
<path d="M3890 2906 c0 -3 45 -80 100 -171 55 -92 100 -169 100 -170 0 -2 18
-33 40 -68 l41 -65 -97 -188 c-53 -104 -114 -222 -135 -262 -22 -41 -39 -76
-39 -79 0 -2 30 -2 68 1 125 11 207 18 208 20 77 176 121 267 128 267 5 1 20
-18 34 -42 13 -24 38 -66 56 -94 17 -27 37 -62 45 -77 8 -15 20 -25 30 -23 9
1 59 6 111 10 52 4 98 9 102 11 7 5 -10 38 -122 234 -45 80 -89 157 -97 172
-13 26 -9 36 102 252 63 124 115 227 115 229 0 2 -24 4 -52 6 -29 1 -81 4
-115 7 l-63 4 -55 -115 c-30 -63 -55 -120 -55 -126 0 -19 -23 -4 -39 27 -77
139 -133 231 -144 231 -6 0 -69 4 -139 8 -71 3 -128 4 -128 1z"/>
<path d="M3948 1515 c-2 -2 -21 -5 -43 -8 -190 -27 -316 -121 -470 -352 -100
-149 -105 -156 -185 -235 -91 -90 -227 -158 -351 -175 -24 -3 -53 -8 -64 -10
-11 -2 -30 -4 -42 -4 -13 -1 -23 -4 -23 -8 0 -8 183 -141 259 -188 187 -116
403 -215 576 -263 144 -41 181 -46 325 -46 175 1 281 23 410 86 150 75 270
220 316 384 25 92 27 263 4 354 -74 288 -296 458 -607 465 -57 1 -104 1 -105
0z"/>
</g>
</svg>
