<?xml version="1.0" encoding="utf-8"?>
<!-- Generator: Adobe Illustrator 23.0.0, SVG Export Plug-In . SVG Version: 6.00 Build 0)  -->
<svg version="1.1" id="Layer_1" xmlns="http://www.w3.org/2000/svg" xmlns:xlink="http://www.w3.org/1999/xlink" x="0px" y="0px"
	 viewBox="0 0 226 226" style="enable-background:new 0 0 226 226;" xml:space="preserve">
<style type="text/css">
	.st0{fill:#FFFFFF;}
	.st1{fill:#F8E8E0;}
	.st2{fill:none;stroke:#212D49;stroke-width:6;stroke-linecap:round;stroke-linejoin:round;stroke-miterlimit:10;}
	.st3{fill:none;stroke:#212D49;stroke-width:7;stroke-linecap:round;stroke-linejoin:round;stroke-miterlimit:10;}
	.st4{fill:#202C49;}
</style>
<circle class="st0" cx="113" cy="113" r="113"/>
<circle class="st1" cx="112.5" cy="113.2" r="69.9"/>
<line class="st2" x1="113.4" y1="42.3" x2="113.4" y2="55"/>
<line class="st2" x1="78" y1="51.6" x2="84.3" y2="62.6"/>
<line class="st2" x1="52" y1="77.3" x2="63" y2="83.7"/>
<line class="st2" x1="42.3" y1="112.6" x2="55" y2="112.6"/>
<line class="st2" x1="51.6" y1="148" x2="62.6" y2="141.7"/>
<line class="st2" x1="77.3" y1="174" x2="83.7" y2="163"/>
<line class="st2" x1="112.6" y1="183.7" x2="112.6" y2="171"/>
<line class="st2" x1="148" y1="174.4" x2="141.7" y2="163.4"/>
<line class="st2" x1="174" y1="148.7" x2="163" y2="142.3"/>
<line class="st2" x1="183.7" y1="113.4" x2="171" y2="113.4"/>
<path class="st3" d="M85.1,36c42.5-15.4,89.5,6.6,104.9,49.1s-6.6,89.5-49.1,104.9S51.4,183.4,36,140.9c-12.9-35.6,0.4-74.3,30.1-95
	"/>
<line class="st2" x1="174.4" y1="78" x2="163.4" y2="84.3"/>
<line class="st2" x1="148.7" y1="52" x2="142.3" y2="63"/>
<polyline class="st3" points="51.6,44.4 66.5,44.4 66.5,59.9 "/>
<g>
	<path class="st4" d="M87.3,81.7c2.1-2.3,5.2-3.4,9.1-3.4c4,0,7.1,1,9.4,3.1c2.3,2.1,3.4,5.9,3.4,11.3s-1.8,11-5.3,16.8l-15.5,24.9
		H109v5.5H83.2v-4.1c0-2.9,0.5-5.5,1.4-7.8c0.9-2.3,3.1-6,6.3-11.2l7.2-11.2c2.8-3.9,4.2-8.2,4.2-12.9c0-3.3-0.5-5.7-1.6-7
		c-1.1-1.3-2.6-2-4.6-2s-3.5,0.8-4.6,2.5c-1.1,1.6-1.8,4.6-2.2,8.9l-6-0.9C83.8,88.2,85.1,84,87.3,81.7z"/>
	<path class="st4" d="M133.2,140v-14.1h-19.3v-3.3l14.5-42.9H140v40.7h3.5v5.5H140V140H133.2z M133.2,120.3V84.4L121,120.3H133.2z"
		/>
</g>
</svg>
