<svg width="16" height="16" viewBox="0 0 16 16" fill="none" xmlns="http://www.w3.org/2000/svg">
<path d="M15.8401 4.2964L15.0386 3.49491C14.9318 3.38788 14.8087 3.33453 14.6696 3.33453C14.5309 3.33453 14.4079 3.38788 14.3011 3.49491L8.00008 9.7956L1.69934 3.49508C1.59248 3.38805 1.4695 3.3347 1.33058 3.3347C1.1916 3.3347 1.06862 3.38805 0.961812 3.49508L0.160377 4.29663C0.0533466 4.40343 0 4.52641 0 4.66539C0 4.80426 0.0535151 4.92724 0.160377 5.03404L7.63132 12.5052C7.73812 12.612 7.86116 12.6654 8.00008 12.6654C8.13901 12.6654 8.26182 12.612 8.36857 12.5052L15.8401 5.03404C15.9469 4.92718 16 4.80421 16 4.66539C16 4.52641 15.9469 4.40343 15.8401 4.2964Z" fill="#243153"/>
</svg>
