<svg viewBox="0 0 737 266" class="logo-svg" version="1.1" xmlns="http://www.w3.org/2000/svg" xmlns:xlink="http://www.w3.org/1999/xlink">
    <defs></defs>
    <g id="Page-1" stroke="none" stroke-width="1" fill="none" fill-rule="evenodd">
        <g transform="translate(1.000000, 0.000000)" fill="#949494">
            <path d="M269.846594,262.241196 L257.065366,262.241196 L257.065366,4.13170093 L276.966289,4.13170093 L276.966289,0.723420561 L205.689987,0.723420561 L205.689987,4.13170093 L225.553711,4.13170093 L225.553711,262.241196 L205.689987,262.241196 L205.689987,265.607215 L318.990094,265.607215 L318.990094,195.984822 L315.632356,195.984822 C314.905755,241.928243 295.733913,262.241196 269.846594,262.241196" id="Fill-1"></path>
            <path d="M479.938342,262.241196 L467.194312,262.241196 L467.194312,4.13170093 L487.058037,4.13170093 L487.058037,0.723420561 L415.784215,0.723420561 L415.784215,4.13170093 L435.64298,4.13170093 L435.64298,262.241196 L415.784215,262.241196 L415.784215,265.607215 L529.084322,265.607215 L529.084322,195.984822 L525.726584,195.984822 C524.997503,241.928243 505.828141,262.241196 479.938342,262.241196" id="Fill-2"></path>
            <path d="M58.6612248,262.241196 L48.1044362,262.241196 L48.1044362,132.448112 L52.6326711,132.448112 C70.2694765,132.448112 79.6532886,151.239645 79.6532886,179.845832 L82.6464866,179.845832 L82.6464866,79.7552523 L79.6532886,79.7552523 C79.6532886,104.202393 71.4002953,129.037346 52.6326711,129.037346 L48.1044362,129.037346 L48.1044362,4.13170093 L61.6122651,4.13170093 C82.6464866,4.13170093 105.540607,21.0786355 105.540607,66.2091402 L108.533805,66.2091402 L108.533805,0.723420561 L-0.677003356,0.723420561 L-0.677003356,4.13170093 L16.5927819,4.13170093 L16.5927819,262.241196 L-0.677003356,262.241196 L-0.677003356,265.607215 L108.938023,265.607215 L108.938023,196.392523 L105.944826,196.392523 C105.944826,245.294262 81.1908054,262.241196 58.6612248,262.241196" id="Fill-3"></path>
            <path d="M732.460594,196.268224 C732.460594,245.21471 707.706574,262.121869 685.176993,262.121869 L674.662362,262.121869 L674.662362,132.323813 L679.14844,132.323813 C696.785245,132.323813 706.169057,151.13772 706.169057,179.726505 L709.199453,179.726505 L709.199453,79.6309533 L706.169057,79.6309533 C706.169057,104.083065 697.918544,128.918019 679.14844,128.918019 L674.662362,128.918019 L674.662362,4.02728972 L688.128034,4.02728972 C709.199453,4.02728972 732.058856,20.9593084 732.058856,66.107215 L735.091732,66.107215 L735.091732,0.621495327 L625.836285,0.621495327 L625.836285,4.02728972 L643.11103,4.02728972 L643.11103,262.121869 L625.836285,262.121869 L625.836285,265.487888 L735.453792,265.487888 L735.453792,196.268224 L732.460594,196.268224" id="Fill-4"></path>
        </g>
    </g>
</svg>