<?xml version="1.0" encoding="utf-8"?>
<!-- Generator: Adobe Illustrator 22.1.0, SVG Export Plug-In . SVG Version: 6.00 Build 0)  -->
<svg version="1.1" id="vectorportal.com" xmlns="http://www.w3.org/2000/svg" xmlns:xlink="http://www.w3.org/1999/xlink" x="0px"
	 y="0px" viewBox="0 0 1363.5 532.2" enable-background="new 0 0 1363.5 532.2" xml:space="preserve">
<g>
	<path fill="#243153" d="M178.5,69.2c0,0-76.1,33.8-132.4,33.8c-11.7,0-39.2-2.8-47-21c31.1-2.3,98.9-15.6,139-29.5
		C140.2,70.9,178.5,69.2,178.5,69.2 M185.1,69C157.7,84.5,90.4,104.9,52,108.4c5.2,7.6,33.2,13.2,59.7,11.4c42.5-3,88-29.9,99-38.9
		C200.5,78.5,199.9,66.7,185.1,69 M215.4,84.5c-9.6,6.4-56.8,33.5-98.5,38.7c15.4,14,47.3,10.1,61.6,5.8
		c22.3-6.7,64.7-32.5,64.7-32.5S226.7,82,215.4,84.5 M246.5,98.2c-7.4,5.4-54.4,30.1-67,34c7.1,2.2,15.4,3.4,23.6,3.9
		c3.9-11,18.3-20.1,26.9-24.3c11.1-5.4,26.3-10.3,46.8-6.8c2.3-2,3.7-3.2,3.7-3.2S254.4,100.7,246.5,98.2 M284.5,103
		c-1.1,0.8-2.6,1.9-4.2,3.2c8.3,3.1,14.8,10.7,16.4,12.4c4.2-8.8,2.5-18.1,2.5-18.1S288.9,100.1,284.5,103 M289.6,79.3
		c-42.3,0-32.8-40.3-32.8-48.4c0-8.2-0.6-25.3-26.8-22.1c-26.3,3.2-71,30.9-86.4,41.1c-0.4,7,20.1,18.1,47.7,14.6
		c2,0.3,26.9-4.8,28.5-4.2c1.6,0.9-20,7.2-19,7.7c7.2,3.8,10.9,9.6,16.6,11c1.7,0.4,22.6-3.6,25.9-2.3c1.1,0.4-15.4,5.5-14.3,6
		c8.4,2.8,15.5,8.2,18.8,11.3c1.2,0.2,17.1-1.9,18.4-1.7c1.3,0.2-9.8,4.2-8.4,4.4c9.3,1.4,17.4,1.6,22.6,1.6c6.7,0,14.9-2,18.6,0
		C300.8,98.8,292,79.3,289.6,79.3 M602.5,82c-31.1-2.3-98.9-15.6-139-29.5c-2.1,18.4-40.4,16.7-40.4,16.7s76.1,32.2,132.4,33.8
		C569,103.4,589.4,98.8,602.5,82 M549.6,108.4c-38.4-3.5-105.7-23.9-133.1-39.3c-14.9-2.3-15.4,9.5-25.6,11.8
		c11.1,9,56.6,34.9,99,38.9C498.1,120.5,525.2,121.3,549.6,108.4 M358.4,96.6c0,0,42.4,25.8,64.7,32.5c14.3,4.3,46.1,8.2,61.6-5.8
		c-41.7-5.2-88.8-32.3-98.5-38.7C374.8,82,358.4,96.6,358.4,96.6 M321.2,101.7c0,0,1.6,1.5,4.3,3.8c13.8-4.9,34.7,0.6,44.9,5.1
		c8.7,3.8,19.2,10,27.9,25.5c8.3-0.4,16.5-1.7,23.7-3.9c-12.6-3.9-59.6-28.5-67-34C347.2,100.7,321.2,101.7,321.2,101.7
		 M302.3,100.5c0,0-2,10.8,3.6,20.1c2.9-4.5,8-9.7,16.4-13.5c-2.1-1.7-3.9-3.1-5.2-4C312.6,100.1,302.3,100.5,302.3,100.5
		 M371.7,8.7c-26.3-3.2-26.8,14-26.8,22.1c0,8.2,9.5,48.4-32.8,48.4c-2.4,0-11.2,19.5-9.4,18.8c3.7-2,11.9,0,18.6,0
		c5.2,0,13.3-0.1,22.6-1.6c1.4-0.2-9.8-4.1-8.4-4.4c1.3-0.2,17.2,1.9,18.4,1.7c3.3-3.1,10.4-8.5,18.8-11.3c1.2-0.5-15.3-5.6-14.3-6
		c3.3-1.3,24.2,2.7,25.9,2.3c5.7-1.5,9.4-7.3,16.6-11c1-0.5-20.7-6.8-19-7.7c1.6-0.6,26.5,4.6,28.5,4.2c27.6,3.5,48.1-7.6,47.7-14.6
		C442.7,39.6,397.9,11.9,371.7,8.7 M319.2,359.9c6.6,2.9,10.9,8.4,12.5,15.3c1.9,6.8-0.4,12.1-5.4,17c-4.4,4.1-10.4,6.9-16.6,8.5
		c8,1,14.3,3.9,20.5,7.5c0.9-0.5,1.8-1.1,2.6-1.6c8.6-5.5,17-16.9,15.7-30.3c-0.8-11.1-7.1-23.4-17.7-30c-10.4-6.7-22.5-8-33-7.8
		c-8.8,0-17.8-1-25.2-3.9c-7.6-3.1-11.8-7.4-12.1-12.7c-0.2-6.7,2.2-14.7,7.2-18.9c2.1-2,4.8-3.6,7.9-4.9c-1-0.3-2.1-0.5-3.1-0.8
		c-7.5-1.8-14.7-4.2-21.5-7.6c-7.4,8.5-11,19.9-10.9,30.2c-0.1,6.8,2.2,14.4,6.7,19.9c4.4,5.6,10.1,9.1,15.5,11.5
		c11.1,4.7,22,5.7,32.5,5.7C304.9,356.6,312.3,356.8,319.2,359.9 M317,463.9c-4-4.7-10.1-8.1-16.4-9.9c-5.3-1.6-10.7-3.8-14.8-7.1
		c-8.2-5.5-9-21.3-0.1-26.5c0.8-0.5,1.7-1,2.7-1.4c-4.8-1.7-9.5-3.6-14.4-5.1c-3.9,4.7-6.4,10.6-6.4,16.1
		c-0.5,8.4,2.7,17.3,8.7,22.6c12,11.1,26.4,9,32.9,15c7.7,5.5,8.5,14.7,7.4,21.6c-2.5,14.7-15.3,13.4-14.7,14.5
		c-0.3,0.4,1.5,1.3,5.5,0.9c3.8-0.1,10.9-3.6,13.8-11.6c1.5-3.8,2.2-8.3,2.1-13.2C323.1,474.5,321.1,468.6,317,463.9 M286.2,489.1
		c-1.1-6.9-0.2-16.1,7.4-21.6c0.5-0.5,1.2-1,1.8-1.4c-2.8-1.2-5.5-2.5-8.3-3.7c-0.5,0.5-0.9,0.9-1.4,1.4c-4.1,4.6-6.1,10.6-6.3,15.8
		c-0.1,4.9,0.6,9.4,2.1,13.2c2.8,8,9.9,11.5,13.8,11.6c4,0.4,5.8-0.5,5.5-0.9C301.5,502.6,288.7,503.9,286.2,489.1 M335.2,429.9
		c0-8.7-6-18.5-14.5-22.6c-7.8-4.6-18.5-4.9-24.9-6.1c-7.2-1.3-14.2-4.4-19.3-9.1c-5.1-4.9-7.3-10.3-5.4-17
		c1.4-5.7,4.5-10.4,9.3-13.5c-1.4-0.3-2.8-0.5-4.1-0.9c-4.9-1.3-9.5-3.5-14.2-5.2c-4.6,6.2-7.3,13.7-7.7,20.7
		c-1.3,13.3,7.1,24.7,15.7,30.3c8.8,5.9,18.5,8.5,27.7,9.3c8.5,0.3,14.7,1.4,19.5,4.5c8.9,5.3,8.1,21-0.1,26.5
		c-3,2.5-6.8,4.3-10.7,5.8c4.2,1.6,8.3,3.4,12.2,5.5c2.7-1.4,5.4-3.2,8-5.6C332.5,447.3,335.8,438.3,335.2,429.9 M347.3,285.3
		c-10.4-8.6-22.8-11.7-34.2-12.8c-12.3-0.9-20.8-0.1-30.3-1.9c-18.3-2.2-37.1-12.5-35.4-22.6c-0.2-12.5,9.6-20.6,23.6-24.9
		c-11.2-1.4-22.1-4-32.6-9c-0.4-0.2-0.8-0.4-1.1-0.6c-9.9,9-15.4,23.5-14.3,36.9c0.4,7.8,3.8,15.8,8.7,21.4
		c4.8,5.6,10.5,9.4,16.1,12.4c11.3,5.8,22.8,8.2,34.2,9.6c11.5,1.5,23.3,0.2,31.4,1.1c8.8,0.9,16.8,3.5,21.8,8.2
		c4.9,4.2,7.4,12.2,7.2,18.9c-0.3,5.3-4.4,9.6-12.1,12.7c-2.4,0.9-4.9,1.7-7.6,2.2c8,3.1,15.3,7.7,23.1,12c3.7-2.2,7.4-5.1,10.4-8.9
		c4.5-5.5,6.8-13.1,6.7-19.9C362.9,307.7,357.9,293.9,347.3,285.3 M301,118.6l-8.5,19.8c0.1,15.6,0.2,32,0.3,48.9H309
		c0.2-16.9,0.3-33.3,0.4-48.9L301,118.6z M301,91.2l8.8-16.3c0-3.3,0-6.6,0-9.8c0-4.4-3.9-6.4-8.8-6.4c-4.9,0-8.8,1.3-8.8,6.4
		c0,3.1,0,6.4,0,9.8L301,91.2z M293,223.6c0.1,14.5,0.3,29.2,0.4,43.9h14.6c0.2-14.7,0.4-29.4,0.6-43.9H293z M293.8,298.3
		c0.2,13,0.3,25.9,0.5,38.6H307c0.2-12.7,0.4-25.6,0.6-38.6H293.8z M305.9,397.8c0.3-12.5,0.5-25.5,0.7-38.8h-11.9
		c0.2,13.3,0.4,26.3,0.7,38.8H305.9z M304.7,450.8c0.3-10,0.5-20.6,0.8-31.7h-9.7c0.2,11.2,0.5,21.8,0.7,31.7H304.7z M296.9,467.5
		c1.2,40.1,2.5,65.5,4.1,64.6c1-0.6,2.1-25.7,3.2-64.6H296.9z M301,0c-12.2,0-22.1,9.9-22.1,22.1c0,12.2,9.9,22.1,22.1,22.1
		c12.2,0,22.1-9.9,22.1-22.1C323.2,9.9,313.2,0,301,0 M301,46.3c-7.2,0.3-13.4-3.9-15.4-2c-2.3,1.6,3.5,12.9,15.4,12.9
		c11.9-0.1,17.6-11.3,15.4-12.9C314.4,42.4,308.2,46.7,301,46.3 M379.8,250.4c-0.4,7.8-3.9,15.8-8.7,21.4
		c-4.8,5.6-10.5,9.4-16.1,12.4c0,0-0.1,0-0.1,0c-8.2-7-18.5-11.9-29.1-14.6c16.3-3.4,31.1-12.6,29.6-21.6
		c0.2-14.5-13-23.1-30.7-26.7C293,215,241,226.4,210.4,186c-3.4-5.1-5.9-11.3-6.7-17.5c-1-6.4-0.7-10.9-0.1-16.6
		c1.2-11.1,7.4-22.8,16.2-29.8c17.8-13.8,35.4-14.5,50-15.8c7.7-0.3,19.9,8.2,25,16.2c0,1.3-0.5,2.5-1.3,3.6c-4,5.3-16.1,8-22.2,8.2
		c-12.1,0.7-19-12-34.6,5c-3.6,3-4.7,10.8-5.6,16.5c-0.6,6.6-0.4,11.3,2.6,15.4c5.8,9.2,21.8,16.3,38.6,19
		c8.7,1.5,16.9,1.8,27.2,2.1c10.5,0.3,21.2,1.3,32.3,4c10.9,2.8,22.7,7,32.8,16.1C375,221.5,380.9,236.5,379.8,250.4 M268.4,114.2
		c0,1.3,1,2.3,2.3,2.3c1.3,0,2.3-1,2.3-2.3c0-1.3-1-2.3-2.3-2.3C269.4,111.9,268.4,112.9,268.4,114.2 M399.2,168.5
		c-0.9,6.3-3.3,12.4-6.7,17.5c-7.3,9.7-15.9,16.4-25.1,21.1c-5.9-3.8-12.2-6.8-18.6-9.6c-5.5-2.4-11.2-5.1-17-6.5
		c-0.7-0.2-1.5-0.3-2.2-0.5c0.4-0.1,0.8-0.1,1.1-0.2c16.7-2.7,32.8-9.8,38.6-19c3-4.1,3.2-8.8,2.6-15.4c-0.9-5.7-1.9-13.5-5.6-16.5
		c-15.7-17.1-22.5-4.4-34.6-5c-7.3-0.3-23.5-4.1-23.5-11.8c5.2-8,17.4-16.5,25-16.2c14.6,1.4,32.1,2,50,15.8
		c8.8,7,14.9,18.7,16.2,29.8C399.8,157.7,400.1,162.1,399.2,168.5 M334.6,114.2c0-1.3-1-2.3-2.3-2.3s-2.3,1-2.3,2.3
		c0,1.3,1,2.3,2.3,2.3S334.6,115.5,334.6,114.2"/>
</g>
<rect x="548" y="124.4" fill="none" width="842.1" height="203.6"/>
<text transform="matrix(1 0 0 1 547.9521 309.8031)" fill="#243153" font-family="'Montserrat'" font-size="278px" letter-spacing="3">HIPPA</text>
<rect x="548.4" y="340" fill="none" width="930.9" height="203.6"/>
<text transform="matrix(1 0 0 1 548.4283 440.0697)" fill="#243153" font-family="'ProximaNova-Medium'" font-size="150px" letter-spacing="-3">COMPLIANT</text>
</svg>
