<svg version="1.1" id="Capa_1" xmlns="http://www.w3.org/2000/svg" xmlns:xlink="http://www.w3.org/1999/xlink" x="0px" y="0px"
	 viewBox="0 0 612 535.8" style="enable-background:new 0 0 612 535.8;" xml:space="preserve">
<style type="text/css">
	.st0{fill:#FFFFFF;}
</style>
<g>
	<g id="_x36__30_">
		<g>
			<path class="st0" d="M331.7,387.4c-7.5,7.5-7.5,19.6,0,27c7.5,7.5,19.6,7.5,27,0l131.9-132c4-4,5.7-9.3,5.4-14.5
				c0.3-5.2-1.4-10.5-5.4-14.5L358.7,121.6c-7.5-7.5-19.6-7.5-27,0c-7.5,7.5-7.5,19.6,0,27L432,248.9H19.1C8.6,248.9,0,257.4,0,268
				s8.6,19.1,19.1,19.1H432L331.7,387.4z M535.5,0.2H153c-42.2,0-76.5,34.3-76.5,76.5v76.5h38.2V76.8c0-21.1,17.1-38.2,38.2-38.2
				h382.5c21.1,0,38.2,17.1,38.2,38.2v382.5c0,21.1-17.1,38.2-38.2,38.2H153c-21.1,0-38.2-17.1-38.2-38.2v-76.5H76.5v76.5
				c0,42.2,34.3,76.5,76.5,76.5h382.5c42.2,0,76.5-34.3,76.5-76.5V76.8C612,34.5,577.7,0.2,535.5,0.2z"/>
		</g>
	</g>
</g>
</svg>