<svg width="14" height="14" viewBox="0 0 14 14" fill="none" xmlns="http://www.w3.org/2000/svg">
<path fill-rule="evenodd" clip-rule="evenodd" d="M3.28974 9.60478C1.58958 8.86646 0.399994 7.17238 0.399994 5.19999C0.399994 2.54903 2.54903 0.399994 5.19999 0.399994C7.85096 0.399994 9.99999 2.54903 9.99999 5.19999C9.99999 5.64836 9.93846 6.08262 9.82331 6.49465C10.3822 6.58081 10.9151 6.71376 11.3898 6.89431C11.4595 6.92079 11.5281 6.94841 11.5956 6.97716C12.6981 7.43574 13.4 8.12689 13.4 8.89999C13.4 8.96399 13.3952 9.02742 13.3857 9.09021C13.4061 9.29791 13.4197 9.54036 13.4239 9.79337C13.4326 10.3248 13.4004 10.9229 13.294 11.3485L13.2871 11.3762L13.2727 11.4008C12.5174 12.6956 10.8215 13.5008 7.79333 13.3999L7.78953 13.3998L7.78574 13.3995C6.35842 13.2975 5.26726 12.9216 4.52081 12.4966C4.14809 12.2844 3.85826 12.0581 3.6554 11.8447C3.45998 11.6391 3.32097 11.4198 3.30098 11.2199C3.27971 11.0072 3.28015 10.5186 3.28507 10.0113C3.28638 9.87653 3.28802 9.73967 3.28974 9.60478ZM5.19999 0.799994C2.80336 0.799994 0.854268 2.71613 0.801108 5.09999H9.59888C9.54572 2.71613 7.59663 0.799994 5.19999 0.799994ZM3.29535 9.16758C1.90395 8.4984 0.91908 7.11905 0.810061 5.49999H9.58993C9.56808 5.82482 9.51099 6.13984 9.42251 6.44133C9.02865 6.39702 8.62595 6.375 8.22499 6.375C7.10736 6.375 5.98754 6.54608 5.09586 6.895C4.21202 7.24085 3.5056 7.78142 3.30639 8.54981L3.29999 8.57449V8.6C3.29999 8.75637 3.298 8.9524 3.29535 9.16758ZM3.68505 10.0152C3.68594 9.92389 3.68699 9.83116 3.68811 9.73841C4.37737 10.7067 6.22677 11.4 8.39999 11.4C10.4872 11.4 12.2757 10.7605 13.0246 9.85208C13.0301 10.3448 12.9981 10.8628 12.9127 11.2239C12.2603 12.3157 10.7576 13.0978 7.81047 13.0002C6.43967 12.9018 5.40847 12.5417 4.71874 12.149C4.37305 11.9522 4.11618 11.7489 3.94534 11.5691C3.76706 11.3816 3.70539 11.244 3.699 11.1801C3.68046 10.9948 3.68003 10.5334 3.68505 10.0152ZM12.9103 8.66324C12.7289 8.11915 12.205 7.67219 11.444 7.34732C11.0802 7.19583 10.6656 7.06993 10.2126 6.97723L6.95287 10.8889C7.40666 10.9607 7.89275 11 8.39999 11C9.73207 11 10.9183 10.7292 11.7566 10.31C12.5112 9.93269 12.8973 9.48611 12.982 9.07403C12.9608 8.87783 12.9346 8.7363 12.9103 8.66324ZM6.50226 10.8049L9.75841 6.89749C9.33018 6.83433 8.87434 6.79999 8.39999 6.79999C7.06791 6.79999 5.88172 7.07081 5.04335 7.49C4.18104 7.92115 3.79999 8.44277 3.79999 8.89999C3.79999 9.35722 4.18104 9.87884 5.04335 10.31C5.45408 10.5154 5.9483 10.6851 6.50226 10.8049Z" fill="#243153"/>
</svg>
