<?xml version="1.0" encoding="utf-8"?>
<!-- Generator: Adobe Illustrator 22.1.0, SVG Export Plug-In . SVG Version: 6.00 Build 0)  -->
<svg version="1.1" id="Layer_1" xmlns="http://www.w3.org/2000/svg" xmlns:xlink="http://www.w3.org/1999/xlink" x="0px" y="0px"
	 viewBox="0 0 226 226" style="enable-background:new 0 0 226 226;" xml:space="preserve">
<style type="text/css">
	.st0{fill:#FFFFFF;}
	.st1{fill:#212D49;}
	.st2{fill:#F8E8E0;}
	.st3{fill:none;stroke:#212D49;stroke-width:4;stroke-linecap:round;stroke-linejoin:round;stroke-miterlimit:10;}
</style>
<circle class="st0" cx="113" cy="113" r="113"/>
<g>
	<g>
		<path class="st1" d="M113,187.1c-0.2,0-0.5-0.1-0.7-0.2C46.5,154.4,49,72.6,49.1,71.8c0-0.7,0.6-1.4,1.3-1.5
			c41.2-7.4,61.2-30.7,61.4-30.9c0.6-0.7,1.8-0.7,2.4,0c0.2,0.2,20.2,23.5,61.4,30.9c0.7,0.1,1.3,0.7,1.3,1.5
			c0,0.8,2.6,82.7-63.2,115.2C113.5,187.1,113.2,187.1,113,187.1z M52.2,73.2c0,10.3,1.9,81,60.8,110.6
			c58.9-29.7,60.8-100.3,60.8-110.6c-36.3-6.9-55.9-25.2-60.8-30.4C108.1,47.9,88.5,66.3,52.2,73.2z"/>
	</g>
	<g>
		<path class="st2" d="M113,177.8c-0.3,0-0.6-0.1-0.9-0.3c-41.3-25.2-51.1-71-53.3-96.1c-0.1-0.9,0.5-1.7,1.3-1.9
			c24.3-6.7,41.6-17.6,51.9-25.5c0.6-0.5,1.5-0.5,2.2,0c10.3,7.9,27.6,18.8,51.9,25.5c0.8,0.2,1.4,1,1.3,1.9
			c-2.2,25.1-12,70.9-53.3,96.1C113.6,177.7,113.3,177.8,113,177.8z"/>
	</g>
	<line class="st3" x1="135.1" y1="103.9" x2="111.2" y2="127.7"/>
	<line class="st3" x1="110.7" y1="127.9" x2="97.3" y2="114.4"/>
</g>
</svg>
