<?xml version="1.0" encoding="utf-8"?>
<!-- Generator: Adobe Illustrator 22.1.0, SVG Export Plug-In . SVG Version: 6.00 Build 0)  -->
<svg version="1.1" id="Layer_1" xmlns="http://www.w3.org/2000/svg" xmlns:xlink="http://www.w3.org/1999/xlink" x="0px" y="0px"
	 viewBox="0 0 226 226" style="enable-background:new 0 0 226 226;" xml:space="preserve">
<style type="text/css">
	.st0{fill:#FFFFFF;}
	.st1{fill:#F8E8E0;}
	.st2{fill:#212D49;}
</style>
<circle class="st0" cx="113" cy="113" r="113"/>
<polygon class="st1" points="76.6,71.4 132.3,97.6 132.3,120.2 145.5,112.9 145.5,87.7 93.4,61.9 "/>
<path class="st2" d="M171.3,75.9l-55-26.5c-0.5-0.2-1.1-0.2-1.5,0l-55,26.5c-0.6,0.3-1,0.9-1,1.6V142c0,0.7,0.4,1.3,1,1.6l55,26.5
	c0.2,0.1,0.5,0.2,0.8,0.2c0.3,0,0.5-0.1,0.8-0.2l55-26.5c0.6-0.3,1-0.9,1-1.6V77.5C172.3,76.8,171.9,76.2,171.3,75.9z M115.5,52.9
	l50.9,24.6l-14.8,7.1c-0.1-0.1-0.2-0.1-0.3-0.2L100.8,60L115.5,52.9z M96.8,62l50.8,24.5l-10.4,5L86.4,67.1L96.8,62z M139.1,94.6
	l9.7-4.7v18.6l-9.7,4.7V94.6z M117.3,165.7v-60.5l12.3-5.9c0.9-0.4,1.3-1.5,0.8-2.4c-0.4-0.9-1.5-1.3-2.4-0.8l-12.5,6l-4.9-2.4
	c-0.9-0.4-1.9-0.1-2.4,0.8s-0.1,1.9,0.8,2.4l4.7,2.3v60.5l-51.4-24.8V80.3l39.2,18.9c0.2,0.1,0.5,0.2,0.8,0.2c0.7,0,1.3-0.4,1.6-1
	c0.4-0.9,0.1-1.9-0.8-2.4L64.6,77.5L82.3,69l53.3,25.7c0,0,0,0,0,0V116c0,0.6,0.3,1.2,0.8,1.5c0.3,0.2,0.6,0.3,0.9,0.3
	c0.3,0,0.5-0.1,0.8-0.2l13.3-6.4c0.6-0.3,1-0.9,1-1.6V88.2l16.4-7.9v60.5L117.3,165.7z"/>
<path class="st2" d="M77,134l-8.1-3.9c-0.9-0.4-1.9-0.1-2.4,0.8c-0.4,0.9-0.1,1.9,0.8,2.4l8.1,3.9c0.2,0.1,0.5,0.2,0.8,0.2
	c0.7,0,1.3-0.4,1.6-1C78.2,135.5,77.9,134.4,77,134z"/>
<path class="st2" d="M84.4,129.1l-15.5-7.5c-0.9-0.4-1.9-0.1-2.4,0.8c-0.4,0.9-0.1,1.9,0.8,2.4l15.5,7.5c0.2,0.1,0.5,0.2,0.8,0.2
	c0.7,0,1.3-0.4,1.6-1C85.7,130.6,85.3,129.6,84.4,129.1z"/>
<g>
	<path class="st2" d="M60.2,91.7H19.3c-1,0-1.8-0.8-1.8-1.8s0.8-1.8,1.8-1.8h40.9c1,0,1.8,0.8,1.8,1.8S61.2,91.7,60.2,91.7z"/>
</g>
<g>
	<path class="st2" d="M60.2,121.2H29.5c-1,0-1.8-0.8-1.8-1.8c0-1,0.8-1.8,1.8-1.8h30.8c1,0,1.8,0.8,1.8,1.8
		C62,120.4,61.2,121.2,60.2,121.2z"/>
</g>
<g>
	<path class="st2" d="M60.2,107.2H5.6c-1,0-1.8-0.8-1.8-1.8c0-1,0.8-1.8,1.8-1.8h54.6c1,0,1.8,0.8,1.8,1.8
		C62,106.5,61.2,107.2,60.2,107.2z"/>
</g>
</svg>
