<svg width="14" height="14" viewBox="0 0 14 14" fill="none" xmlns="http://www.w3.org/2000/svg">
<g clip-path="url(#clip0_251_233)">
<path d="M13.9032 4.20157L9.06162 2.01239C9.01761 1.99587 8.96479 1.99587 8.92958 2.01239L4.08803 4.20157C4.03521 4.22635 4 4.27592 4 4.33375V9.66212C4 9.71995 4.03521 9.76952 4.08803 9.7943L8.92958 11.9835C8.94718 11.9917 8.97359 12 9 12C9.02641 12 9.04401 11.9917 9.07042 11.9835L13.912 9.7943C13.9648 9.76952 14 9.71995 14 9.66212V4.33375C13.9912 4.27592 13.956 4.22635 13.9032 4.20157ZM8.9912 2.30153L13.4718 4.33375L12.169 4.92028C12.1602 4.91202 12.1514 4.91202 12.1426 4.90376L7.69718 2.88806L8.9912 2.30153ZM7.34507 3.05328L11.8169 5.07724L10.9014 5.49029L6.42958 3.4746L7.34507 3.05328ZM11.0687 5.74639L11.9225 5.35812V6.89467L11.0687 7.28294V5.74639ZM9.14965 11.62V6.62206L10.2324 6.13465C10.3116 6.10161 10.3468 6.01074 10.3028 5.93639C10.2676 5.86204 10.1708 5.829 10.0915 5.8703L8.9912 6.36596L8.55986 6.1677C8.48063 6.13465 8.39261 6.15944 8.34859 6.23379C8.30458 6.30814 8.33979 6.39075 8.41901 6.43205L8.83275 6.62206V11.62L4.3081 9.57125V4.56506L7.7588 6.12639C7.77641 6.13465 7.80282 6.14292 7.82923 6.14292C7.89085 6.14292 7.94366 6.10987 7.97007 6.06031C8.00528 5.98596 7.97887 5.90335 7.89965 5.86204L4.51056 4.33375L6.06866 3.63156L10.7606 5.75465V7.51425C10.7606 7.56382 10.787 7.61338 10.831 7.63817C10.8574 7.65469 10.8838 7.66295 10.9102 7.66295C10.9366 7.66295 10.9542 7.65469 10.9806 7.64643L12.1514 7.11772C12.2042 7.09294 12.2394 7.04337 12.2394 6.98554V5.21768L13.6831 4.56506V9.56299L9.14965 11.62Z" fill="#243153"/>
<path d="M4.91639 8.54508L4.22097 8.02326C4.14371 7.96974 4.05785 8.00988 4.01492 8.1303C3.98058 8.25072 4.00634 8.38452 4.08361 8.45142L4.77903 8.97324C4.7962 8.98662 4.82195 9 4.84771 9C4.90781 9 4.95932 8.94648 4.98508 8.8662C5.01942 8.74578 4.99366 8.5986 4.91639 8.54508Z" fill="#243153"/>
<path d="M5.89338 8.69297L4.26963 8.0157C4.17535 7.97958 4.07059 8.00667 4.01821 8.08794C3.97631 8.16921 4.00774 8.25952 4.10202 8.30467L5.72576 8.98194C5.74672 8.99097 5.77814 9 5.80957 9C5.8829 9 5.94575 8.96388 5.97718 8.9097C6.02956 8.82842 5.98766 8.73812 5.89338 8.69297Z" fill="#243153"/>
<path d="M4.13428 5.2961H0.845893C0.765492 5.2961 0.701172 5.23177 0.701172 5.15137C0.701172 5.07097 0.765492 5.00665 0.845893 5.00665H4.13428C4.21468 5.00665 4.279 5.07097 4.279 5.15137C4.279 5.23177 4.21468 5.2961 4.13428 5.2961Z" fill="#243153"/>
<path d="M4.13451 7.66792H1.66621C1.5858 7.66792 1.52148 7.6036 1.52148 7.5232C1.52148 7.4428 1.5858 7.37848 1.66621 7.37848H4.14255C4.22295 7.37848 4.28727 7.4428 4.28727 7.5232C4.27923 7.6036 4.21491 7.66792 4.13451 7.66792Z" fill="#243153"/>
<path d="M4.13421 6.54231H-0.255669C-0.33607 6.54231 -0.400391 6.47799 -0.400391 6.39759C-0.400391 6.31719 -0.33607 6.25287 -0.255669 6.25287H4.13421C4.21461 6.25287 4.27893 6.31719 4.27893 6.39759C4.27893 6.48603 4.21461 6.54231 4.13421 6.54231Z" fill="#243153"/>
</g>
<defs>
<clipPath id="clip0_251_233">
<rect width="14" height="14" fill="white"/>
</clipPath>
</defs>
</svg>
