<svg width="20" height="20" viewBox="0 0 20 20" fill="none" xmlns="http://www.w3.org/2000/svg">
<g clip-path="url(#clip0_662_139)">
<path d="M5.07504 15.8333H15.075L13.9917 16.9083C13.8348 17.0653 13.7466 17.2781 13.7466 17.5C13.7466 17.7219 13.8348 17.9347 13.9917 18.0917C14.1486 18.2486 14.3615 18.3367 14.5834 18.3367C14.8053 18.3367 15.0181 18.2486 15.175 18.0917L17.675 15.5917C17.7531 15.5142 17.8151 15.422 17.8575 15.3205C17.8998 15.2189 17.9215 15.11 17.9215 15C17.9215 14.89 17.8998 14.7811 17.8575 14.6795C17.8151 14.578 17.7531 14.4858 17.675 14.4083L15.175 11.9083C15.0976 11.8302 15.0054 11.7682 14.9039 11.7259C14.8023 11.6836 14.6934 11.6618 14.5834 11.6618C14.4734 11.6618 14.3644 11.6836 14.2629 11.7259C14.1613 11.7682 14.0692 11.8302 13.9917 11.9083C13.9136 11.9858 13.8516 12.078 13.8093 12.1795C13.767 12.2811 13.7452 12.39 13.7452 12.5C13.7452 12.61 13.767 12.7189 13.8093 12.8205C13.8516 12.922 13.9136 13.0142 13.9917 13.0917L15.075 14.1667H5.07504C4.90431 14.17 4.73461 14.1396 4.57561 14.0773C4.41662 14.0151 4.27145 13.9221 4.14841 13.8037C4.02537 13.6853 3.92685 13.5438 3.8585 13.3873C3.79015 13.2308 3.75329 13.0624 3.75004 12.8917V10.8333C3.75004 10.6123 3.66224 10.4004 3.50596 10.2441C3.34968 10.0878 3.13772 10 2.91671 10C2.69569 10 2.48373 10.0878 2.32745 10.2441C2.17117 10.4004 2.08337 10.6123 2.08337 10.8333V12.8917C2.08664 13.2813 2.16662 13.6664 2.31874 14.0251C2.47085 14.3838 2.69213 14.709 2.96994 14.9821C3.24774 15.2553 3.57663 15.4711 3.93783 15.6171C4.29902 15.7632 4.68545 15.8366 5.07504 15.8333Z" fill="#4867C0"/>
<path d="M4.82499 8.0917C4.90269 8.1694 4.99493 8.23103 5.09645 8.27308C5.19797 8.31513 5.30677 8.33677 5.41666 8.33677C5.52654 8.33677 5.63535 8.31513 5.73686 8.27308C5.83838 8.23103 5.93062 8.1694 6.00832 8.0917C6.08602 8.014 6.14766 7.92176 6.18971 7.82024C6.23176 7.71872 6.2534 7.60991 6.2534 7.50003C6.2534 7.39015 6.23176 7.28134 6.18971 7.17982C6.14766 7.0783 6.08602 6.98606 6.00832 6.90836L4.92499 5.83336H14.925C15.0957 5.83005 15.2654 5.8604 15.4244 5.92269C15.5834 5.98497 15.7286 6.07797 15.8516 6.19638C15.9747 6.31478 16.0732 6.45626 16.1415 6.61274C16.2099 6.76922 16.2467 6.93764 16.25 7.10836V9.1667C16.25 9.38771 16.3378 9.59967 16.4941 9.75595C16.6503 9.91223 16.8623 10 17.0833 10C17.3043 10 17.5163 9.91223 17.6726 9.75595C17.8289 9.59967 17.9167 9.38771 17.9167 9.1667V7.10836C17.9134 6.71877 17.8334 6.33364 17.6813 5.97496C17.5292 5.61627 17.3079 5.29107 17.0301 5.0179C16.7523 4.74474 16.4234 4.52898 16.0622 4.38293C15.701 4.23687 15.3146 4.1634 14.925 4.1667H4.92499L6.00832 3.0917C6.08643 3.01423 6.14843 2.92206 6.19073 2.82051C6.23304 2.71896 6.25482 2.61004 6.25482 2.50003C6.25482 2.39002 6.23304 2.2811 6.19073 2.17955C6.14843 2.078 6.08643 1.98583 6.00832 1.90836C5.93085 1.83026 5.83869 1.76826 5.73714 1.72595C5.63559 1.68365 5.52667 1.66187 5.41666 1.66187C5.30665 1.66187 5.19773 1.68365 5.09618 1.72595C4.99463 1.76826 4.90246 1.83026 4.82499 1.90836L2.32499 4.40836C2.24688 4.48583 2.18489 4.578 2.14258 4.67955C2.10027 4.7811 2.07849 4.89002 2.07849 5.00003C2.07849 5.11004 2.10027 5.21896 2.14258 5.32051C2.18489 5.42206 2.24688 5.51423 2.32499 5.5917L4.82499 8.0917Z" fill="#4867C0"/>
</g>
<defs>
<clipPath id="clip0_662_139">
<rect width="20" height="20" fill="white"/>
</clipPath>
</defs>
</svg>
