<?xml version="1.0" encoding="UTF-8"?>
<svg xmlns="http://www.w3.org/2000/svg" width="278" height="60" viewBox="0 0 278 60" fill="none">
  <path d="M28.1852 48.6788C28.1961 48.8033 28.1569 48.893 28.0676 48.9479C27.9939 49.0014 27.9878 49.1117 28.0495 49.2788C27.9264 49.3053 27.8229 49.3771 27.739 49.4942C27.6551 49.6114 27.5509 49.6754 27.4264 49.6863C27.3486 49.6931 27.2829 49.6596 27.2294 49.5859C27.2078 49.6975 27.1524 49.7808 27.0631 49.8357C26.9893 49.8892 26.9071 49.9356 26.8164 49.9749C26.7258 50.0142 26.6358 50.0613 26.5465 50.1162C26.4572 50.171 26.401 50.2465 26.3781 50.3426L26.2613 50.3528C26.0745 50.3692 25.9335 50.4599 25.8381 50.6251C25.7584 50.789 25.6484 50.877 25.5083 50.8893C25.4616 50.8933 25.4298 50.8883 25.4129 50.8741C25.3364 50.8965 25.3094 50.9459 25.3318 51.0223C25.3555 51.1144 25.3376 51.1787 25.2781 51.2153L25.1613 51.2255C24.7566 51.2609 24.3516 51.3826 23.9463 51.5906C23.541 51.7986 23.13 52.0306 22.7132 52.2866C22.312 52.5413 21.8939 52.7818 21.4588 53.0081C21.0407 53.2486 20.6087 53.4197 20.1627 53.5214C20.0775 53.623 19.9669 53.7032 19.8309 53.7622C19.7118 53.8354 19.5758 53.8943 19.4229 53.9391C19.2699 53.9838 19.117 54.0286 18.9641 54.0733C18.8281 54.1323 18.7097 54.2132 18.6089 54.3161C18.2225 54.3813 17.8395 54.4854 17.4598 54.6284C17.0802 54.7714 16.7 54.9066 16.319 55.0341C15.9549 55.1757 15.5733 55.2954 15.174 55.393C14.7917 55.5049 14.3968 55.563 13.9894 55.5673C13.8731 55.6715 13.7391 55.7538 13.5875 55.8142C13.4529 55.8887 13.3274 55.9781 13.211 56.0824C12.5647 56.0448 11.9204 56.0306 11.2781 56.0397C10.6514 56.0475 10.027 55.9923 9.40497 55.8742C9.40088 55.8275 9.38259 55.7978 9.3501 55.7849C9.31761 55.7721 9.27733 55.7599 9.22927 55.7484C9.19814 55.7512 9.16565 55.7383 9.13179 55.7099C9.0993 55.6971 9.0959 55.6582 9.12158 55.5932C8.98557 55.6521 8.86309 55.6864 8.75413 55.6959C8.59848 55.7095 8.43942 55.6842 8.27695 55.62C8.13006 55.5544 7.96691 55.4824 7.78752 55.404C7.62369 55.3243 7.45208 55.2452 7.27269 55.1668C7.09466 55.1039 6.90447 55.0813 6.70212 55.099C6.5667 54.9854 6.43906 54.8711 6.31921 54.7561C6.21492 54.6398 6.13126 54.4902 6.06822 54.3075C6.0046 54.2974 5.93455 54.3035 5.85809 54.3259C5.79719 54.3469 5.74339 54.3595 5.69669 54.3636C5.6033 54.3717 5.55388 54.3447 5.54843 54.2824C5.20113 54.0775 4.94585 53.8489 4.78261 53.5966C4.61937 53.3442 4.43716 53.0543 4.23598 52.7268C4.17975 52.6219 4.10932 52.534 4.02468 52.463C3.95697 52.4062 3.90347 52.3324 3.86417 52.2418C3.78829 52.0915 3.73507 51.9315 3.70453 51.7617C3.67398 51.5918 3.64412 51.4297 3.61493 51.2754C3.59995 51.1042 3.56231 50.9428 3.50199 50.7912C3.45588 50.6227 3.37222 50.4732 3.251 50.3427C3.23038 49.7484 3.2409 49.1515 3.28254 48.5518C3.33975 47.9508 3.42031 47.3478 3.52422 46.7426C3.56333 46.4726 3.6109 46.2096 3.66694 45.9538C3.72298 45.6979 3.77056 45.435 3.80967 45.1649C3.81706 45.0701 3.83496 45.0058 3.86337 44.972C3.90598 44.9212 3.94217 44.8867 3.97194 44.8684L4.05921 44.7902C4.08762 44.7563 4.10688 44.7076 4.117 44.6439L4.23433 43.8337C4.31392 43.3092 4.43378 42.7968 4.59391 42.2966C4.75405 41.7963 4.98763 41.3289 5.29467 40.8942C5.29175 40.5023 5.34536 40.1291 5.45549 39.7744C5.57983 39.4027 5.72109 39.0453 5.87928 38.7021C6.0361 38.3433 6.19361 37.9923 6.3518 37.6491C6.50999 37.3059 6.62722 36.9427 6.70349 36.5596L6.67606 36.515C6.67061 36.4527 6.69902 36.4188 6.76128 36.4134C6.83775 36.391 6.89155 36.3785 6.92268 36.3758C6.91645 36.1253 6.95255 35.9104 7.03096 35.731C7.12358 35.5347 7.21756 35.354 7.3129 35.1888C7.42381 35.0222 7.51847 34.8493 7.59688 34.6699C7.6895 34.4736 7.73269 34.2502 7.72647 33.9998C8.00724 33.8027 8.2379 33.5708 8.41846 33.304C8.61323 33.0203 8.79243 32.738 8.95607 32.4571C9.13391 32.1592 9.32089 31.8762 9.51702 31.6081C9.71179 31.3244 9.95802 31.0911 10.2557 30.9082C10.3254 30.808 10.3371 30.6737 10.291 30.5052C10.7422 30.1049 11.2124 29.7423 11.7016 29.4171C12.1907 29.092 12.6447 28.7229 13.0634 28.3099L13.9039 28.2363C14.0926 28.063 14.3115 27.9654 14.5606 27.9436C14.7474 27.9273 14.9298 27.9505 15.1078 28.0134C15.3014 28.0748 15.4808 28.1533 15.646 28.2486C15.8254 28.327 16.0054 28.4132 16.1862 28.5072C16.3656 28.5856 16.5429 28.6407 16.7182 28.6724C16.9099 28.8909 17.0505 29.1531 17.14 29.4589C17.2437 29.7479 17.346 30.0212 17.447 30.279C17.3437 30.7116 17.2962 31.1549 17.3045 31.609C17.3115 32.0476 17.2952 32.4882 17.2555 32.9308C17.1574 33.0649 17.0763 33.2131 17.0121 33.3756C16.9465 33.5225 16.8738 33.6779 16.7941 33.8417C16.7285 33.9886 16.6551 34.1362 16.574 34.2844C16.4915 34.4171 16.3758 34.5292 16.227 34.6206C16.142 35.0829 15.9787 35.458 15.7372 35.7457C15.4958 36.0335 15.2662 36.3673 15.0485 36.7471C14.8286 36.9232 14.5864 37.0228 14.3217 37.0459C14.1038 37.065 13.9052 37.0353 13.7258 36.9569C13.545 36.8629 13.3778 36.7442 13.2241 36.6008C13.069 36.4419 12.9366 36.2731 12.8269 36.0945C12.7313 35.8989 12.6521 35.7098 12.589 35.5271C12.6694 35.1907 12.8161 34.8955 13.0292 34.6416C13.2578 34.3864 13.4864 34.1311 13.715 33.8758C13.9436 33.6205 14.1398 33.3524 14.3034 33.0715C14.467 32.7905 14.5325 32.4632 14.4998 32.0897C14.4971 32.0585 14.4866 32.0281 14.4683 31.9983C14.4656 31.9672 14.4629 31.9361 14.4601 31.9049C14.4547 31.8427 14.4733 31.7861 14.5159 31.7354C14.5585 31.6846 14.6018 31.6416 14.6458 31.6064L14.7756 31.4774C14.8183 31.4266 14.8368 31.3701 14.8314 31.3078C14.8259 31.2455 14.7894 31.186 14.7217 31.1292C14.1342 31.2276 13.6917 31.3683 13.394 31.5512C13.1119 31.7327 12.8934 31.9244 12.7385 32.1261C12.5836 32.3279 12.4443 32.5283 12.3206 32.7274C12.211 32.9095 12.0351 33.0503 11.7929 33.1499C11.7571 33.2786 11.6966 33.3936 11.6113 33.4952C11.5403 33.5798 11.4622 33.6729 11.377 33.7745C11.2904 33.8605 11.213 33.9614 11.1447 34.0772C11.0919 34.1916 11.0646 34.3273 11.0626 34.4843L10.6424 34.5211C10.5924 34.6666 10.5112 34.8149 10.399 34.9658C10.3009 35.0999 10.1951 35.2346 10.0814 35.3701C9.98336 35.5041 9.89444 35.6531 9.81466 35.8169C9.74909 35.9638 9.73936 36.1215 9.78547 36.29C9.6197 36.3672 9.49624 36.48 9.41511 36.6282C9.34953 36.7751 9.24301 36.9021 9.09552 37.0091L9.10778 37.1492C9.11867 37.2737 9.10554 37.3925 9.06837 37.5055C9.03121 37.6186 9.03364 37.736 9.07567 37.8578C8.90386 38.0454 8.78283 38.2755 8.71259 38.5483C8.65655 38.8042 8.59137 39.0452 8.51704 39.2713C8.30866 39.3993 8.17372 39.5601 8.11224 39.7537C8.05075 39.9473 8.0309 40.1686 8.05269 40.4176C7.83963 40.6716 7.65333 40.9623 7.49378 41.29C7.33423 41.6176 7.19093 41.9517 7.06387 42.2922C6.95238 42.6313 6.84935 42.9776 6.75478 43.3309C6.66022 43.6843 6.55583 44.0149 6.44161 44.3229L6.50085 45C6.30472 45.2681 6.17494 45.5775 6.11151 45.9281C6.06228 46.2618 5.96363 46.5684 5.81556 46.848C5.79941 47.022 5.79882 47.1946 5.8138 47.3658C5.84435 47.5356 5.86711 47.7062 5.88209 47.8774C5.89843 48.0642 5.89989 48.2601 5.88646 48.4652C5.87303 48.6703 5.8349 48.8618 5.77205 49.0399C5.85474 49.2679 5.92595 49.544 5.98568 49.8681C6.04404 50.1767 6.12644 50.491 6.23287 50.8111C6.33793 51.1156 6.47208 51.394 6.63532 51.6464C6.7972 51.8832 7.01453 52.0367 7.28732 52.107C7.37954 52.444 7.54988 52.6878 7.79835 52.8386C8.06374 53.0036 8.35685 53.127 8.6777 53.2087C8.99854 53.2904 9.3258 53.3559 9.65949 53.4052C9.99454 53.4699 10.2927 53.5615 10.554 53.6798C10.6433 53.6249 10.7502 53.592 10.8748 53.5812C10.9993 53.5703 11.1096 53.5763 11.2057 53.5993C11.3174 53.6208 11.4369 53.6418 11.5641 53.662C11.7793 53.6118 12.0426 53.5731 12.3539 53.5459C12.6808 53.5173 13.0063 53.4731 13.3304 53.4134C13.6559 53.3692 13.9561 53.3037 14.2308 53.217C14.5055 53.1302 14.721 52.9937 14.8773 52.8075C14.9862 52.798 15.059 52.823 15.0956 52.8825C15.1477 52.9407 15.2283 52.965 15.3372 52.9555C15.4462 52.9459 15.6069 52.9005 15.8194 52.8192C16.0332 52.7534 16.2534 52.6714 16.4801 52.5732C16.7082 52.4905 16.9199 52.4014 17.1155 52.3058C17.3266 52.2089 17.4761 52.1253 17.5641 52.0548C17.6121 52.0663 17.6595 52.07 17.7062 52.0659L17.8696 52.0516C18.0876 52.0326 18.2865 51.9759 18.4665 51.8818C18.6465 51.7876 18.8468 51.7466 19.0674 51.7586C19.7521 51.338 20.4487 50.9633 21.1571 50.6347C21.8825 50.3203 22.6176 50.0285 23.3626 49.7595C23.4438 49.6112 23.5439 49.5005 23.663 49.4273C23.7976 49.3528 23.9414 49.2932 24.0943 49.2484C24.2459 49.1881 24.3988 49.1434 24.5531 49.1142C24.7061 49.0694 24.8505 49.0176 24.9865 48.9586C25.0758 48.9038 25.1489 48.8425 25.2057 48.7748C25.2767 48.6901 25.3647 48.6197 25.4695 48.5635C25.5744 48.5072 25.6884 48.4659 25.8116 48.4394C25.9503 48.4116 26.0813 48.3845 26.2044 48.358C26.3418 48.3146 26.4629 48.2648 26.5678 48.2086C26.6882 48.151 26.7826 48.0643 26.8509 47.9486C27.077 48.0229 27.3038 48.105 27.5312 48.1949C27.7742 48.2834 27.9824 48.4221 28.1558 48.6108L28.1852 48.6788ZM41.9981 47.0939C41.9705 47.3159 41.885 47.5037 41.7416 47.6575C41.6124 47.7942 41.45 47.9104 41.2545 48.0059C41.0589 48.1015 40.8535 48.1743 40.6384 48.2245C40.4374 48.2578 40.2513 48.2819 40.08 48.2969C40.0022 48.3037 39.9244 48.3105 39.8466 48.3173C39.7829 48.3072 39.7122 48.3055 39.6344 48.3124C39.5565 48.3192 39.521 48.3615 39.5278 48.4393C39.5347 48.5171 39.5005 48.575 39.4254 48.613C39.3449 48.5886 39.265 48.5721 39.1858 48.5633C39.1066 48.5546 39.0281 48.5536 38.9503 48.5604C38.8413 48.57 38.733 48.5873 38.6254 48.6124C38.5334 48.6361 38.4407 48.6521 38.3473 48.6602C38.2228 48.6711 38.128 48.6637 38.063 48.638C38.0136 48.611 37.9642 48.5839 37.9148 48.5569C37.8796 48.5129 37.8366 48.4696 37.7858 48.427C37.7506 48.3831 37.6927 48.3489 37.6121 48.3246C37.4991 48.2874 37.405 48.2878 37.3299 48.3257C37.2704 48.3623 37.1651 48.3245 37.0141 48.2122C36.8137 48.0729 36.6339 47.9004 36.4748 47.6948C36.3298 47.4722 36.1842 47.2418 36.0379 47.0036C35.8916 46.7655 35.7375 46.528 35.5756 46.2912C35.4137 46.0544 35.2312 45.8508 35.0281 45.6804L34.8413 45.6967C34.5611 45.7212 34.3768 45.855 34.2882 46.098C34.2063 46.0581 34.1237 46.0104 34.0404 45.955C33.9558 45.884 33.8647 45.8292 33.7673 45.7907C33.4188 45.9309 33.0534 46.057 32.6711 46.1689C32.2887 46.2808 31.903 46.3537 31.5139 46.3878L31.187 46.4164C31.0936 46.4245 30.9911 46.4178 30.8794 46.3962C30.7292 46.4721 30.5959 46.5622 30.4795 46.6665C30.3618 46.7552 30.2251 46.8064 30.0695 46.82C29.9761 46.8282 29.8644 46.8066 29.7344 46.7552C29.641 46.7634 29.5977 46.8064 29.6045 46.8842C29.6269 46.9607 29.5836 47.0037 29.4747 47.0132L29.2645 47.0316C29.0466 47.0506 28.8294 47.0775 28.6128 47.1121C28.4118 47.1454 28.2024 47.1716 27.9845 47.1906C27.6887 47.2165 27.3818 47.2041 27.0637 47.1535C26.9899 47.2071 26.9064 47.2379 26.813 47.2461C26.7534 47.2826 26.7115 47.3412 26.6872 47.4218C26.6615 47.4867 26.6358 47.5517 26.6101 47.6167C26.5831 47.6661 26.5405 47.7169 26.4823 47.7691C26.4383 47.8043 26.369 47.8182 26.2742 47.8108C26.2594 48.0003 26.1945 48.155 26.0795 48.2748C25.9645 48.3947 25.9166 48.5636 25.9356 48.7815C25.7726 48.8899 25.6427 49.0189 25.546 49.1685C25.4493 49.3181 25.3533 49.4755 25.2579 49.6407C25.1626 49.8059 25.0588 49.964 24.9465 50.115C24.8498 50.2646 24.7193 50.3858 24.5549 50.4786C24.4852 50.5788 24.4748 50.7287 24.5236 50.9284C24.3647 51.0834 24.1654 51.2263 23.9259 51.3571C23.6864 51.4878 23.4577 51.5627 23.2398 51.5818C22.7884 51.6213 22.4559 51.4073 22.2425 50.9397C22.2289 50.7841 22.2301 50.6193 22.2463 50.4453C22.2455 50.2572 22.2617 50.0832 22.2947 49.9235C22.3265 49.7482 22.3836 49.5942 22.4661 49.4615C22.5472 49.3132 22.6707 49.2005 22.8364 49.1232C22.8242 48.9831 22.7693 48.8938 22.6718 48.8553C22.573 48.8012 22.5252 48.7034 22.5285 48.562C22.9311 48.3229 23.2737 48.0262 23.5565 47.6721C23.8392 47.318 24.0894 46.9511 24.3071 46.5713C24.539 46.1745 24.771 45.7778 25.0029 45.3811C25.2348 44.9844 25.5013 44.6238 25.8023 44.2995L25.7594 43.8092C26.1828 43.2702 26.4373 42.6833 26.5229 42.0484C26.6914 42.0023 26.7936 41.915 26.8294 41.7864C26.8807 41.6564 26.8989 41.5058 26.884 41.3346C26.9618 41.3278 27.0058 41.2925 27.0159 41.2289C27.0402 41.1484 27.1082 41.1189 27.2199 41.1405C27.3273 40.7547 27.453 40.3986 27.597 40.0723C27.7409 39.746 27.8849 39.4197 28.0289 39.0934C28.1715 38.7516 28.2901 38.404 28.3847 38.0506C28.4948 37.696 28.5626 37.3057 28.5881 36.88C28.8047 36.8454 28.9126 36.734 28.9118 36.5459C28.9252 36.3408 28.9407 36.1591 28.9582 36.0007C29.1726 35.7623 29.3214 35.4905 29.4045 35.1852C29.5031 34.8786 29.5855 34.5655 29.6517 34.2461C29.7165 33.911 29.7897 33.5831 29.8715 33.2622C29.9674 32.9245 30.1134 32.6215 30.3095 32.3534L30.3034 32.2834C30.2966 32.2055 30.2614 32.1616 30.1978 32.1514C30.1328 32.1257 30.0969 32.074 30.0901 31.9962C30.1043 31.9792 30.1107 31.963 30.1093 31.9474C30.2893 31.8533 30.4185 31.7165 30.4969 31.5371C30.574 31.3421 30.7025 31.1976 30.8825 31.1034C31.2325 31.3394 31.5348 31.4777 31.7892 31.5181C32.0424 31.543 32.3727 31.5534 32.7801 31.5491C33.0015 31.7493 33.1336 32.0044 33.1764 32.3143C33.2334 32.6073 33.3138 32.8983 33.4175 33.1873C33.5856 33.6745 33.7608 34.1532 33.9431 34.6235C34.1396 35.0768 34.2986 35.5491 34.42 36.0404C34.4925 36.3321 34.6027 36.6048 34.7503 36.8585C34.898 37.1122 35.0075 37.3771 35.0787 37.6532C35.1289 37.8684 35.1506 38.1175 35.144 38.4004C35.136 38.6677 35.1876 38.8985 35.2987 39.0926L35.4948 39.4519C35.5876 39.6163 35.6656 39.7899 35.7286 39.9726C35.8072 40.1539 35.878 40.3359 35.9411 40.5186C36.1064 40.9747 36.2597 41.4711 36.4007 42.0077C36.556 42.5274 36.7616 42.9956 37.0177 43.4124C37.1091 43.5612 37.2354 43.66 37.3965 43.7086C37.5732 43.7559 37.764 43.7863 37.9691 43.7997C38.1728 43.7976 38.3681 43.7883 38.5549 43.772C38.7558 43.7387 38.9264 43.7159 39.0665 43.7037L39.3 43.6833C39.3934 43.6751 39.4881 43.6825 39.5842 43.7054C39.6574 43.8245 39.698 43.9308 39.7062 44.0241C39.7226 44.2109 39.6732 44.3643 39.5582 44.4841C39.4433 44.604 39.3919 44.7339 39.4041 44.874C39.411 44.9518 39.4496 45.0347 39.52 45.1227C39.4564 45.1126 39.3623 45.113 39.2378 45.1238C38.8798 45.1552 38.535 45.2481 38.2034 45.4026C38.3511 45.6563 38.5343 45.8677 38.753 46.0368C38.9859 46.1889 39.2259 46.3326 39.473 46.4678C39.6178 46.3297 39.7758 46.2531 39.947 46.2381C40.1338 46.2218 40.3091 46.2535 40.4729 46.3333C40.6509 46.3961 40.8333 46.4194 41.0201 46.4031C41.1602 46.3908 41.2593 46.3586 41.3175 46.3065C41.4543 46.4357 41.5684 46.5747 41.6599 46.7235C41.7499 46.8568 41.8627 46.9803 41.9981 47.0939ZM34.3633 43.9975C34.309 43.7356 34.2382 43.5536 34.1508 43.4515C34.0776 43.3324 34.0102 43.1893 33.9485 43.0221C33.8672 42.8097 33.8001 42.5803 33.7472 42.334C33.7098 42.0863 33.6576 41.8477 33.5905 41.6183C33.4352 41.0986 33.2644 40.5803 33.078 40.0633C32.9072 39.545 32.6988 39.0456 32.4528 38.5652C32.5069 38.4664 32.5306 38.3781 32.5238 38.3002L32.5176 38.2302C32.3639 38.0868 32.2464 37.9089 32.1651 37.6964C32.0824 37.4683 32.0004 37.2481 31.9191 37.0356C31.8519 36.8062 31.7635 36.6022 31.6538 36.4236C31.5582 36.2281 31.4116 36.0762 31.214 35.968C31.1754 36.0655 31.1616 36.1765 31.1725 36.301C31.182 36.41 31.1987 36.5105 31.2224 36.6025C31.2617 36.6932 31.2861 36.793 31.2957 36.9019C31.1468 36.9934 31.041 37.1281 30.9781 37.3062C30.9295 37.4673 30.8314 37.6013 30.6839 37.7083C30.603 38.2173 30.4655 38.7077 30.2715 39.1796C30.0762 39.6358 29.8653 40.0934 29.6388 40.5524C29.4278 41.0101 29.2254 41.4748 29.0314 41.9466C28.8361 42.4029 28.6894 42.8784 28.5916 43.3732C28.4015 43.531 28.277 43.7222 28.2183 43.947C28.1751 44.1703 28.163 44.391 28.1821 44.6089C28.329 44.6745 28.4887 44.7075 28.6613 44.7081C28.8481 44.6918 29.0271 44.6761 29.1983 44.6611C29.3695 44.6462 29.5343 44.6474 29.6927 44.6649C29.8511 44.6825 29.998 44.748 30.1334 44.8617C30.3303 44.7817 30.5448 44.7237 30.7769 44.6877C31.0233 44.6348 31.2195 44.5471 31.3656 44.4245C31.6865 44.5062 32.0259 44.5314 32.3839 44.5001C32.5707 44.4837 32.7483 44.4525 32.9168 44.4064C33.1009 44.3589 33.2765 44.3044 33.4436 44.2427C33.5864 44.2615 33.7002 44.3065 33.7848 44.3775C33.8681 44.433 33.9869 44.4461 34.1411 44.4169C34.2135 44.3478 34.2548 44.2815 34.2649 44.2179C34.2737 44.1387 34.3064 44.0652 34.3633 43.9975ZM71.0005 42.1803C70.9898 42.4165 70.9199 42.603 70.7907 42.7398C70.6771 42.8752 70.5394 43.0049 70.3777 43.1288C70.2985 43.12 70.22 43.1191 70.1422 43.1259C70.0786 43.1158 70.0078 43.1141 69.93 43.1209C69.4461 43.1476 68.9924 43.25 68.5688 43.4282C68.1608 43.6051 67.7338 43.7444 67.2878 43.8461C67.1349 43.8909 66.9884 43.9194 66.8483 43.9316C66.7224 43.927 66.5908 43.9463 66.4534 43.9897C65.9621 44.1111 65.4384 44.2197 64.8821 44.3154C64.3258 44.4111 63.7709 44.5224 63.2174 44.6493C62.6624 44.7606 62.1174 44.8945 61.5821 45.0511C61.061 45.1908 60.5752 45.3745 60.1246 45.6021C60.0752 45.5751 60.0257 45.548 59.9763 45.521C59.9255 45.4784 59.869 45.4598 59.8067 45.4653C59.6511 45.4789 59.5053 45.5152 59.3693 45.5741C59.2333 45.6331 59.0945 45.6609 58.9531 45.6576C58.8056 45.7646 58.6405 45.8496 58.4578 45.9126C58.2893 45.9588 58.113 46.0056 57.929 46.053C57.7591 46.0836 57.5906 46.1297 57.4235 46.1914C57.2563 46.253 57.1004 46.3529 56.9556 46.4911C56.8256 46.4397 56.6673 46.4222 56.4805 46.4385C56.3079 46.438 56.1857 46.3859 56.1139 46.2824C55.7709 46.4849 55.3991 46.6273 54.9984 46.7094C54.6134 46.7901 54.2178 46.8404 53.8118 46.8602C53.5458 46.8678 53.2389 46.8555 52.891 46.8232C52.5431 46.7909 52.1931 46.7352 51.8412 46.6562C51.4878 46.5617 51.1565 46.4495 50.8471 46.3197C50.5364 46.1744 50.293 45.9917 50.1169 45.7719C49.9943 45.6258 49.9015 45.4613 49.8385 45.2786C49.7754 45.0959 49.6542 44.9654 49.4748 44.887C49.4902 44.5249 49.5141 44.1699 49.5464 43.822C49.5787 43.4741 49.6103 43.1184 49.6412 42.755C49.9294 42.4631 50.2006 42.1571 50.4549 41.8368C50.7092 41.5166 50.9466 41.1821 51.1671 40.8334C51.4505 40.6675 51.708 40.4724 51.9393 40.2483C52.1862 40.0228 52.4253 39.798 52.6567 39.5738C52.9022 39.3327 53.1407 39.1001 53.372 38.876C53.6189 38.6505 53.8835 38.447 54.1656 38.2655C54.2028 38.1524 54.2575 38.0614 54.3299 37.9923C54.4165 37.9063 54.5038 37.8281 54.5917 37.7576C54.6783 37.6716 54.7571 37.5863 54.8281 37.5017C54.8978 37.4015 54.9427 37.2878 54.9629 37.1605C55.4791 36.786 55.9178 36.3319 56.2789 35.7984C56.6401 35.2649 56.8556 34.6814 56.9257 34.0479C56.642 33.8531 56.3262 33.7396 55.9783 33.7073C55.6447 33.6581 55.2974 33.6336 54.9367 33.6337C54.624 33.6454 54.2972 33.674 53.9561 33.7195C53.6306 33.7637 53.2952 33.7852 52.9501 33.784C52.6172 33.9229 52.2653 34.0243 51.8944 34.0881C51.5391 34.1506 51.1839 34.213 50.8286 34.2755C50.4719 34.3224 50.118 34.4004 49.7668 34.5095C49.4298 34.6018 49.1061 34.7556 48.7955 34.9709C48.7333 34.9764 48.6703 34.9741 48.6067 34.9639C48.5586 34.9525 48.5035 34.9494 48.4412 34.9549C47.9417 34.9829 47.4836 35.1249 47.0669 35.381C46.6487 35.6215 46.2384 35.8613 45.8358 36.1004C45.8101 36.1654 45.7987 36.2134 45.8014 36.2446C45.8095 36.338 45.8333 36.43 45.8726 36.5207C45.9261 36.5944 45.9569 36.678 45.9651 36.7714C45.9509 36.7883 45.9445 36.8045 45.9458 36.8201C45.9472 36.8357 45.9408 36.8519 45.9266 36.8688C45.9178 36.948 45.9006 37.0201 45.8749 37.0851C45.8648 37.1487 45.8476 37.2208 45.8233 37.3014C45.6956 37.8144 45.6451 38.3129 45.6718 38.7968C45.6916 39.2029 45.7263 39.5998 45.7759 39.9876C45.8256 40.3754 45.8603 40.7723 45.8801 41.1784C45.8926 41.6792 45.8556 42.1529 45.7692 42.5997C45.8797 42.9664 45.9845 43.3572 46.0835 43.7721C46.1812 44.1713 46.2944 44.5692 46.4232 44.9657C46.552 45.3623 46.6957 45.7497 46.8543 46.1279C47.027 46.4892 47.2374 46.8316 47.4853 47.1549C47.4724 47.1874 47.4822 47.2101 47.5147 47.2229C47.5472 47.2358 47.579 47.2409 47.6102 47.2381L47.7969 47.2218C47.8748 47.215 47.9086 47.2434 47.8985 47.307C47.9337 47.351 47.9612 47.3956 47.9808 47.441C47.9991 47.4707 48.033 47.4991 48.0824 47.5262C48.1176 47.5702 48.123 47.6324 48.0987 47.713C48.1104 48.0257 48.0578 48.3204 47.9408 48.5973C47.8239 48.8742 47.7635 49.1696 47.7596 49.4837C47.5769 49.5467 47.4077 49.585 47.252 49.5986C46.9861 49.6062 46.7458 49.5488 46.5312 49.4264C46.3179 49.3196 46.1175 49.1803 45.9299 49.0085C45.7424 48.8367 45.5626 48.6642 45.3906 48.491C45.2172 48.3023 45.031 48.1461 44.832 48.0223C44.6849 47.596 44.5337 47.123 44.3785 46.6033C44.2388 46.0823 44.0358 45.6451 43.7697 45.292C43.8197 45.1465 43.8358 44.9725 43.8181 44.7702C43.8065 44.4575 43.7488 44.1567 43.6451 43.8678C43.5556 43.5619 43.5128 43.2519 43.5167 42.9379C43.5017 42.7667 43.5023 42.5941 43.5184 42.4202C43.5501 42.2449 43.5663 42.0709 43.5669 41.8983C43.5593 41.6324 43.5057 41.3782 43.4061 41.136C43.322 40.8924 43.2762 40.6376 43.2686 40.3716C43.2733 40.2458 43.2864 40.127 43.308 40.0153C43.3438 39.8867 43.3966 39.7723 43.4662 39.6721C43.372 39.4921 43.333 39.3151 43.3492 39.1412C43.3416 38.8752 43.3509 38.6234 43.3772 38.3859C43.4035 38.1483 43.4142 37.9121 43.4093 37.6772C43.3984 37.5527 43.3804 37.4367 43.3553 37.3291C43.3289 37.2059 43.2953 37.0912 43.2547 36.985L43.0384 36.9333C42.945 36.9415 42.8536 36.973 42.7643 37.0279C42.6906 37.0814 42.6253 37.142 42.5685 37.2097C42.5117 37.2774 42.462 37.3366 42.4194 37.3874C42.3754 37.4226 42.3301 37.4423 42.2834 37.4464C42.2522 37.4491 42.2133 37.4525 42.1666 37.4566C42.1341 37.4437 42.1023 37.4387 42.0712 37.4414C42.0401 37.4441 41.9805 37.4807 41.8926 37.5511C41.8202 37.6202 41.7251 37.6991 41.6074 37.7878C41.5039 37.8596 41.4011 37.9392 41.2989 38.0266C41.1954 38.0984 41.1132 38.1448 41.0523 38.1658C40.8784 38.1496 40.7335 38.1074 40.6177 38.0391C40.5162 37.9539 40.4153 37.8765 40.3151 37.8068C40.2291 37.7202 40.1367 37.6499 40.0378 37.5958C39.9376 37.5261 39.8182 37.5052 39.6794 37.533C39.6246 37.4437 39.5924 37.3446 39.5828 37.2356C39.5577 37.128 39.5482 37.0191 39.5542 36.9088L39.5216 36.5352C39.6128 36.3233 39.7464 36.1469 39.9223 36.0061C40.0812 35.851 40.2578 35.7179 40.452 35.6068L41.0345 35.2735C41.2287 35.1624 41.4053 35.0293 41.5643 34.8743L41.7744 34.8559C42.0559 34.8469 42.2924 34.7713 42.4839 34.6291C42.6909 34.4855 42.881 34.3277 43.0542 34.1557C43.226 33.9682 43.3978 33.7806 43.5696 33.593C43.757 33.4041 43.9633 33.2528 44.1886 33.1389C44.3667 33.2018 44.5518 33.2562 44.744 33.3021C44.9349 33.3324 45.1322 33.3465 45.3359 33.3444C45.5383 33.3267 45.7457 33.2772 45.9581 33.1959C46.1706 33.1145 46.3316 32.9828 46.4412 32.8007C46.5217 32.825 46.586 32.8429 46.6341 32.8544C46.6963 32.849 46.7664 32.8428 46.8442 32.836C47.0791 32.8312 47.3098 32.7796 47.5365 32.6813C47.7618 32.5675 47.978 32.4388 48.185 32.2952C48.4977 32.2836 48.7998 32.2414 49.0915 32.1689C49.3974 32.0794 49.6954 31.9905 49.9857 31.9024C50.2916 31.8129 50.5904 31.7319 50.882 31.6593C51.1879 31.5698 51.4971 31.5192 51.8098 31.5076C52.3248 31.4782 52.8266 31.3872 53.3152 31.2347C53.8038 31.0822 54.3062 30.999 54.8226 30.9852C55.182 30.9694 55.535 30.9699 55.8815 30.9866C56.2422 30.9865 56.6009 30.9629 56.9575 30.916C57.1681 30.9917 57.3546 31.0617 57.517 31.1259C57.6937 31.1732 57.9052 31.1703 58.1515 31.1174C58.6864 31.4941 59.1807 31.9449 59.6344 32.4699L59.6691 32.8668C59.6849 33.2262 59.6533 33.5818 59.5743 33.9338C59.4953 34.2858 59.3929 34.6398 59.2672 34.9959C59.1557 35.335 59.0287 35.6755 58.8861 36.0174C58.7421 36.3436 58.6059 36.6693 58.4774 36.9942C57.546 38.0011 56.6139 39.0002 55.6812 39.9915C54.7484 40.9828 53.7818 41.9457 52.7813 42.8802C52.7638 43.0386 52.7293 43.1828 52.678 43.3128C52.6422 43.4414 52.6226 43.5764 52.6193 43.7178C52.6261 43.7957 52.6393 43.8573 52.659 43.9026C52.7707 43.9242 52.8695 43.9783 52.9555 44.0649C53.0557 44.1345 53.0964 44.2408 53.0775 44.3836L53.2876 44.3652C53.3655 44.3584 53.4071 44.3861 53.4125 44.4484L53.7882 44.439C54.3824 44.4184 54.9725 44.3511 55.5585 44.2371C56.1446 44.1231 56.7299 44.0013 57.3146 43.8717C57.9149 43.7408 58.508 43.6183 59.0941 43.5043C59.6787 43.3747 60.2661 43.2763 60.8563 43.2089C60.9923 43.15 61.1368 43.0981 61.2897 43.0534C61.4426 43.0086 61.5773 42.9341 61.6936 42.8298L61.7637 42.8237C61.8726 42.8142 61.9532 42.8385 62.0053 42.8967C62.073 42.9535 62.162 42.9849 62.2724 42.9909C62.3502 42.9841 62.4266 42.9618 62.5018 42.9238C62.5924 42.8845 62.6838 42.853 62.7758 42.8293C62.9883 42.7479 63.2106 42.6893 63.4427 42.6533C63.6904 42.6159 63.9296 42.5715 64.1604 42.5199C65.0564 42.3631 65.9473 42.2381 66.8332 42.1449C67.7177 42.0362 68.5947 41.8418 69.4642 41.5618C69.5516 41.664 69.6674 41.7323 69.8115 41.7667C69.9543 41.7856 70.1056 41.8116 70.2654 41.8446C70.4237 41.8621 70.5672 41.8888 70.6958 41.9246C70.84 41.959 70.9416 42.0443 71.0005 42.1803ZM76.9249 39.7092C76.9399 39.8804 76.8892 40.0182 76.7728 40.1225C76.6551 40.2112 76.6024 40.3256 76.6147 40.4657C76.6201 40.528 76.658 40.6031 76.7285 40.691C76.5106 40.7101 76.3688 40.7931 76.3032 40.94C76.2377 41.0869 76.1735 41.2493 76.1106 41.4273L75.8071 41.4539C75.7293 41.4607 75.6684 41.4817 75.6244 41.5169C75.5804 41.5522 75.5378 41.6029 75.4965 41.6693C75.4695 41.7187 75.4296 41.8006 75.3769 41.915C75.0866 42.0032 74.8075 42.1295 74.5396 42.2941C74.2858 42.4418 74.0335 42.6051 73.7825 42.7839C73.5457 42.9457 73.3018 43.1161 73.0508 43.2949C72.7984 43.4581 72.5363 43.5987 72.2642 43.7166C72.1446 43.9623 71.9586 44.1668 71.7062 44.3301L71.6362 44.3362C71.5597 44.3586 71.489 44.3569 71.424 44.3312C71.3732 44.2886 71.3089 44.2707 71.2311 44.2775C71.1844 44.2816 71.1539 44.2921 71.1397 44.3091C70.7 44.6612 70.1922 44.8625 69.6162 44.9129C69.4606 44.9265 69.312 44.9317 69.1706 44.9283C69.0278 44.9095 68.8785 44.9068 68.7229 44.9205C68.6762 44.9245 68.6464 44.9428 68.6336 44.9753L68.595 45.0728C68.5822 45.1053 68.5616 45.1385 68.5332 45.1723C68.5203 45.2048 68.4672 45.2252 68.3738 45.2333C68.2026 45.2483 68.0293 45.2399 67.854 45.2082C67.6787 45.1765 67.499 45.1844 67.315 45.2319C66.9393 45.0608 66.6421 44.8908 66.4234 44.7217C66.2047 44.5526 65.9934 44.2888 65.7895 43.9302C65.6967 43.7658 65.5734 43.6119 65.4197 43.4685C65.2816 43.3237 65.1732 43.1606 65.0946 42.9793C65.0736 42.9184 65.0407 42.8115 64.9959 42.6586C64.9498 42.4901 64.903 42.3138 64.8556 42.1297C64.8081 41.9457 64.7613 41.7694 64.7152 41.6009C64.6846 41.431 64.6666 41.315 64.6612 41.2527C64.6449 41.0659 64.637 40.8862 64.6376 40.7136C64.6524 40.5241 64.6671 40.3346 64.6819 40.1451C64.7236 39.5454 64.7341 38.9485 64.7135 38.3543C64.7071 37.7432 64.7883 37.1479 64.9572 36.5684C64.9111 36.3999 64.8812 36.2379 64.8676 36.0822L64.8227 35.5686C64.7968 35.2728 64.7361 35.0272 64.6405 34.8316C64.7474 34.6184 64.7899 34.3872 64.7681 34.1382C64.7436 33.858 64.6125 33.7048 64.375 33.6785L64.3688 33.6085C64.3402 33.2816 64.2088 33.0343 63.9746 32.8666C63.9269 32.3218 64.0238 31.9055 64.2653 31.6177C64.5209 31.313 64.8656 31.0398 65.2993 30.7979C65.3534 30.6991 65.3699 30.6192 65.3489 30.5583C65.4606 30.5799 65.5645 30.6022 65.6606 30.6251C65.7567 30.6481 65.8515 30.6555 65.9449 30.6473C66.1005 30.6337 66.2386 30.5981 66.359 30.5405C66.4221 30.7232 66.549 30.8297 66.7399 30.8601C66.945 30.8735 67.1125 30.9059 67.2425 30.9573L67.269 31.2608C67.3112 31.7434 67.4682 32.1923 67.7398 32.6077C67.6884 32.7377 67.6611 32.8734 67.6577 33.0149C67.6544 33.1563 67.6582 33.2893 67.6691 33.4138C67.6855 33.6006 67.7096 33.7867 67.7415 33.9721C67.7734 34.1576 67.7969 34.3359 67.8118 34.5071C67.8282 34.6939 67.8212 34.8827 67.7908 35.0736C67.776 35.2631 67.7047 35.434 67.5769 35.5864C67.579 35.7901 67.5839 36.0249 67.5915 36.2909C67.6133 36.54 67.6202 36.7982 67.6122 37.0655C67.6198 37.3315 67.6033 37.5917 67.5628 37.8462C67.5224 38.1007 67.4467 38.3112 67.3358 38.4778C67.3406 38.7126 67.3462 38.9553 67.3524 39.2057C67.3728 39.4391 67.3926 39.6648 67.4116 39.8828C67.4416 40.2252 67.4926 40.6285 67.5646 41.0928C67.6521 41.5557 67.7951 41.9353 67.9936 42.2316C68.0823 42.3493 68.2383 42.4298 68.4617 42.473C68.7006 42.5148 68.8901 42.5296 69.0302 42.5173C69.2015 42.5024 69.3706 42.464 69.5378 42.4024C69.7191 42.3238 69.8426 42.211 69.9081 42.0641C70.0029 42.0715 70.0692 42.1127 70.1072 42.1879C70.1451 42.263 70.205 42.3205 70.287 42.3603C71.1415 41.9091 71.9974 41.4735 72.8547 41.0534C73.712 40.6334 74.5489 40.1602 75.3655 39.6339C75.4955 39.6853 75.6305 39.7048 75.7706 39.6926C75.9263 39.6789 76.0806 39.6498 76.2335 39.605C76.3864 39.5603 76.5407 39.5311 76.6964 39.5175L76.8598 39.5032C76.8991 39.5938 76.9208 39.6625 76.9249 39.7092ZM90.8832 30.9123C90.8021 31.0606 90.7612 31.221 90.7606 31.3936C90.76 31.5662 90.7659 31.7225 90.7781 31.8626C90.7945 32.0494 90.8108 32.2362 90.8271 32.423C90.8577 32.5928 90.8804 32.7634 90.8954 32.9346L90.9261 33.2848C90.9045 33.3965 90.8673 33.5095 90.8146 33.6239C90.7618 33.7383 90.7247 33.8514 90.7031 33.9631C90.5356 34.5581 90.477 35.1435 90.5274 35.7194L90.5315 35.7661C90.47 35.9597 90.4071 36.1378 90.3429 36.3002C90.2943 36.4613 90.2456 36.6224 90.197 36.7835C90.147 36.9291 90.1139 37.0888 90.0977 37.2628C90.0802 37.4211 90.0888 37.6086 90.1234 37.8252C89.9532 38.389 89.7088 38.9123 89.3903 39.395C89.0704 39.8622 88.7597 40.3442 88.4581 40.8412C88.1421 40.9943 87.8529 41.1843 87.5904 41.4111C87.3435 41.6366 87.1064 41.8848 86.8791 42.1556C86.4102 42.3535 85.9511 42.5741 85.5019 42.8173C85.0526 43.0605 84.6562 43.3696 84.3125 43.7448C84.0195 43.8018 83.7279 43.8743 83.4376 43.9625C83.1473 44.0506 82.8675 44.1692 82.5982 44.3182L82.318 44.3427C82.1779 44.355 82.074 44.3327 82.0063 44.2759C81.8135 44.4026 81.6102 44.4988 81.3963 44.5645C81.1811 44.6147 80.9646 44.6494 80.7467 44.6684C80.4665 44.6929 80.1849 44.7019 79.902 44.6953C79.6333 44.6717 79.3569 44.6489 79.0726 44.6267C78.8979 44.4224 78.6657 44.278 78.3759 44.1936C78.0849 44.0936 77.8256 43.9986 77.5982 43.9087C77.0923 43.3256 76.713 42.7549 76.4602 42.1967C76.2061 41.6229 75.9381 40.9797 75.6562 40.2672C75.6683 40.0466 75.7044 39.8317 75.7645 39.6225C75.8233 39.3978 75.834 39.1616 75.7966 38.9139C76.006 38.08 76.3078 37.3164 76.702 36.6232C77.1104 35.913 77.5838 35.2285 78.1221 34.5697C78.114 34.4763 78.1227 34.3971 78.1484 34.3321C78.1897 34.2658 78.1893 34.1717 78.1472 34.0499C78.1642 34.0641 78.196 34.0692 78.2427 34.0651C78.3672 34.0542 78.4423 34.0162 78.468 33.9513C78.4923 33.8707 78.4926 33.7844 78.4689 33.6924C78.9979 33.2853 79.4677 32.8286 79.8783 32.3221C80.3044 31.8143 80.7995 31.3789 81.3638 31.0158C81.3982 30.8716 81.4659 30.7481 81.5666 30.6452C81.6674 30.5422 81.7435 30.4258 81.7949 30.2958C82.2807 30.1122 82.7137 29.8625 83.0939 29.5469C83.4741 29.2314 83.8804 28.9449 84.3127 28.6874C84.5495 28.5256 84.7748 28.4117 84.9887 28.346C85.2167 28.2633 85.4603 28.1792 85.7195 28.0938C85.8101 28.0545 85.8937 28.0237 85.9702 28.0013C86.0466 27.9789 86.1316 27.9637 86.225 27.9555C86.5051 27.931 86.7823 27.9616 87.0564 28.0474C87.3292 28.1177 87.6057 28.1406 87.8859 28.116C87.9637 28.1092 88.026 28.1038 88.0727 28.0997C88.1336 28.0787 88.1945 28.0577 88.2554 28.0367C88.5486 28.3404 88.905 28.5602 89.3247 28.696C89.4385 28.9213 89.5652 29.1141 89.7047 29.2744C89.8598 29.4334 90.0148 29.5924 90.1699 29.7513C90.3236 29.8947 90.4638 30.0628 90.5905 30.2556C90.7313 30.4315 90.8289 30.6504 90.8832 30.9123ZM88.6546 32.3307C88.6478 32.2529 88.6339 32.1835 88.6129 32.1226C88.4531 32.0895 88.2998 32.0402 88.1529 31.9746C88.006 31.9091 87.8469 31.8838 87.6757 31.8988C87.5668 31.9083 87.4598 31.9412 87.355 31.9974C87.3299 31.8898 87.2764 31.8161 87.1944 31.7762C87.1281 31.7349 87.0469 31.7028 86.9507 31.6799C86.8688 31.64 86.7805 31.6163 86.6857 31.6089C86.6052 31.5846 86.5311 31.544 86.4634 31.4872C86.4058 31.3668 86.3404 31.247 86.2672 31.1279C86.2083 30.9919 86.106 30.8989 85.9605 30.8489C85.8327 31.0013 85.6794 31.1323 85.5008 31.2421C85.3208 31.3362 85.1331 31.4311 84.9375 31.5266C84.7576 31.6208 84.579 31.7305 84.4017 31.8558C84.24 31.9797 84.1037 32.125 83.9928 32.2915L83.5725 32.3283C83.4941 32.5077 83.3734 32.6516 83.2103 32.76C83.0459 32.8528 82.9083 32.9824 82.7974 33.149C82.5592 33.2953 82.3393 33.4714 82.1378 33.6772C81.9504 33.8662 81.7644 34.0707 81.5797 34.2907C81.3937 34.4952 81.2084 34.7075 81.0237 34.9275C80.8547 35.1462 80.6687 35.3507 80.4657 35.541C80.3015 35.9945 80.1092 36.3956 79.8887 36.7443C79.6825 37.076 79.4847 37.4149 79.2954 37.7608C79.1216 38.1054 78.9739 38.4791 78.8523 38.8818C78.7449 39.2677 78.7157 39.7408 78.7647 40.3011L78.7852 40.5346C78.792 40.6124 78.8066 40.6896 78.8289 40.766C79.0504 40.9663 79.2342 41.1854 79.3805 41.4236C79.5424 41.6604 79.7838 41.8196 80.1046 41.9014C80.4268 41.9987 80.7585 42.0245 81.0996 41.979C81.4562 41.9321 81.802 41.9411 82.1371 42.0059C82.872 41.8004 83.5682 41.5121 84.2259 41.1408C84.8977 40.7527 85.5252 40.3057 86.1084 39.7998C86.195 39.7138 86.2971 39.6264 86.4148 39.5377C86.5312 39.4334 86.6242 39.3312 86.6938 39.231C86.7649 39.1463 86.8196 39.0553 86.8581 38.9578C86.9122 38.859 86.967 38.7679 87.0225 38.6846C87.1293 38.4714 87.2517 38.2568 87.3896 38.0408C87.5276 37.8248 87.6747 37.6238 87.8309 37.4376C87.8788 37.0883 87.9514 36.7526 88.0486 36.4304C88.1446 36.0926 88.2412 35.7626 88.3385 35.4404C88.4358 35.1182 88.509 34.7903 88.5582 34.4566C88.623 34.1215 88.6398 33.775 88.6085 33.417C88.6016 33.3392 88.5864 33.2542 88.5626 33.1622C88.5545 33.0688 88.5392 32.9839 88.5168 32.9074C88.6264 32.7253 88.6723 32.5331 88.6546 32.3307ZM105.771 40.2676C105.794 40.5322 105.744 40.7718 105.622 40.9864C105.514 41.1841 105.488 41.4216 105.543 41.6991C105.336 41.8427 105.171 42.0218 105.049 42.2364C104.927 42.451 104.813 42.6727 104.707 42.9015C103.739 43.6607 102.68 44.2944 101.533 44.8026C100.402 45.325 99.2142 45.6407 97.9689 45.7497C97.8911 45.7565 97.8177 45.7237 97.7486 45.6513C97.6809 45.5945 97.6125 45.5299 97.5434 45.4575C97.4744 45.3851 97.3975 45.3134 97.3129 45.2424C97.2452 45.1856 97.1646 45.1613 97.0712 45.1694C96.9622 45.179 96.8787 45.2098 96.8205 45.262C96.8178 45.2308 96.8151 45.1997 96.8123 45.1686C96.8265 45.1516 96.8323 45.1276 96.8296 45.0965C96.8132 44.9097 96.7728 44.7172 96.7084 44.5189C96.6454 44.3362 96.6057 44.1515 96.5894 43.9647C96.5703 43.7467 96.5936 43.5643 96.6591 43.4174L96.9393 43.3929C97.095 43.3793 97.2422 43.3586 97.3809 43.3308C97.5338 43.286 97.6959 43.2562 97.8671 43.2412C98.0383 43.2262 98.1981 43.2593 98.3463 43.3404C99.1997 43.2344 99.9955 43.0079 100.734 42.661C101.486 42.2972 102.247 41.9404 103.016 41.5908C103.126 41.4087 103.18 41.2158 103.177 41.0121C103.189 40.7914 103.234 40.5836 103.311 40.3887C102.876 40.0816 102.441 39.8531 102.004 39.7031C101.582 39.5361 101.101 39.5076 100.562 39.6175C100.217 39.4438 99.8565 39.3577 99.4802 39.3592C99.1195 39.3594 98.7496 39.3447 98.3706 39.3152C98.2758 39.3078 98.1733 39.3011 98.063 39.295C97.9669 39.2721 97.8643 39.2653 97.7554 39.2749C97.6775 39.2817 97.6018 39.3118 97.528 39.3654C97.4685 39.4019 97.4577 39.4578 97.4956 39.5329C97.4069 39.4152 97.2918 39.3546 97.1504 39.3513C97.0231 39.3311 96.9087 39.2784 96.8071 39.1932C96.3063 39.2056 95.863 39.1581 95.4772 39.0507C95.09 38.9277 94.6625 38.7926 94.1948 38.6453C94.0662 38.6095 93.9389 38.5893 93.813 38.5846C93.7013 38.563 93.5883 38.5258 93.4739 38.4731C93.1815 38.3575 92.9394 38.1905 92.7478 37.972C92.5561 37.7535 92.4013 37.5082 92.2834 37.2362C92.1486 36.95 92.0442 36.6533 91.9703 36.3461C91.8964 36.0388 91.8245 35.755 91.7546 35.4944C91.8729 35.2331 91.9828 34.9647 92.0841 34.6892C92.1699 34.4151 92.2388 34.1267 92.2908 33.8242C92.3801 33.7693 92.4701 33.7222 92.5607 33.6829C92.6514 33.6436 92.7492 33.5958 92.8541 33.5396C92.8358 33.5098 92.8246 33.4716 92.8205 33.4249C92.8137 33.3471 92.8302 33.2672 92.8701 33.1853C92.9256 33.102 92.9343 33.0228 92.8964 32.9477C93.2116 32.6065 93.5105 32.2588 93.7933 31.9047C94.0902 31.5336 94.3377 31.1355 94.5357 30.7104C94.7624 30.6121 94.939 30.4791 95.0655 30.3111C95.1919 30.1432 95.3184 29.9753 95.4449 29.8074C95.57 29.6239 95.7127 29.4624 95.873 29.3229C96.032 29.1679 96.2424 29.0632 96.5043 29.0089C96.557 28.8945 96.6352 28.8014 96.7387 28.7296C96.8408 28.6423 96.9437 28.5627 97.0472 28.4909C97.1507 28.4191 97.2457 28.3402 97.3323 28.2542C97.4189 28.1682 97.4794 28.0531 97.5138 27.9089C97.7629 27.8871 97.9845 27.8207 98.1787 27.7096C98.3884 27.5971 98.5897 27.4776 98.7825 27.3509C98.9754 27.2243 99.1689 27.1054 99.363 26.9943C99.5728 26.8818 99.8022 26.8147 100.051 26.7929C100.114 26.7875 100.176 26.7898 100.24 26.7999C100.302 26.7945 100.373 26.7961 100.452 26.8049C100.571 26.9043 100.652 27.0305 100.697 27.1834C100.756 27.3194 100.801 27.4724 100.831 27.6422C100.862 27.8121 100.885 27.9826 100.9 28.1538C100.93 28.3237 100.975 28.4766 101.034 28.6126C100.917 28.8895 100.784 29.1677 100.636 29.4473C100.504 29.7256 100.311 29.9463 100.059 30.1095L100.012 30.1136C99.9048 30.1387 99.8016 30.1242 99.7027 30.0701C99.6039 30.016 99.4922 29.9944 99.3677 30.0053C99.2899 30.0121 99.2296 30.0409 99.187 30.0917L99.0805 30.2187C99.0521 30.2525 99.0081 30.2877 98.9486 30.3243C98.9046 30.3595 98.8346 30.3657 98.7384 30.3427C98.5273 30.4396 98.4533 30.5794 98.5163 30.7621C98.2233 30.8191 97.9824 30.9343 97.7937 31.1076C97.6036 31.2654 97.4311 31.4452 97.2762 31.647C97.12 31.8332 96.9631 32.0116 96.8055 32.1822C96.6465 32.3373 96.451 32.4328 96.2188 32.4688C95.9951 32.959 95.7043 33.4 95.3465 33.7921C95.0042 34.1828 94.7283 34.6147 94.5188 35.0879C94.5764 35.2084 94.6191 35.3379 94.6469 35.4767C94.6747 35.6154 94.711 35.7612 94.7557 35.9142C94.9122 36.0887 95.0899 36.2378 95.289 36.3616C95.5036 36.484 95.7104 36.607 95.9094 36.7308L95.9795 36.7246C96.2908 36.6974 96.5842 36.7345 96.8597 36.8358C97.1339 36.9217 97.4188 36.9516 97.7145 36.9258C97.8702 36.9121 97.9998 36.8694 98.1033 36.7976C98.5162 36.8556 98.9199 36.8987 99.3145 36.9269C99.7246 36.9538 100.133 36.9651 100.541 36.9608C100.746 36.9742 100.95 36.9721 101.152 36.9544C101.37 36.9353 101.574 36.941 101.765 36.9713C101.94 37.003 102.117 37.0503 102.295 37.1132C102.472 37.1605 102.649 37.2155 102.827 37.2784C103.199 37.4027 103.548 37.5446 103.876 37.7042C104.219 37.8624 104.527 38.0629 104.799 38.3057C105.07 38.533 105.291 38.8117 105.461 39.1419C105.629 39.4565 105.733 39.8317 105.771 40.2676ZM145.174 40.7493C145.17 41.0633 145.082 41.3141 144.91 41.5017C144.74 41.7048 144.507 41.8193 144.211 41.8452C144.055 41.8588 143.905 41.8484 143.761 41.8139C143.486 42.0733 143.151 42.2829 142.757 42.4429C142.364 42.6028 141.993 42.7607 141.646 42.9165C141.209 42.9391 140.777 42.9376 140.352 42.9121C139.926 42.8867 139.489 42.9092 139.04 42.9798C138.875 42.8845 138.705 42.8288 138.531 42.8126C138.357 42.7965 138.176 42.7888 137.988 42.7895C137.817 42.8045 137.644 42.7962 137.468 42.7644C137.309 42.7314 137.144 42.636 136.973 42.4784L135.805 42.5806C135.697 42.5901 135.528 42.5499 135.301 42.46C135.09 42.3843 134.848 42.3036 134.574 42.2178C134.315 42.1306 134.034 42.0532 133.73 41.9857C133.442 41.9168 133.173 41.8933 132.924 41.9151L132.784 41.9273C132.6 41.8022 132.389 41.711 132.148 41.6536C131.925 41.6104 131.694 41.5679 131.455 41.526C131.217 41.4998 130.987 41.465 130.763 41.4218C130.54 41.3786 130.346 41.3094 130.181 41.214C130.015 41.1187 129.827 41.0254 129.615 40.9341C129.402 40.8273 129.187 40.7912 128.97 40.8259C128.66 40.6805 128.335 40.5599 127.998 40.4639C127.675 40.3667 127.346 40.2778 127.01 40.1975L126.022 39.931C125.699 39.8337 125.375 39.7131 125.049 39.5691C125.004 39.5887 124.949 39.5935 124.886 39.5834C124.822 39.5733 124.767 39.5702 124.72 39.5743C124.627 39.5825 124.575 39.6184 124.565 39.682C124.446 39.5826 124.314 39.5001 124.167 39.4345C124.035 39.3676 123.903 39.2851 123.769 39.187C123.708 39.208 123.647 39.2291 123.586 39.2501C123.539 39.2542 123.477 39.2596 123.399 39.2664C123.259 39.2787 123.118 39.2754 122.975 39.2565C122.847 39.2362 122.72 39.2082 122.591 39.1724C122.478 39.496 122.415 39.8544 122.403 40.2476C122.39 40.6408 122.387 41.0489 122.392 41.4719C122.412 41.878 122.424 42.2848 122.428 42.6922C122.434 43.1152 122.397 43.5027 122.318 43.8546C122.36 43.9764 122.387 44.0996 122.398 44.2241L122.432 44.621C122.456 44.8857 122.513 45.0924 122.604 45.2412C122.585 45.384 122.566 45.5191 122.546 45.6463C122.541 45.7722 122.529 45.8988 122.508 46.026C122.539 46.1959 122.56 46.3509 122.572 46.4909C122.602 46.6452 122.624 46.808 122.639 46.9792L122.673 47.3761C122.686 47.5162 122.682 47.6577 122.664 47.8005C122.516 47.9075 122.368 48.0067 122.219 48.0982C122.072 48.2052 121.925 48.3278 121.781 48.4659C121.654 48.2731 121.457 48.1727 121.19 48.1647C121.134 48.248 121.096 48.3533 121.076 48.4805C121.073 48.622 121.009 48.6981 120.884 48.709C120.651 48.5569 120.46 48.4324 120.311 48.3357C120.161 48.239 119.991 48.0892 119.801 47.8863C119.782 47.8565 119.771 47.8183 119.767 47.7716C119.76 47.6937 119.77 47.6223 119.795 47.5574C119.821 47.4924 119.831 47.4287 119.826 47.3665C119.809 47.1797 119.772 47.0183 119.713 46.8823C119.664 46.6827 119.623 46.4824 119.59 46.2814C119.558 46.0959 119.534 45.9098 119.517 45.723C119.494 45.4584 119.487 45.2002 119.497 44.9485C119.522 44.6953 119.577 44.4317 119.663 44.1575C119.794 43.6912 119.87 43.2062 119.888 42.7027C119.923 42.1978 119.934 41.6949 119.921 41.1941C119.907 40.6777 119.878 40.1627 119.833 39.649C119.804 39.134 119.792 38.6409 119.798 38.1699C119.667 37.9304 119.518 37.7474 119.35 37.6209C119.196 37.4775 119.105 37.2424 119.076 36.9155C119.05 36.6197 119.124 36.3859 119.297 36.2139C119.469 36.0263 119.615 35.8097 119.734 35.5639C119.695 35.4732 119.713 35.4089 119.788 35.371L119.854 32.8949C119.854 32.7223 119.861 32.5335 119.875 32.3284C119.904 32.122 119.919 31.9325 119.919 31.7599C119.919 31.3992 119.904 31.0476 119.874 30.7051C119.844 30.3627 119.83 30.0189 119.831 29.6737C119.842 28.9042 119.846 28.1432 119.843 27.3906C119.855 26.6366 119.829 25.8861 119.763 25.1389C119.732 24.7809 119.685 24.4243 119.623 24.069C119.576 23.7123 119.498 23.3584 119.389 23.0072C119.131 23.1082 118.843 23.2197 118.524 23.3417C118.219 23.4467 117.967 23.61 117.767 23.8314L117.58 23.8477C117.175 23.8831 116.801 23.9943 116.456 24.1813C116.128 24.3669 115.79 24.5454 115.444 24.7168C115.296 24.8083 115.145 24.8764 114.992 24.9211C114.838 24.9503 114.677 24.9957 114.51 25.0574C114.433 25.0798 114.352 25.134 114.265 25.22C114.179 25.306 114.098 25.3679 114.023 25.4059L113.634 25.534C113.528 25.5747 113.487 25.6488 113.512 25.7564C113.537 25.864 113.504 25.9374 113.414 25.9767C113.343 26.0614 113.237 26.1098 113.097 26.1221C112.956 26.1188 112.846 26.1205 112.768 26.1273L112.675 26.1355C112.31 26.4497 111.958 26.7237 111.617 26.9574C111.26 27.1768 110.835 27.3395 110.343 27.4453L109.858 27.8171C109.696 27.9411 109.506 28.0126 109.288 28.0316C109.117 28.0466 108.974 28.0277 108.86 27.975C108.719 27.7991 108.607 27.5972 108.524 27.3691C108.426 27.1425 108.284 26.951 108.098 26.7948C108.169 26.7101 108.214 26.6042 108.235 26.4769C108.238 26.3355 108.25 26.2089 108.272 26.0972C108.721 25.854 109.179 25.6179 109.645 25.3889C110.096 25.1613 110.527 24.8961 110.94 24.5933C110.988 24.6048 111.059 24.6065 111.152 24.5983C111.308 24.5847 111.446 24.5491 111.566 24.4915C111.687 24.4339 111.807 24.3685 111.926 24.2954C112.045 24.2222 112.164 24.1568 112.285 24.0992C112.405 24.0416 112.552 24.0131 112.724 24.0137C113.228 23.6717 113.767 23.3814 114.342 23.1429C114.917 22.9043 115.455 22.5985 115.956 22.2253C116.034 22.2185 116.097 22.2286 116.147 22.2556C116.212 22.2813 116.275 22.2914 116.338 22.286C116.4 22.2806 116.438 22.2694 116.452 22.2524C116.535 22.1197 116.652 22.0232 116.803 21.9629C116.954 21.887 117.105 21.8267 117.258 21.782C117.425 21.7203 117.576 21.6522 117.711 21.5777C117.86 21.4862 117.951 21.3606 117.984 21.2009C118.067 21.2564 118.186 21.2773 118.342 21.2637C118.607 21.2405 118.843 21.1649 119.052 21.0369C119.276 20.9075 119.52 20.8312 119.784 20.8081C119.847 20.8026 119.903 20.8134 119.952 20.8405C120.016 20.8506 120.078 20.8529 120.141 20.8475C120.265 20.8366 120.324 20.7922 120.317 20.7144C120.326 20.6352 120.367 20.5611 120.439 20.492C121.374 20.2377 122.302 19.9997 123.223 19.7779C124.161 19.5547 125.112 19.4009 126.077 19.3165C126.209 19.2108 126.36 19.1505 126.531 19.1356C126.703 19.1206 126.862 19.1537 127.011 19.2348C127.273 19.1805 127.535 19.134 127.798 19.0953C128.062 19.0566 128.326 19.0256 128.59 19.0025C129.197 18.9494 129.823 18.9338 130.468 18.9558C131.113 18.9778 131.755 19.0472 132.392 19.1639C133.044 19.2637 133.67 19.4286 134.271 19.6583C134.87 19.8726 135.435 20.1447 135.965 20.4747C136.024 20.6107 136.099 20.7453 136.189 20.8786C136.279 21.0119 136.39 21.112 136.521 21.1789C136.524 21.2101 136.518 21.2341 136.504 21.251C136.505 21.2666 136.507 21.2899 136.51 21.3211C136.525 21.4923 136.586 21.6516 136.693 21.7991C136.816 21.9452 136.886 22.1273 136.905 22.3452C136.924 22.5631 136.905 22.7844 136.846 23.0092C136.803 23.2325 136.798 23.4525 136.833 23.669C136.684 23.9331 136.555 24.1717 136.449 24.3849C136.357 24.5968 136.31 24.8598 136.306 25.1738C136.05 25.4785 135.828 25.8116 135.64 26.1731C135.451 26.5191 135.254 26.8657 135.049 27.213C134.858 27.5434 134.635 27.8531 134.378 28.1422C134.121 28.4314 133.804 28.6708 133.429 28.8605C133.427 29.0175 133.38 29.1942 133.287 29.3905L132.797 29.4334C132.761 29.562 132.691 29.6622 132.588 29.734L132.277 29.9494C132.174 30.0212 132.087 30.1072 132.017 30.2074C131.963 30.3062 131.944 30.4412 131.959 30.6125C131.926 30.5996 131.887 30.5952 131.84 30.5993C131.684 30.6129 131.504 30.7071 131.3 30.8818C131.111 31.0552 130.959 31.194 130.842 31.2983C130.594 31.5082 130.337 31.7033 130.07 31.8835C129.819 32.0623 129.605 32.3006 129.427 32.5985C128.827 32.9176 128.263 33.2806 127.734 33.6877C127.204 34.0791 126.62 34.4047 125.984 34.6642C125.758 34.9506 125.481 35.1866 125.152 35.3722C124.838 35.5409 124.532 35.7245 124.236 35.9229L124.242 35.993C124.253 36.1175 124.31 36.238 124.415 36.3543C124.518 36.4551 124.636 36.5467 124.768 36.6292C124.9 36.6962 125.037 36.7391 125.179 36.758C125.338 36.7755 125.47 36.7639 125.576 36.7232C125.912 36.9762 126.29 37.1705 126.71 37.3064C127.129 37.4422 127.563 37.5611 128.011 37.663C128.459 37.765 128.9 37.8754 129.334 37.9943C129.768 38.1132 130.174 38.2737 130.553 38.4759L131.113 38.4268C131.498 38.7068 131.939 38.9035 132.435 39.017C132.947 39.1291 133.434 39.2276 133.896 39.3126C134.098 39.4675 134.343 39.5794 134.631 39.6483C134.934 39.7002 135.218 39.7146 135.482 39.6915L135.622 39.6792C135.684 39.6738 135.738 39.6612 135.784 39.6416L135.788 39.6883C135.795 39.7661 135.823 39.8185 135.872 39.8456C135.92 39.8571 135.968 39.8686 136.016 39.88C136.078 39.8746 136.134 39.8854 136.184 39.9124C136.247 39.9225 136.297 39.9496 136.332 39.9936L136.565 39.9731C136.892 39.9445 137.21 39.9874 137.518 40.1016C137.824 40.2002 138.141 40.2352 138.468 40.2066C138.608 40.1944 138.716 40.1693 138.791 40.1313C138.887 40.1543 138.962 40.2104 139.017 40.2998C139.072 40.3891 139.141 40.4614 139.225 40.5169C139.332 40.4918 139.432 40.4674 139.524 40.4436C139.617 40.4355 139.711 40.4273 139.804 40.4191C140.147 40.3892 140.469 40.4002 140.772 40.4521C141.074 40.5041 141.388 40.5943 141.713 40.7227C142.192 40.4612 142.667 40.2393 143.137 40.057C143.607 39.8747 144.115 39.7597 144.659 39.712L144.664 39.7587C144.68 39.9455 144.742 40.1126 144.849 40.2601C144.973 40.4218 145.081 40.5849 145.174 40.7493ZM134.601 22.8997C134.585 22.7129 134.533 22.5684 134.446 22.4663C134.374 22.3628 134.28 22.2769 134.164 22.2086C134.047 22.1247 133.923 22.0493 133.792 21.9824C133.676 21.9141 133.566 21.8218 133.462 21.7054C133.046 21.6163 132.637 21.5109 132.234 21.3893C131.831 21.2677 131.423 21.1701 131.009 21.0966C130.802 21.0676 130.596 21.0464 130.391 21.0329C130.185 21.0039 129.98 20.9983 129.778 21.016L129.264 21.0609C129.17 21.0535 129.067 21.0468 128.957 21.0408C128.861 21.0178 128.765 21.0027 128.67 20.9953C128.45 20.9832 128.23 20.9789 128.011 20.9824C127.807 20.9846 127.596 20.9952 127.378 21.0142C126.973 21.0496 126.57 21.1006 126.168 21.1671L124.962 21.3668C124.792 21.3973 124.614 21.4207 124.427 21.4371C124.24 21.4534 124.071 21.484 123.918 21.5287C123.841 21.5511 123.736 21.5995 123.601 21.6741C123.465 21.733 123.322 21.8004 123.172 21.8763C123.02 21.9366 122.869 22.0047 122.719 22.0806C122.584 22.1551 122.464 22.2127 122.358 22.2534C122.383 22.361 122.4 22.4693 122.41 22.5782L122.436 22.8817C122.457 23.1152 122.469 23.3494 122.474 23.5842C122.479 23.8191 122.468 24.0553 122.442 24.2929C122.435 24.3876 122.419 24.483 122.396 24.5792C122.373 24.6753 122.358 24.7707 122.351 24.8655C122.332 25.0083 122.33 25.1653 122.345 25.3365L122.384 25.7801C122.384 26.1409 122.391 26.4931 122.406 26.8369C122.42 27.1807 122.427 27.533 122.428 27.8937C122.424 28.9292 122.412 29.9576 122.392 30.9789C122.387 31.9989 122.414 33.0238 122.473 34.0539C122.977 33.9 123.453 33.6937 123.901 33.4349C124.348 33.1761 124.787 32.9025 125.217 32.6139C125.645 32.3098 126.074 32.0135 126.504 31.725C126.933 31.4364 127.39 31.1847 127.873 30.9699C127.982 30.7878 128.118 30.6348 128.28 30.5109C128.457 30.3856 128.6 30.2319 128.71 30.0497C128.865 30.0361 128.979 29.9948 129.052 29.9257C129.123 29.8411 129.219 29.7777 129.341 29.7357C130.031 29.0166 130.74 28.335 131.468 27.691C132.196 27.047 132.889 26.3668 133.548 25.6504C133.591 25.427 133.674 25.208 133.796 24.9934C133.933 24.7619 134.062 24.531 134.183 24.3009C134.304 24.0707 134.409 23.8419 134.499 23.6144C134.589 23.387 134.623 23.1487 134.601 22.8997ZM142.522 36.7935C142.455 36.9248 142.372 37.0497 142.272 37.1682C142.172 37.2711 142.079 37.3812 141.995 37.4983C141.891 37.5545 141.768 37.5888 141.628 37.601C141.503 37.6119 141.379 37.6228 141.254 37.6337C141.144 37.6277 141.035 37.6372 140.928 37.6623C140.834 37.6705 140.759 37.7084 140.702 37.7761C140.575 37.7559 140.477 37.7096 140.408 37.6372C140.337 37.5492 140.224 37.5043 140.067 37.5023C140.003 37.4922 139.941 37.4977 139.88 37.5187C139.623 37.2745 139.381 37.0134 139.153 36.7353C138.94 36.4559 138.736 36.1914 138.542 35.9418C138.476 35.3672 138.378 34.7876 138.249 34.2029C138.221 34.0642 138.185 33.9261 138.142 33.7888C138.098 33.6514 138.064 33.5211 138.037 33.398C138.023 33.2423 138.018 33.0938 138.022 32.9523C138.039 32.7939 138.05 32.6518 138.055 32.5259C138.078 32.0691 138.109 31.6193 138.149 31.1767C138.188 30.734 138.22 30.2843 138.242 29.8275C138.269 29.4173 138.264 28.9943 138.225 28.5585C138.186 28.1071 138.079 27.6929 137.905 27.316L137.871 27.2013C137.892 27.0741 137.914 26.9702 137.938 26.8896C137.977 26.7922 137.999 26.6883 138.005 26.5779C138.021 26.404 137.971 26.2829 137.856 26.2146C137.891 26.086 137.962 26.0013 138.069 25.9607C138.174 25.9045 138.228 25.8056 138.231 25.6642C138.241 25.6005 138.236 25.5383 138.215 25.4774C138.335 25.4198 138.456 25.37 138.578 25.3279C138.714 25.269 138.846 25.2496 138.973 25.2699C139.178 25.2833 139.363 25.3377 139.528 25.433C139.692 25.5128 139.849 25.6088 140 25.7211C140.315 26.4464 140.486 27.2314 140.512 28.0761C140.538 28.9051 140.533 29.7447 140.497 30.5948C140.462 31.4448 140.464 32.2759 140.504 33.0881C140.542 33.8846 140.731 34.6131 141.071 35.2735L141.12 35.2927C141.199 35.3015 141.26 35.2727 141.301 35.2063C141.341 35.1244 141.4 35.0879 141.479 35.0966C141.544 35.1223 141.585 35.1345 141.6 35.1331C141.69 35.439 141.817 35.7259 141.981 35.9938C142.146 36.2617 142.326 36.5283 142.522 36.7935ZM162.163 34.0634C162.177 34.219 162.142 34.3554 162.058 34.4726C161.988 34.5728 161.895 34.6672 161.777 34.756C161.675 34.8433 161.564 34.9236 161.445 34.9967C161.342 35.0685 161.247 35.1552 161.162 35.2568C161.105 35.3245 161.065 35.4064 161.042 35.5025C161.034 35.5817 161 35.6396 160.94 35.6762C160.853 35.7622 160.756 35.8177 160.649 35.8428C160.541 35.8679 160.426 35.9015 160.305 35.9435C160.197 35.9686 160.091 36.0093 159.986 36.0655C159.88 36.1061 159.792 36.1844 159.724 36.3001C158.999 36.442 158.284 36.6065 157.579 36.7936C156.89 36.9794 156.171 37.105 155.424 37.1704C155.284 37.1826 155.13 37.2118 154.961 37.2579C154.807 37.2871 154.661 37.3156 154.522 37.3434C154.198 37.4032 153.873 37.4551 153.547 37.4993C153.237 37.5421 152.919 37.5778 152.592 37.6064C152.141 37.6459 151.688 37.6698 151.234 37.6782C150.778 37.671 150.329 37.6397 149.885 37.5845C149.769 37.5162 149.639 37.4648 149.495 37.4304C149.35 37.3959 149.198 37.3622 149.039 37.3291C148.895 37.2946 148.758 37.2517 148.628 37.2004C148.498 37.149 148.396 37.0638 148.323 36.9447C148.088 36.9496 147.874 36.9213 147.68 36.8598C147.502 36.7969 147.331 36.7256 147.167 36.6458C147.018 36.5491 146.86 36.4531 146.695 36.3578C146.53 36.2624 146.343 36.1847 146.134 36.1246C145.959 35.9203 145.777 35.7244 145.588 35.5371C145.413 35.3328 145.203 35.1708 144.957 35.0511C144.885 34.7595 144.781 34.4705 144.646 34.1843C144.527 33.8967 144.401 33.6176 144.267 33.347C144.148 33.0594 144.044 32.7705 143.956 32.4802C143.852 32.1912 143.787 31.8911 143.76 31.5798C143.741 31.3619 143.749 31.0945 143.784 30.7778C143.819 30.461 143.869 30.1429 143.935 29.8234C144.016 29.487 144.114 29.1726 144.229 28.8802C144.345 28.5877 144.465 28.3498 144.59 28.1663C144.633 28.1155 144.684 28.0718 144.744 28.0353C144.803 27.9987 144.854 27.9472 144.895 27.8809C145.021 27.7129 145.158 27.5755 145.306 27.4685C145.452 27.3459 145.604 27.2071 145.763 27.052C145.82 26.9843 145.861 26.9102 145.885 26.8296C145.925 26.7477 145.981 26.6722 146.054 26.6031C146.097 26.5679 146.159 26.5547 146.238 26.5634C146.333 26.5708 146.409 26.5485 146.468 26.4963C146.526 26.4442 146.552 26.387 146.547 26.3247C146.541 26.2625 146.56 26.2059 146.602 26.1552C146.617 26.1382 146.663 26.1341 146.743 26.1429C146.82 26.1361 146.867 26.132 146.883 26.1306C146.992 26.1211 147.11 26.0402 147.238 25.8878C147.364 25.7199 147.472 25.6085 147.562 25.5537C147.665 25.4819 147.771 25.4334 147.878 25.4083C147.984 25.3676 148.097 25.3107 148.216 25.2376C148.379 25.1292 148.537 25.0449 148.688 24.9845C148.854 24.9073 149.019 24.8223 149.183 24.7295C149.274 24.6902 149.355 24.6282 149.426 24.5436C149.497 24.4589 149.57 24.3976 149.645 24.3597C149.781 24.3007 149.926 24.2567 150.081 24.2275C150.249 24.1814 150.403 24.1444 150.541 24.1166C150.694 24.0718 150.839 24.0278 150.977 23.9844C151.128 23.9241 151.262 23.834 151.377 23.7141L151.563 23.6978C151.844 23.6733 152.113 23.6105 152.37 23.5096C152.628 23.4086 152.897 23.3458 153.177 23.3213C153.255 23.3145 153.373 23.3199 153.532 23.3374C153.649 23.2487 153.786 23.1975 153.942 23.1839C154.206 23.1607 154.477 23.2076 154.754 23.3246C155.029 23.4259 155.307 23.4644 155.588 23.4398L155.728 23.4276C155.79 23.4221 155.851 23.4089 155.912 23.3879C156.099 23.5441 156.309 23.6198 156.544 23.615C156.794 23.6087 157.011 23.6604 157.193 23.7699C157.31 23.8538 157.405 23.9553 157.478 24.0744C157.567 24.1921 157.641 24.3189 157.7 24.4549L157.877 24.8629C157.935 24.999 158.009 25.118 158.096 25.2202C158.067 25.7873 157.873 26.2592 157.514 26.6357C157.169 26.9952 156.709 27.2002 156.133 27.2506C155.915 27.2696 155.726 27.2626 155.566 27.2296C155.421 27.1796 155.283 27.1289 155.153 27.0775C155.039 27.0248 154.916 26.9727 154.786 26.9214C154.656 26.87 154.512 26.8355 154.354 26.818C154.498 26.4917 154.577 26.1476 154.593 25.7855C154.415 25.7226 154.239 25.6831 154.065 25.667C153.891 25.6508 153.723 25.6106 153.56 25.5464C153.15 25.6921 152.744 25.8061 152.343 25.8882C151.957 25.9533 151.605 26.1488 151.289 26.4745C151.21 26.4657 151.123 26.4577 151.028 26.4503C150.949 26.4415 150.87 26.4405 150.792 26.4473C150.699 26.4555 150.518 26.5419 150.25 26.7065C149.981 26.8555 149.69 27.03 149.379 27.2298C149.082 27.4282 148.794 27.626 148.513 27.8231C148.248 28.0188 148.063 28.1526 147.96 28.2244C147.842 28.3131 147.741 28.4161 147.658 28.5332C147.574 28.6503 147.49 28.7752 147.408 28.9079C147.324 29.0251 147.24 29.1422 147.156 29.2593C147.071 29.3609 146.961 29.4411 146.825 29.5001C146.808 29.674 146.767 29.8267 146.7 29.958C146.633 30.0893 146.559 30.2291 146.478 30.3774C146.487 30.6589 146.48 30.9418 146.458 31.2261C146.451 31.509 146.46 31.7906 146.485 32.0707L146.511 32.3743C146.52 32.4677 146.543 32.5519 146.581 32.627C146.754 32.8157 146.898 33.0305 147.013 33.2714C147.144 33.5109 147.338 33.6665 147.595 33.7381C147.616 33.799 147.612 33.8386 147.582 33.8569C147.568 33.8738 147.556 33.9141 147.546 33.9777C147.654 34.1408 147.783 34.2706 147.933 34.3673C148.096 34.4471 148.261 34.5347 148.426 34.63C148.59 34.7098 148.747 34.798 148.896 34.8947C149.046 34.9914 149.167 35.122 149.26 35.2864C149.493 35.266 149.715 35.2858 149.924 35.346C150.149 35.4047 150.359 35.4726 150.553 35.5497C150.764 35.6254 150.958 35.6946 151.136 35.7575C151.33 35.819 151.52 35.8415 151.707 35.8252C151.878 35.8102 152.032 35.7732 152.168 35.7143C152.583 35.8034 152.996 35.8614 153.406 35.8883C153.831 35.8982 154.253 35.8848 154.673 35.848C155.187 35.8031 155.698 35.727 156.206 35.6198C156.714 35.5126 157.223 35.4132 157.733 35.3215C157.917 35.274 158.095 35.2428 158.266 35.2278C158.437 35.2129 158.607 35.1823 158.775 35.1362C158.99 35.086 159.184 34.9671 159.356 34.7796C159.543 34.5906 159.727 34.4491 159.907 34.3549C160.088 34.4489 160.295 34.4857 160.528 34.4653C160.793 34.4421 161.046 34.3807 161.288 34.2811C161.529 34.1659 161.782 34.0968 162.047 34.0736L162.163 34.0634ZM175.941 23.4707C175.86 23.619 175.819 23.7794 175.819 23.952C175.818 24.1246 175.824 24.2809 175.836 24.421C175.852 24.6078 175.869 24.7946 175.885 24.9814C175.916 25.1512 175.938 25.3218 175.953 25.493L175.984 25.8432C175.962 25.9549 175.925 26.0679 175.872 26.1823C175.82 26.2967 175.783 26.4098 175.761 26.5215C175.593 27.1165 175.535 27.7019 175.585 28.2778L175.589 28.3245C175.528 28.5181 175.465 28.6962 175.401 28.8586C175.352 29.0197 175.304 29.1808 175.255 29.3419C175.205 29.4875 175.172 29.6472 175.156 29.8212C175.138 29.9795 175.147 30.167 175.181 30.3836C175.011 30.9474 174.767 31.4707 174.448 31.9534C174.128 32.4206 173.818 32.9026 173.516 33.3996C173.2 33.5527 172.911 33.7427 172.648 33.9695C172.401 34.195 172.164 34.4432 171.937 34.714C171.468 34.9119 171.009 35.1325 170.56 35.3757C170.111 35.6189 169.714 35.928 169.37 36.3032C169.077 36.3602 168.786 36.4327 168.495 36.5209C168.205 36.609 167.925 36.7276 167.656 36.8766L167.376 36.9011C167.236 36.9134 167.132 36.8911 167.064 36.8343C166.871 36.961 166.668 37.0572 166.454 37.1229C166.239 37.1731 166.022 37.2078 165.805 37.2268C165.524 37.2513 165.243 37.2603 164.96 37.2537C164.691 37.2301 164.415 37.2073 164.131 37.1851C163.956 36.9808 163.724 36.8364 163.434 36.752C163.143 36.6519 162.884 36.557 162.656 36.4671C162.15 35.884 161.771 35.3133 161.518 34.7551C161.264 34.1813 160.996 33.5381 160.714 32.8256C160.726 32.605 160.762 32.3901 160.822 32.1809C160.881 31.9562 160.892 31.72 160.855 31.4723C161.064 30.6384 161.366 29.8748 161.76 29.1816C162.168 28.4714 162.642 27.7869 163.18 27.1281C163.172 27.0347 163.181 26.9555 163.206 26.8905C163.248 26.8242 163.247 26.7301 163.205 26.6083C163.222 26.6225 163.254 26.6276 163.301 26.6235C163.425 26.6126 163.5 26.5746 163.526 26.5097C163.55 26.4291 163.551 26.3428 163.527 26.2508C164.056 25.8437 164.526 25.387 164.936 24.8805C165.362 24.3727 165.857 23.9373 166.422 23.5742C166.456 23.43 166.524 23.3065 166.625 23.2036C166.725 23.1006 166.801 22.9842 166.853 22.8542C167.339 22.6706 167.772 22.4209 168.152 22.1053C168.532 21.7898 168.938 21.5033 169.371 21.2458C169.607 21.084 169.833 20.9701 170.047 20.9044C170.275 20.8217 170.518 20.7376 170.777 20.6522C170.868 20.6129 170.952 20.5821 171.028 20.5597C171.105 20.5373 171.189 20.5221 171.283 20.5139C171.563 20.4894 171.84 20.52 172.114 20.6058C172.387 20.6761 172.664 20.6989 172.944 20.6744C173.022 20.6676 173.084 20.6622 173.131 20.6581C173.191 20.6371 173.252 20.6161 173.313 20.5951C173.606 20.8988 173.963 21.1186 174.383 21.2544C174.496 21.4797 174.623 21.6725 174.763 21.8328C174.918 21.9918 175.073 22.1508 175.228 22.3097C175.382 22.4531 175.522 22.6212 175.648 22.814C175.789 22.9899 175.887 23.2088 175.941 23.4707ZM173.712 24.8891C173.706 24.8113 173.692 24.7419 173.671 24.681C173.511 24.6479 173.358 24.5986 173.211 24.533C173.064 24.4675 172.905 24.4422 172.734 24.4571C172.625 24.4667 172.518 24.4996 172.413 24.5558C172.388 24.4482 172.334 24.3745 172.252 24.3346C172.186 24.2933 172.105 24.2612 172.009 24.2382C171.927 24.1984 171.838 24.1747 171.744 24.1673C171.663 24.143 171.589 24.1024 171.521 24.0456C171.464 23.9252 171.398 23.8054 171.325 23.6863C171.266 23.5503 171.164 23.4573 171.018 23.4073C170.891 23.5597 170.737 23.6907 170.559 23.8005C170.379 23.8946 170.191 23.9895 169.995 24.085C169.815 24.1792 169.637 24.2889 169.46 24.4142C169.298 24.5381 169.162 24.6834 169.051 24.8499L168.63 24.8867C168.552 25.0661 168.431 25.21 168.268 25.3184C168.104 25.4112 167.966 25.5408 167.855 25.7074C167.617 25.8537 167.397 26.0298 167.196 26.2356C167.008 26.4246 166.822 26.6291 166.638 26.8491C166.452 27.0536 166.266 27.2659 166.082 27.4859C165.913 27.7046 165.727 27.9091 165.524 28.0994C165.359 28.5529 165.167 28.954 164.947 29.3027C164.74 29.6344 164.543 29.9733 164.353 30.3192C164.18 30.6638 164.032 31.0375 163.91 31.4402C163.803 31.8261 163.774 32.2992 163.823 32.8595L163.843 33.093C163.85 33.1708 163.864 33.248 163.887 33.3244C164.108 33.5247 164.292 33.7438 164.438 33.982C164.6 34.2188 164.842 34.378 165.163 34.4598C165.485 34.5571 165.816 34.5829 166.157 34.5374C166.514 34.4905 166.86 34.4995 167.195 34.5643C167.93 34.3588 168.626 34.0705 169.284 33.6992C169.956 33.3111 170.583 32.8641 171.166 32.3582C171.253 32.2722 171.355 32.1848 171.473 32.0961C171.589 31.9918 171.682 31.8896 171.752 31.7894C171.823 31.7047 171.878 31.6137 171.916 31.5162C171.97 31.4174 172.025 31.3263 172.08 31.243C172.187 31.0298 172.31 30.8152 172.448 30.5992C172.585 30.3832 172.733 30.1821 172.889 29.9959C172.937 29.6467 173.009 29.311 173.107 28.9888C173.202 28.651 173.299 28.321 173.396 27.9988C173.494 27.6766 173.567 27.3486 173.616 27.015C173.681 26.6799 173.698 26.3334 173.666 25.9754C173.66 25.8976 173.644 25.8126 173.621 25.7206C173.612 25.6272 173.597 25.5423 173.575 25.4658C173.684 25.2837 173.73 25.0915 173.712 24.8891ZM197.524 20.0767C197.48 20.2845 197.395 20.4801 197.27 20.6636L196.916 21.1887C196.805 21.3552 196.711 21.536 196.634 21.7309C196.571 21.909 196.565 22.1133 196.617 22.3441C196.586 22.3468 196.547 22.3502 196.5 22.3543C196.452 22.3428 196.413 22.3385 196.381 22.3412C196.132 22.363 195.943 22.4423 195.814 22.579C195.699 22.6989 195.536 22.8073 195.325 22.9042C195.286 22.8135 195.239 22.7313 195.186 22.6575C195.131 22.5682 195.055 22.5121 194.959 22.4891C194.592 22.5996 194.224 22.6946 193.855 22.774C193.484 22.8378 193.114 22.9172 192.746 23.0121C192.578 23.0582 192.411 23.1199 192.245 23.1971C192.078 23.2588 191.903 23.3212 191.72 23.3842C191.629 23.4235 191.53 23.4479 191.421 23.4575C191.31 23.4514 191.201 23.461 191.094 23.4861C190.722 23.5343 190.32 23.6009 189.888 23.6857C189.455 23.7549 189.076 23.9057 188.751 24.138C188.593 24.1205 188.427 24.1115 188.255 24.1109C188.082 24.1103 187.91 24.1175 187.739 24.1325C187.365 24.1652 186.956 24.2402 186.512 24.3575C186.081 24.4579 185.704 24.6242 185.379 24.8565C185.298 24.8322 185.211 24.8164 185.116 24.809C185.037 24.8002 184.943 24.8006 184.834 24.8101C184.803 24.8129 184.78 24.8227 184.766 24.8396C184.75 24.841 184.727 24.843 184.696 24.8457C184.693 24.9872 184.72 25.1259 184.779 25.2619C184.852 25.381 184.962 25.4733 185.109 25.5389C185.062 25.7156 185.047 25.9051 185.065 26.1074C185.088 26.372 185.127 26.6353 185.181 26.8972C185.251 27.1577 185.297 27.4203 185.321 27.6849C185.347 27.9806 185.328 28.2175 185.265 28.3956C185.462 28.8489 185.583 29.3402 185.629 29.8694C185.646 30.0562 185.647 30.2444 185.632 30.4339C185.631 30.6065 185.64 30.7939 185.657 30.9963C185.672 31.1675 185.747 31.3021 185.881 31.4002C186.014 31.4827 186.087 31.6096 186.102 31.7808C186.108 31.843 186.098 31.9067 186.072 31.9717C186.286 31.9059 186.491 31.8252 186.686 31.7297C186.88 31.6186 187.086 31.5535 187.304 31.5345C187.429 31.5236 187.548 31.5367 187.661 31.5739C187.789 31.6097 187.904 31.6624 188.004 31.7321C187.995 31.8113 187.987 31.8982 187.98 31.993C187.988 32.0864 187.996 32.1798 188.004 32.2732C188.019 32.4444 188.033 32.6078 188.047 32.7635C188.075 32.9022 188.104 33.0565 188.135 33.2264C188.029 33.4552 187.898 33.6627 187.742 33.8489C187.601 34.0337 187.512 34.2612 187.472 34.5312C187.239 34.5517 187.034 34.6245 186.856 34.7498C186.693 34.8582 186.539 34.9814 186.395 35.1196C186.248 35.2422 186.102 35.3647 185.956 35.4873C185.809 35.5943 185.642 35.656 185.455 35.6724C185.221 35.6928 185.055 35.6759 184.956 35.6219C184.856 35.5522 184.779 35.4805 184.726 35.4068C184.672 35.333 184.619 35.2671 184.567 35.2089C184.531 35.1493 184.451 35.1328 184.328 35.1593C184.279 34.9596 184.2 34.7783 184.092 34.6152C183.982 34.4366 183.865 34.2665 183.741 34.1048C183.633 33.9417 183.517 33.7794 183.393 33.6177C183.283 33.4391 183.197 33.2584 183.134 33.0757C183.005 32.6792 182.929 32.2623 182.907 31.8251C182.884 31.3879 182.777 30.9738 182.586 30.5827C182.598 30.362 182.603 30.1421 182.599 29.9228C182.594 29.688 182.582 29.4616 182.563 29.2437C182.525 28.8078 182.472 28.3811 182.404 27.9636C182.35 27.5291 182.296 27.0869 182.241 26.6368C182.12 26.5063 182.036 26.3567 181.99 26.1882C181.958 26.0028 181.927 25.8252 181.896 25.6553C181.846 25.6127 181.787 25.5708 181.721 25.5295C181.67 25.4869 181.633 25.4274 181.611 25.3509C181.484 25.3307 181.389 25.3233 181.327 25.3287C181.109 25.3478 180.927 25.4186 180.781 25.5412C180.649 25.6468 180.52 25.7051 180.396 25.716C180.271 25.7269 180.153 25.7215 180.042 25.6999C179.93 25.6783 179.82 25.6723 179.711 25.6818C179.617 25.69 179.565 25.7181 179.553 25.7662C179.556 25.7973 179.528 25.8312 179.468 25.8678C179.424 25.903 179.318 25.9436 179.149 25.9897C178.981 26.0359 178.789 26.084 178.574 26.1342C178.373 26.1675 178.172 26.2007 177.971 26.234C177.785 26.2659 177.662 26.2846 177.599 26.29C177.35 26.3118 177.159 26.2815 177.027 26.199C176.877 26.1023 176.703 25.9998 176.506 25.8917C176.529 25.7955 176.539 25.7319 176.536 25.7008C176.523 25.5451 176.465 25.4247 176.363 25.3395C176.26 25.2387 176.206 25.1494 176.199 25.0715C176.184 24.9003 176.242 24.7619 176.374 24.6562C176.491 24.5519 176.548 24.3979 176.546 24.1942C176.89 24.0073 177.245 23.8585 177.612 23.748C177.979 23.6375 178.355 23.5419 178.74 23.4611C179.125 23.3804 179.502 23.2925 179.87 23.1976C180.253 23.1013 180.626 22.9667 180.987 22.794C181.098 22.8 181.2 22.8067 181.295 22.8141C181.404 22.8046 181.513 22.795 181.622 22.7855C182.089 22.7447 182.544 22.6578 182.987 22.5249C183.444 22.3751 183.914 22.2791 184.397 22.2369C184.522 22.226 184.647 22.2229 184.773 22.2275C184.898 22.2322 185.025 22.2446 185.152 22.2649C185.767 22.117 186.373 21.9621 186.97 21.8C187.583 21.6365 188.213 21.4873 188.86 21.3523C189.169 21.2939 189.47 21.244 189.765 21.2026C190.073 21.1442 190.381 21.0781 190.688 21.0041C190.796 20.979 190.872 20.9489 190.916 20.9137C190.974 20.8615 190.998 20.7732 190.987 20.6487C191.132 20.6987 191.291 20.7162 191.462 20.7012C191.727 20.6781 191.979 20.6089 192.22 20.4937C192.461 20.3785 192.714 20.3094 192.978 20.2862C193.041 20.2808 193.096 20.2838 193.144 20.2953C193.191 20.2912 193.237 20.2871 193.284 20.283C193.393 20.2735 193.443 20.222 193.435 20.1286C193.441 20.0183 193.513 19.9414 193.65 19.898C193.756 19.8574 193.91 19.8204 194.111 19.7871C194.312 19.7539 194.521 19.7199 194.737 19.6853C194.968 19.6337 195.176 19.5842 195.36 19.5368C195.558 19.4723 195.7 19.3972 195.787 19.3112L195.928 19.04C196.209 19.0311 196.423 19.1379 196.568 19.3605C196.727 19.5661 196.826 19.8006 196.864 20.0639C196.932 20.1207 197.02 20.1443 197.129 20.1348C197.253 20.1083 197.361 20.091 197.454 20.0828L197.524 20.0767ZM214.358 18.6039C214.314 18.8117 214.229 19.0073 214.104 19.1908L213.75 19.7159C213.639 19.8824 213.545 20.0632 213.468 20.2581C213.405 20.4362 213.399 20.6405 213.451 20.8713C213.42 20.874 213.381 20.8774 213.334 20.8815C213.286 20.87 213.247 20.8657 213.216 20.8684C212.966 20.8902 212.777 20.9695 212.648 21.1062C212.533 21.2261 212.37 21.3345 212.159 21.4314C212.12 21.3407 212.073 21.2585 212.02 21.1847C211.965 21.0954 211.889 21.0393 211.793 21.0163C211.427 21.1269 211.058 21.2218 210.689 21.3012C210.318 21.365 209.949 21.4444 209.58 21.5393C209.412 21.5854 209.245 21.6471 209.079 21.7243C208.912 21.786 208.737 21.8484 208.554 21.9114C208.464 21.9507 208.364 21.9751 208.255 21.9847C208.145 21.9786 208.036 21.9882 207.928 22.0133C207.556 22.0615 207.154 22.1281 206.722 22.2129C206.289 22.2821 205.91 22.4329 205.585 22.6652C205.427 22.6477 205.261 22.6387 205.089 22.6381C204.916 22.6375 204.744 22.6447 204.573 22.6597C204.2 22.6924 203.79 22.7674 203.346 22.8847C202.915 22.9851 202.538 23.1514 202.213 23.3837C202.133 23.3594 202.045 23.3436 201.95 23.3362C201.871 23.3274 201.777 23.3278 201.668 23.3373C201.637 23.3401 201.614 23.3499 201.6 23.3668C201.584 23.3682 201.561 23.3702 201.53 23.3729C201.527 23.5144 201.554 23.6531 201.613 23.7891C201.687 23.9082 201.797 24.0005 201.944 24.0661C201.896 24.2428 201.881 24.4323 201.899 24.6346C201.922 24.8992 201.961 25.1625 202.015 25.4244C202.085 25.6849 202.132 25.9475 202.155 26.2121C202.181 26.5078 202.162 26.7447 202.099 26.9228C202.296 27.3761 202.417 27.8674 202.464 28.3966C202.48 28.5834 202.481 28.7716 202.466 28.9611C202.465 29.1337 202.474 29.3211 202.492 29.5235C202.507 29.6947 202.581 29.8293 202.715 29.9274C202.848 30.0099 202.922 30.1368 202.937 30.308C202.942 30.3702 202.932 30.4339 202.906 30.4989C203.12 30.4331 203.325 30.3524 203.52 30.2569C203.714 30.1458 203.921 30.0807 204.138 30.0617C204.263 30.0508 204.382 30.0639 204.495 30.1011C204.623 30.1369 204.738 30.1896 204.838 30.2593C204.829 30.3385 204.821 30.4254 204.814 30.5202C204.822 30.6136 204.83 30.707 204.838 30.8004C204.853 30.9716 204.868 31.135 204.881 31.2907C204.909 31.4294 204.938 31.5837 204.969 31.7536C204.863 31.9824 204.732 32.1899 204.576 32.3761C204.436 32.5609 204.346 32.7884 204.307 33.0584C204.073 33.0789 203.868 33.1517 203.69 33.277C203.527 33.3854 203.373 33.5087 203.229 33.6468C203.083 33.7694 202.936 33.8919 202.79 34.0145C202.643 34.1215 202.476 34.1832 202.289 34.1996C202.055 34.22 201.889 34.2031 201.79 34.1491C201.69 34.0794 201.613 34.0077 201.56 33.934C201.506 33.8602 201.454 33.7943 201.401 33.7361C201.365 33.6765 201.285 33.66 201.162 33.6865C201.113 33.4868 201.034 33.3055 200.926 33.1424C200.816 32.9638 200.699 32.7937 200.575 32.632C200.467 32.4689 200.351 32.3066 200.227 32.1449C200.117 31.9663 200.031 31.7856 199.968 31.6029C199.839 31.2064 199.763 30.7895 199.741 30.3523C199.718 29.9151 199.611 29.501 199.42 29.1099C199.432 28.8892 199.437 28.6693 199.433 28.45C199.428 28.2152 199.416 27.9888 199.397 27.7709C199.359 27.335 199.306 26.9083 199.238 26.4908C199.185 26.0563 199.13 25.6141 199.075 25.164C198.954 25.0335 198.87 24.8839 198.824 24.7154C198.792 24.53 198.761 24.3524 198.73 24.1825C198.68 24.1399 198.621 24.098 198.555 24.0567C198.504 24.0141 198.467 23.9546 198.445 23.8781C198.318 23.8579 198.223 23.8505 198.161 23.8559C197.943 23.875 197.761 23.9458 197.615 24.0684C197.483 24.174 197.355 24.2323 197.23 24.2432C197.106 24.2541 196.987 24.2487 196.876 24.2271C196.764 24.2055 196.654 24.1995 196.545 24.209C196.451 24.2172 196.399 24.2453 196.387 24.2934C196.39 24.3245 196.362 24.3584 196.302 24.395C196.258 24.4302 196.152 24.4708 195.984 24.5169C195.815 24.5631 195.623 24.6112 195.408 24.6614C195.207 24.6947 195.006 24.7279 194.805 24.7612C194.62 24.7931 194.496 24.8118 194.434 24.8172C194.184 24.839 193.994 24.8087 193.861 24.7262C193.711 24.6295 193.538 24.527 193.34 24.4189C193.363 24.3227 193.373 24.2591 193.37 24.228C193.357 24.0723 193.299 23.9519 193.198 23.8667C193.095 23.7659 193.04 23.6766 193.033 23.5987C193.018 23.4275 193.076 23.2891 193.208 23.1834C193.325 23.0791 193.382 22.9251 193.38 22.7214C193.724 22.5345 194.08 22.3857 194.446 22.2752C194.813 22.1647 195.189 22.0691 195.574 21.9883C195.959 21.9076 196.336 21.8197 196.704 21.7248C197.088 21.6285 197.46 21.4939 197.821 21.3212C197.932 21.3272 198.034 21.3339 198.129 21.3413C198.238 21.3318 198.347 21.3222 198.456 21.3127C198.923 21.2719 199.378 21.185 199.821 21.0521C200.279 20.9023 200.749 20.8063 201.231 20.7641C201.356 20.7532 201.481 20.7501 201.607 20.7547C201.733 20.7594 201.859 20.7719 201.986 20.7921C202.601 20.6442 203.207 20.4893 203.804 20.3272C204.417 20.1638 205.048 20.0145 205.694 19.8795C206.003 19.8211 206.305 19.7712 206.599 19.7298C206.907 19.6714 207.215 19.6053 207.523 19.5313C207.63 19.5062 207.706 19.4761 207.75 19.4409C207.808 19.3887 207.832 19.3004 207.821 19.1759C207.966 19.2259 208.125 19.2434 208.296 19.2284C208.561 19.2053 208.813 19.1361 209.054 19.0209C209.295 18.9057 209.548 18.8366 209.813 18.8134C209.875 18.808 209.93 18.811 209.978 18.8225C210.025 18.8184 210.071 18.8143 210.118 18.8102C210.227 18.8007 210.277 18.7492 210.269 18.6558C210.275 18.5455 210.347 18.4686 210.484 18.4252C210.591 18.3846 210.744 18.3476 210.945 18.3144C211.146 18.2811 211.355 18.2471 211.572 18.2125C211.802 18.1609 212.01 18.1114 212.194 18.064C212.392 17.9996 212.534 17.9244 212.621 17.8384L212.762 17.5672C213.044 17.5583 213.257 17.6651 213.402 17.8877C213.561 18.0933 213.66 18.3278 213.699 18.5911C213.766 18.6479 213.855 18.6715 213.964 18.662C214.087 18.6355 214.195 18.6182 214.288 18.61L214.358 18.6039ZM217.167 30.2629C217.1 30.3942 217.016 30.5192 216.917 30.6376C216.816 30.7406 216.724 30.8506 216.64 30.9677C216.535 31.024 216.413 31.0582 216.273 31.0705C216.148 31.0814 216.024 31.0922 215.899 31.1031C215.789 31.0971 215.68 31.1066 215.572 31.1317C215.479 31.1399 215.404 31.1778 215.347 31.2456C215.22 31.2253 215.121 31.179 215.052 31.1066C214.982 31.0187 214.868 30.9737 214.711 30.9718C214.648 30.9617 214.585 30.9671 214.524 30.9881C214.268 30.7439 214.025 30.4828 213.797 30.2048C213.584 29.9254 213.381 29.6609 213.187 29.4112C213.121 28.8367 213.023 28.257 212.893 27.6724C212.865 27.5336 212.83 27.3956 212.786 27.2582C212.743 27.1209 212.708 26.9906 212.682 26.8674C212.668 26.7118 212.663 26.5632 212.666 26.4218C212.684 26.2634 212.695 26.1213 212.699 25.9954C212.722 25.5385 212.753 25.0888 212.793 24.6461C212.833 24.2035 212.864 23.7537 212.887 23.2969C212.914 22.8867 212.908 22.4638 212.87 22.0279C212.83 21.5765 212.724 21.1624 212.549 20.7855L212.516 20.6708C212.536 20.5435 212.558 20.4396 212.583 20.3591C212.621 20.2616 212.644 20.1577 212.65 20.0474C212.666 19.8735 212.616 19.7523 212.5 19.684C212.536 19.5554 212.607 19.4708 212.713 19.4301C212.818 19.3739 212.872 19.2751 212.876 19.1336C212.886 19.07 212.88 19.0077 212.859 18.9468C212.98 18.8892 213.101 18.8394 213.223 18.7974C213.359 18.7384 213.49 18.7191 213.617 18.7393C213.822 18.7527 214.008 18.8071 214.173 18.9025C214.337 18.9822 214.494 19.0783 214.645 19.1905C214.959 19.9159 215.13 20.7009 215.157 21.5455C215.182 22.3746 215.177 23.2141 215.142 24.0642C215.107 24.9143 215.109 25.7454 215.148 26.5575C215.187 27.3541 215.376 28.0825 215.716 28.7429L215.765 28.7622C215.844 28.7709 215.904 28.7421 215.945 28.6758C215.985 28.5939 216.045 28.5573 216.124 28.5661C216.189 28.5917 216.229 28.6039 216.245 28.6025C216.334 28.9084 216.461 29.1953 216.626 29.4632C216.791 29.7311 216.971 29.9977 217.167 30.2629ZM254.632 36.3018C254.645 36.4419 254.601 36.5712 254.502 36.6897C254.418 36.8068 254.308 36.9026 254.174 36.9771C254.04 37.0672 253.899 37.1502 253.749 37.2261C253.614 37.3006 253.494 37.366 253.389 37.4222C253.21 37.3438 253.025 37.2972 252.836 37.2824C252.662 37.2662 252.5 37.202 252.349 37.0898L252.185 37.1041C251.936 37.1258 251.744 37.174 251.61 37.2485C251.385 37.1898 251.196 37.0887 251.042 36.9453C250.89 36.8174 250.744 36.6734 250.604 36.513C250.466 36.3683 250.328 36.2235 250.19 36.0788C250.052 35.934 249.884 35.8153 249.688 35.7227C249.34 34.9689 249.022 34.2047 248.735 33.4299C248.447 32.6551 248.213 31.86 248.032 31.0445C248.056 30.964 248.072 30.8763 248.079 30.7816C248.087 30.6868 248.087 30.6005 248.08 30.5227C248.075 30.4605 248.054 30.3996 248.017 30.34C247.995 30.2635 247.944 30.2209 247.865 30.2122C247.932 30.0808 247.966 29.9367 247.968 29.7797C247.984 29.6057 247.986 29.4487 247.974 29.3086C247.947 28.9973 247.893 28.7432 247.813 28.5463C247.9 28.4603 247.928 28.3324 247.897 28.1625C247.865 27.9771 247.893 27.8414 247.979 27.7554C247.878 27.4976 247.817 27.2441 247.795 26.9951C247.765 26.6526 247.775 26.3146 247.824 25.9809C247.889 25.6458 247.906 25.3071 247.876 24.9647C247.869 24.8868 247.855 24.8097 247.833 24.7332C247.826 24.6554 247.811 24.5782 247.789 24.5018C247.845 24.2459 247.893 23.9907 247.934 23.7362C247.988 23.4648 248.004 23.1968 247.981 22.9322C247.964 22.7454 247.92 22.5925 247.847 22.4734C247.986 21.7397 248.064 21.0192 248.081 20.3119C248.112 19.5877 248.134 18.8564 248.148 18.1181C248.13 18.0883 248.112 18.0663 248.095 18.0521C248.078 18.0379 248.068 18.0152 248.065 17.9841C248.059 17.9063 248.092 17.8406 248.166 17.7871C248.255 17.7322 248.287 17.6432 248.26 17.5201C248.09 17.7232 247.953 17.9547 247.85 18.2147C247.763 18.4732 247.676 18.7318 247.589 18.9904C247.517 19.2476 247.43 19.5062 247.327 19.7661C247.239 20.0092 247.109 20.2322 246.939 20.4354C246.938 20.6079 246.898 20.7762 246.818 20.94C246.754 21.1024 246.73 21.2771 246.747 21.4639C246.731 21.4652 246.715 21.4666 246.7 21.4679C246.683 21.4537 246.659 21.448 246.628 21.4507C246.566 21.4562 246.522 21.4992 246.498 21.5797C246.489 21.6589 246.444 21.6863 246.364 21.662C246.067 22.3938 245.73 23.1134 245.353 23.8208C244.991 24.5269 244.486 25.1123 243.836 25.5769C243.708 25.5411 243.589 25.528 243.48 25.5375C243.277 25.5552 243.081 25.6352 242.889 25.7774C242.712 25.9027 242.592 25.9681 242.53 25.9735C242.374 25.9871 242.173 25.9263 241.926 25.7911C241.693 25.639 241.459 25.5653 241.224 25.5702C240.96 25.4207 240.735 25.2679 240.549 25.1117C240.377 24.9385 240.126 24.8506 239.796 24.8481C239.55 24.5403 239.305 24.2481 239.061 23.9714C238.833 23.6933 238.605 23.4231 238.378 23.1606C238.166 22.8812 237.967 22.5849 237.783 22.2716C237.614 21.957 237.473 21.6007 237.36 21.2028C237.373 21.1703 237.378 21.1385 237.375 21.1074C237.367 21.014 237.317 20.9792 237.225 21.0029C237.148 21.0253 237.105 20.982 237.096 20.873L237.082 20.7096C237.071 20.5851 237.038 20.4782 236.983 20.3888C236.942 20.2826 236.924 20.1666 236.929 20.0407C236.805 19.879 236.704 19.7075 236.625 19.5261C236.546 19.3448 236.423 19.1909 236.255 19.0644L236.237 18.8543C236.229 18.7609 236.214 18.6759 236.191 18.5995C236.183 18.5061 236.153 18.4303 236.101 18.3721C236.063 18.297 236.004 18.2551 235.925 18.2463C235.86 17.6873 235.694 17.1294 235.426 16.5726C235.172 15.9988 234.935 15.447 234.716 14.9171C234.627 15.3327 234.57 15.7534 234.544 16.1791C234.517 16.5893 234.522 17.0045 234.559 17.4248L234.594 17.8217C234.605 17.9462 234.631 18.0694 234.673 18.1912C234.633 18.2731 234.568 18.3337 234.477 18.373C234.402 18.4109 234.361 18.4773 234.354 18.572C234.345 18.6512 234.344 18.7297 234.351 18.8076C234.373 18.884 234.38 18.9618 234.371 19.041C234.373 19.4173 234.357 19.7794 234.325 20.1273C234.277 20.6492 234.213 21.1801 234.135 21.7203C234.055 22.2448 234.039 22.7795 234.087 23.3243C234.09 23.3554 234.094 23.4021 234.099 23.4644C234.119 23.5097 234.13 23.5479 234.133 23.5791C233.903 23.8188 233.794 24.1027 233.807 24.431C233.821 24.7592 233.809 25.0739 233.772 25.3751C233.733 25.8178 233.678 26.2618 233.607 26.7071C233.534 27.137 233.479 27.581 233.441 28.0392C233.416 28.2923 233.399 28.5448 233.39 28.7965C233.379 29.0327 233.369 29.2767 233.359 29.5285C233.356 29.6699 233.312 29.7915 233.227 29.893C233.157 29.9932 233.112 30.1069 233.092 30.2342C233.086 30.3445 233.089 30.4697 233.101 30.6098C233.128 30.733 233.146 30.849 233.155 30.958C233.171 31.1448 233.172 31.3251 233.155 31.4991C233.138 31.6575 233.057 31.8057 232.912 31.9439C232.979 32.3459 233.079 32.6822 233.212 32.9528C233.347 33.239 233.5 33.555 233.671 33.9008L234.255 33.8497L234.263 33.9431C234.277 34.0987 234.312 34.2368 234.37 34.3572C234.443 34.4763 234.565 34.5206 234.735 34.49C234.724 34.5536 234.724 34.6322 234.732 34.7255C234.744 34.8656 234.778 34.9881 234.834 35.093C234.908 35.2121 234.966 35.3403 235.009 35.4777C234.743 36.0186 234.442 36.4292 234.105 36.7096C233.769 36.9899 233.29 37.1574 232.667 37.2118L232.294 37.2445C232.194 37.0023 232.079 36.7692 231.95 36.5452C231.821 36.3213 231.691 36.0973 231.562 35.8734C231.448 35.6481 231.341 35.4143 231.242 35.172C231.159 34.944 231.106 34.6977 231.083 34.4331C231.077 34.3708 231.08 34.3079 231.09 34.2442C231.101 34.1962 231.104 34.141 231.099 34.0788C231.092 34.0009 231.057 33.957 230.993 33.9468C230.93 33.9367 230.892 33.8616 230.88 33.7215C230.87 33.6126 230.853 33.5121 230.83 33.42C230.821 33.3266 230.813 33.2255 230.803 33.1165C230.758 32.6029 230.753 32.0936 230.787 31.5887C230.82 31.0682 230.829 30.5498 230.816 30.0334C230.887 29.9487 230.917 29.8442 230.906 29.7196C230.895 29.5951 230.925 29.4905 230.996 29.4059L230.982 29.2425C230.957 28.9623 230.964 28.6794 231.002 28.3937C231.039 28.1081 231.086 27.8296 231.14 27.5582C231.195 27.2867 231.241 27.0082 231.279 26.7226C231.317 26.437 231.323 26.1541 231.299 25.8739L231.266 25.5003C231.256 25.3913 231.299 25.3406 231.394 25.348C231.503 25.3384 231.56 25.2707 231.564 25.1448C231.576 24.9242 231.574 24.7127 231.556 24.5103C231.552 24.2911 231.557 24.0711 231.569 23.8505C231.61 23.4234 231.659 22.9956 231.715 22.5672C231.77 22.1232 231.779 21.6833 231.741 21.2474L231.735 21.1774C231.731 21.1307 231.761 21.0339 231.827 20.887C231.891 20.7245 231.917 20.5732 231.905 20.4332C231.895 20.3242 231.863 20.2251 231.808 20.1358C231.825 20.15 231.857 20.155 231.904 20.1509C231.966 20.1455 232.004 20.1265 232.016 20.094C232.043 20.0446 232.079 20.0023 232.123 19.9671C232.071 19.9089 232.042 19.8487 232.037 19.7864C232.03 19.7086 232.031 19.6379 232.042 19.5742C232.066 19.4937 232.075 19.4145 232.068 19.3367C232.058 19.2277 231.997 19.1546 231.884 19.1175C232.041 18.7587 232.141 18.3813 232.185 17.9854C232.244 17.5881 232.272 17.1857 232.267 16.7783C232.279 16.3695 232.282 15.9614 232.278 15.5539C232.272 15.131 232.308 14.7279 232.384 14.3448C232.345 14.2541 232.312 14.155 232.287 14.0474C232.278 13.9384 232.269 13.8373 232.261 13.7439C232.255 13.6816 232.242 13.62 232.221 13.5591C232.199 13.4827 232.2 13.4119 232.226 13.3469C232.223 13.3158 232.228 13.2762 232.239 13.2282L232.274 13.084C232.295 12.9723 232.301 12.862 232.292 12.753C232.296 12.6271 232.301 12.5013 232.306 12.3754C232.306 12.0146 232.281 11.6482 232.233 11.276C232.2 10.9024 232.183 10.5274 232.182 10.1512C232.13 10.093 232.079 10.0504 232.029 10.0233C231.979 9.98071 231.942 9.92117 231.92 9.8447C232.025 9.61589 232.14 9.40196 232.263 9.20292C232.401 8.98695 232.59 8.81359 232.83 8.68284C232.891 8.84998 233.023 8.92469 233.226 8.90699C233.319 8.89882 233.434 8.86526 233.57 8.80631C233.706 8.74735 233.794 8.67692 233.834 8.59501C234.106 8.66525 234.375 8.68879 234.64 8.66564C234.919 8.62557 235.181 8.66536 235.427 8.78502C235.494 9.01442 235.577 9.25024 235.677 9.49248C235.776 9.73472 235.905 9.95088 236.063 10.141C236.112 10.3406 236.165 10.5869 236.222 10.88C236.277 11.1574 236.334 11.4504 236.393 11.759C236.45 12.052 236.521 12.3359 236.608 12.6107C236.694 12.8698 236.798 13.0725 236.92 13.2186C236.96 13.4974 237.032 13.7735 237.134 14.0469C237.236 14.3202 237.346 14.5851 237.462 14.8416C237.577 15.0825 237.676 15.3091 237.757 15.5216C237.854 15.7327 237.908 15.9083 237.921 16.0484C237.932 16.1729 237.916 16.2606 237.873 16.3114C237.845 16.3452 237.819 16.4102 237.796 16.5063C237.873 16.6721 237.972 16.8125 238.092 16.9275C238.21 17.0269 238.339 17.149 238.477 17.2938C238.788 18.1606 239.167 18.9979 239.614 19.8058C240.061 20.6136 240.583 21.3835 241.181 22.1155C241.322 22.1188 241.434 22.1482 241.518 22.2036C241.617 22.2577 241.758 22.261 241.942 22.2136L241.956 22.377C241.97 22.5327 242.011 22.6389 242.078 22.6957C242.227 22.7769 242.394 22.8093 242.581 22.7929C242.783 22.7752 242.934 22.7071 243.034 22.5886C243.147 22.4532 243.252 22.3029 243.347 22.1377C243.442 21.9725 243.538 21.8151 243.635 21.6655C243.732 21.5159 243.872 21.4095 244.054 21.3465L244.05 21.2998C244.039 21.1753 244.054 21.0721 244.094 20.9901C244.148 20.8913 244.17 20.7874 244.16 20.6784C244.321 20.5389 244.439 20.3717 244.517 20.1768C244.594 19.9818 244.663 19.7875 244.724 19.5939C244.784 19.3848 244.854 19.1905 244.932 19.0111C245.026 18.8303 245.154 18.678 245.316 18.5541C245.475 17.8657 245.685 17.2199 245.946 16.6167C246.207 16.0136 246.483 15.4013 246.773 14.7798C246.769 14.7331 246.758 14.6871 246.738 14.6418C246.717 14.5809 246.704 14.5271 246.7 14.4804C246.699 14.4648 246.708 14.3934 246.729 14.2662C246.793 14.1037 246.85 13.9497 246.9 13.8042C246.95 13.6586 246.991 13.4982 247.022 13.3229C247.136 12.8267 247.234 12.3397 247.318 11.8619C247.417 11.3827 247.581 10.9213 247.809 10.4779L247.758 9.8942C247.989 9.30933 248.132 8.70082 248.186 8.06866C248.256 7.43515 248.351 6.81515 248.47 6.20868C248.487 6.03474 248.526 5.85875 248.589 5.68072C248.666 5.48576 248.763 5.34392 248.881 5.2552C248.826 5.16589 248.795 5.07454 248.787 4.98115C248.776 4.85663 248.782 4.74631 248.805 4.65019C248.842 4.53715 248.871 4.42478 248.893 4.3131C248.837 4.20823 248.801 4.07018 248.786 3.89896C248.767 3.68104 248.811 3.47324 248.92 3.27556C249.026 3.06231 249.202 2.91366 249.445 2.82961C249.605 2.86269 249.744 2.92894 249.863 3.02837C249.981 3.1278 250.092 3.23569 250.197 3.35204C250.315 3.45147 250.432 3.53533 250.548 3.60362C250.678 3.65499 250.835 3.65694 251.019 3.60946C251.164 3.83205 251.272 4.07361 251.341 4.33414C251.41 4.5791 251.456 4.83389 251.479 5.09851C251.51 5.45651 251.512 5.83281 251.484 6.2274C251.454 6.60642 251.464 6.98982 251.514 7.37759C251.411 7.63754 251.341 7.9181 251.305 8.2193C251.283 8.50356 251.261 8.79561 251.24 9.09544C251.22 9.39527 251.19 9.688 251.153 9.97363C251.115 10.2593 251.029 10.5334 250.895 10.7961C250.91 11.5006 250.915 12.1903 250.911 12.865C250.923 13.5384 250.904 14.2145 250.854 14.8934L250.76 16.2426C250.738 16.3543 250.718 16.4816 250.699 16.6244C250.679 16.7516 250.673 16.862 250.681 16.9553C250.689 17.0487 250.706 17.1492 250.731 17.2568C250.755 17.3489 250.808 17.4148 250.889 17.4547C250.794 17.6199 250.733 17.8135 250.705 18.0355C250.677 18.2575 250.651 18.4951 250.626 18.7482L250.573 19.4822C250.562 19.7184 250.518 19.934 250.441 20.129L250.464 20.3858C250.518 21.0084 250.465 21.6561 250.304 22.3289L250.314 22.4457C250.321 22.5235 250.32 22.5942 250.31 22.6579C250.314 22.7046 250.319 22.7668 250.326 22.8447C250.335 22.9536 250.374 23.0365 250.442 23.0933C250.353 23.5089 250.273 23.9394 250.202 24.3848C250.13 24.8146 250.09 25.2572 250.083 25.7127C250.089 26.3238 250.136 26.9471 250.223 27.5826C250.308 28.2025 250.284 28.8164 250.149 29.4242C250.267 29.6962 250.355 29.9943 250.415 30.3184L250.594 31.2909C250.654 31.6151 250.728 31.9223 250.816 32.2126C250.921 32.5171 251.084 32.7617 251.304 32.9463C251.322 32.9761 251.334 33.0221 251.339 33.0844C251.35 33.2089 251.327 33.305 251.27 33.3727C251.315 33.5256 251.381 33.6532 251.469 33.7553C251.556 33.8575 251.643 33.9518 251.729 34.0384C251.816 34.1406 251.888 34.2519 251.946 34.3723C252.019 34.4914 252.064 34.6443 252.08 34.8311C252.22 34.9914 252.426 35.1067 252.699 35.177C252.972 35.2472 253.244 35.3174 253.517 35.3877C253.805 35.4566 254.057 35.5522 254.272 35.6746C254.488 35.8125 254.608 36.0216 254.632 36.3018ZM275.465 11.9638C275.543 12.851 275.498 13.6784 275.33 14.446C275.162 15.2135 274.921 15.9561 274.607 16.6737C274.309 17.3899 273.979 18.101 273.617 18.8071C273.256 19.5132 272.921 20.2562 272.612 21.036C272.519 21.0442 272.451 21.0736 272.408 21.1244C272.381 21.1738 272.356 21.2388 272.331 21.3194C272.321 21.383 272.296 21.448 272.254 21.5143C272.227 21.5638 272.167 21.5926 272.074 21.6007C271.963 21.9554 271.813 22.298 271.622 22.6283C271.43 22.9431 271.223 23.2593 271 23.5769C270.791 23.8775 270.582 24.1859 270.375 24.502C270.183 24.8168 270.016 25.153 269.875 25.5104L269.641 25.5308C268.907 26.8185 268.053 27.9911 267.079 29.0488C266.12 30.1051 265.052 31.0691 263.873 31.9407C263.85 32.0368 263.81 32.1187 263.754 32.1865C263.697 32.2542 263.689 32.3411 263.729 32.4474C263.566 32.5557 263.429 32.6854 263.316 32.8364C263.221 33.0016 263.126 33.1668 263.03 33.332C262.935 33.4972 262.831 33.6552 262.719 33.8062C262.624 33.9714 262.486 34.1011 262.306 34.1953C262.068 34.169 261.839 34.1498 261.619 34.1378C261.414 34.1243 261.201 34.1194 260.982 34.1229C260.889 34.131 260.795 34.1392 260.702 34.1474C260.61 34.1711 260.524 34.1786 260.445 34.1699C260.271 34.1537 260.117 34.0966 259.983 33.9985C259.866 33.9147 259.699 33.8823 259.481 33.9013C259.372 33.9109 259.287 33.9261 259.226 33.9472C259.082 33.7401 258.915 33.5274 258.723 33.3089C258.548 33.1046 258.449 32.8701 258.426 32.6055C258.408 32.4031 258.415 32.2143 258.447 32.039C258.494 31.8623 258.51 31.6806 258.494 31.4938C258.461 31.1203 258.359 30.7606 258.187 30.4148C258.032 30.0677 257.937 29.7074 257.905 29.3338C257.894 29.2093 257.899 29.0912 257.921 28.9795C257.941 28.8523 257.946 28.7264 257.935 28.6018C257.922 28.4618 257.849 28.3427 257.715 28.2446C257.724 28.1654 257.748 28.0849 257.788 28.003C257.828 27.921 257.844 27.8334 257.836 27.74C257.856 27.6128 257.852 27.4798 257.824 27.341C257.795 27.1867 257.775 27.0473 257.764 26.9228C257.736 26.5959 257.723 26.2677 257.725 25.9381C257.728 25.6085 257.77 25.2833 257.852 24.9624C257.828 24.8704 257.797 24.7868 257.759 24.7117L257.645 24.4864C257.726 24.15 257.764 23.7781 257.759 23.3707C257.755 22.9632 257.735 22.5572 257.7 22.1525L257.592 20.915C257.556 20.5103 257.546 20.1269 257.562 19.7648C257.579 19.6064 257.597 19.4558 257.616 19.313C257.649 19.1533 257.66 19.0034 257.647 18.8633C257.636 18.7387 257.604 18.6318 257.549 18.5425C257.492 18.4376 257.421 18.3419 257.335 18.2553C257.442 18.2147 257.498 18.147 257.506 18.0522C257.512 17.9419 257.511 17.8478 257.505 17.77C257.486 17.5521 257.426 17.3142 257.325 17.0564C257.364 16.7863 257.379 16.5183 257.372 16.2523C257.363 15.9708 257.347 15.6977 257.324 15.4331C257.242 14.4992 257.099 13.5863 256.896 12.6944C256.708 11.8011 256.558 10.8966 256.447 9.98098L256.377 9.98711C256.268 9.99664 256.184 10.0275 256.126 10.0796C256.068 10.1318 256.01 10.1917 255.954 10.2594C255.895 10.3115 255.829 10.3644 255.756 10.4179C255.681 10.4558 255.588 10.4718 255.477 10.4657C255.31 10.7 255.108 10.9059 254.873 11.0833C254.653 11.2594 254.416 11.4213 254.162 11.5689C253.909 11.7166 253.646 11.8572 253.376 11.9907C253.104 12.1086 252.847 12.2251 252.607 12.3403C252.382 12.2815 252.184 12.1733 252.013 12.0157C251.841 11.8426 251.677 11.6687 251.521 11.4942C251.5 11.4333 251.487 11.3717 251.481 11.3094L251.465 11.1227C251.427 10.6868 251.499 10.3511 251.683 10.1155C251.864 9.86429 252.059 9.57282 252.265 9.24109L252.382 9.23087C252.459 9.22406 252.531 9.2335 252.596 9.25918C252.645 9.28623 252.709 9.29635 252.787 9.28954L252.857 9.28341C253.275 8.87035 253.724 8.53307 254.203 8.27157C254.697 7.99315 255.21 7.76784 255.744 7.59565C255.957 7.34174 256.175 7.14231 256.397 6.99736C256.636 6.85105 256.918 6.76359 257.245 6.73499C257.323 6.72819 257.409 6.72848 257.504 6.73587C257.613 6.72634 257.707 6.72595 257.786 6.73471C258.398 6.38313 258.976 6.08165 259.519 5.83027C260.075 5.56197 260.727 5.39513 261.475 5.32977C261.568 5.3216 261.628 5.2928 261.655 5.24338C261.698 5.1926 261.733 5.1425 261.76 5.09308C261.785 5.02809 261.812 4.97089 261.839 4.92147C261.866 4.87205 261.918 4.84393 261.996 4.83712C261.999 4.86826 262.011 4.91427 262.032 4.97517C262.053 5.03607 262.094 5.0638 262.157 5.05835C262.219 5.0529 262.272 5.03257 262.316 4.99736C262.374 4.94521 262.442 4.91574 262.52 4.90893C262.598 4.90212 262.657 4.95183 262.698 5.05807C262.859 4.93413 263.014 4.81865 263.161 4.71164C263.309 4.60463 263.474 4.5196 263.657 4.45657C263.894 4.48284 264.131 4.50132 264.367 4.51203C264.619 4.52137 264.87 4.51514 265.119 4.49336C265.305 4.47701 265.492 4.45289 265.677 4.42098C265.861 4.37351 266.018 4.28138 266.147 4.1446C266.208 4.12359 266.242 4.152 266.248 4.22982C266.399 4.34209 266.555 4.41477 266.715 4.44784C266.873 4.46536 267.038 4.47441 267.211 4.47499C267.382 4.46001 267.554 4.45282 267.727 4.4534C267.899 4.45399 268.06 4.49485 268.208 4.57598C268.335 4.59622 268.441 4.64185 268.526 4.71287C268.609 4.76832 268.715 4.81395 268.844 4.84975C268.94 4.87271 269.066 4.88516 269.223 4.88711C269.396 4.8877 269.523 4.90793 269.605 4.94782C269.686 4.97214 269.729 5.02322 269.736 5.10105C269.757 5.16195 269.809 5.21234 269.89 5.25223C270.04 5.34893 270.233 5.40263 270.469 5.41334C270.704 5.40848 270.913 5.46082 271.095 5.57036C271.187 5.90736 271.378 6.11808 271.668 6.20252C271.957 6.28697 272.239 6.3721 272.513 6.45791C272.615 6.54313 272.656 6.64936 272.635 6.77661C272.834 6.90036 273.011 7.04172 273.166 7.20068C273.337 7.35828 273.494 7.53281 273.636 7.72427C273.792 7.8988 273.941 8.07401 274.082 8.2499C274.223 8.4258 274.385 8.58408 274.57 8.72476C274.567 8.86621 274.592 8.9738 274.646 9.04755C274.715 9.11993 274.74 9.23531 274.723 9.39369C274.925 9.54857 275.116 9.75929 275.296 10.0258C275.215 10.1741 275.182 10.3338 275.197 10.5051C275.21 10.6607 275.247 10.8143 275.307 10.9659C275.368 11.1175 275.405 11.2711 275.418 11.4267L275.465 11.9638ZM273.249 11.6401C273.21 11.1887 273.086 10.7603 272.878 10.355C272.668 9.93418 272.483 9.51906 272.322 9.10969C272.119 9.12739 271.981 9.06892 271.907 8.93428C271.846 8.78271 271.741 8.65857 271.592 8.56187C271.29 8.52548 271.084 8.31612 270.972 7.93379C270.65 7.8365 270.318 7.72433 269.978 7.59727C269.637 7.47022 269.346 7.27613 269.104 7.01502C268.528 6.89282 267.945 6.77131 267.354 6.65047C266.778 6.51271 266.193 6.4697 265.602 6.52145C265.493 6.53098 265.392 6.54762 265.3 6.57136C265.223 6.57816 265.145 6.58497 265.067 6.59178C264.942 6.60268 264.812 6.6376 264.676 6.69655C264.54 6.75551 264.41 6.79043 264.285 6.80132C264.145 6.81358 264.001 6.77914 263.853 6.698C263.557 6.89646 263.226 7.05873 262.86 7.1848C262.51 7.30952 262.152 7.42713 261.785 7.53764C261.417 7.63259 261.059 7.7502 260.71 7.89048C260.361 8.0152 260.054 8.19099 259.792 8.41785C259.696 8.39489 259.6 8.37971 259.506 8.37232C259.426 8.36356 259.348 8.36259 259.27 8.3694C259.13 8.38165 259.024 8.42232 258.951 8.49139C258.907 8.52661 258.88 8.56824 258.868 8.6163C258.872 8.663 258.869 8.71816 258.859 8.78178C258.863 8.82848 258.851 8.86875 258.823 8.90261C258.794 8.93646 258.733 8.94969 258.638 8.9423C258.645 9.02013 258.643 9.09085 258.633 9.15448C258.638 9.21674 258.645 9.28678 258.651 9.36461C258.687 9.76932 258.761 10.1706 258.874 10.5685C259.002 10.9495 259.083 11.3423 259.119 11.747C259.131 11.8871 259.136 12.0357 259.134 12.1927C259.131 12.3341 259.112 12.4769 259.077 12.6211C259.172 12.8011 259.228 13 259.247 13.218C259.282 13.4345 259.309 13.6518 259.328 13.8697C259.347 14.0876 259.374 14.3048 259.408 14.5214C259.442 14.7224 259.513 14.9122 259.623 15.0908C259.597 15.3284 259.586 15.5646 259.591 15.7994C259.596 16.0343 259.608 16.2684 259.629 16.5019C259.676 17.0467 259.747 17.5817 259.84 18.1068C259.948 18.6306 260.026 19.1649 260.074 19.7097C260.086 19.8498 260.091 19.9983 260.09 20.1553C260.103 20.311 260.109 20.4673 260.107 20.6243C260.094 20.8294 260.056 21.0288 259.995 21.2223C259.933 21.4159 259.912 21.6217 259.931 21.8396C259.943 21.9797 259.964 22.1269 259.993 22.2812C260.021 22.4199 260.042 22.5671 260.055 22.7228C260.061 22.785 260.058 22.848 260.048 22.9116C260.052 22.9583 260.057 23.0128 260.063 23.075C260.032 23.6266 260.019 24.1847 260.021 24.7491C260.023 25.3136 260.048 25.8682 260.096 26.413C260.141 26.9266 260.201 27.4389 260.277 27.9499C260.352 28.4452 260.443 28.947 260.55 29.4553C260.498 29.5697 260.477 29.6969 260.49 29.837C260.509 30.0549 260.582 30.2681 260.71 30.4765C260.84 30.7004 261.017 30.8418 261.241 30.9005C261.723 30.6702 262.161 30.3809 262.554 30.0329C262.964 29.699 263.373 29.3573 263.781 29.0079C263.884 28.9205 264.038 28.805 264.245 28.6615C264.451 28.5023 264.59 28.3882 264.662 28.3191C264.735 28.25 264.791 28.1823 264.833 28.116C264.888 28.0327 264.951 27.9488 265.022 27.8641L265.954 26.6769C266.492 26.0181 267.022 25.3522 267.543 24.6791C268.08 24.0048 268.567 23.2956 269.004 22.5516C269.125 22.3214 269.247 22.099 269.369 21.8844C269.49 21.6542 269.603 21.4169 269.707 21.1726C269.762 21.0893 269.802 20.9996 269.825 20.9035C269.846 20.7918 269.893 20.6936 269.964 20.609C270.005 20.5426 270.054 20.4756 270.111 20.4079C270.183 20.3388 270.24 20.2711 270.281 20.2048C270.393 20.0538 270.498 19.9035 270.595 19.7539C270.705 19.5873 270.816 19.413 270.925 19.2309C271.224 18.7028 271.5 18.1768 271.752 17.6528C272.003 17.1133 272.285 16.5788 272.6 16.0494C272.604 15.7354 272.641 15.4419 272.711 15.1692C272.78 14.8808 272.85 14.608 272.922 14.3508C272.992 14.078 273.046 13.7988 273.084 13.5132C273.121 13.2276 273.11 12.9149 273.049 12.5752C273.117 12.4594 273.172 12.3761 273.215 12.3253C273.273 12.2732 273.296 12.1771 273.284 12.037L273.249 11.6401Z" fill="#243153"></path>
</svg>
