<?xml version="1.0" encoding="UTF-8"?>
<svg xmlns="http://www.w3.org/2000/svg" width="480" height="367.11">
  <path d="M15.18 362.68c-.53-2.13-1.83-4.4-1.48-6.37q21-116.19 42.33-232.32 7.57-41.49 15.12-83c.29-1.6.36-3.24.59-5.39-24.45 3.14-47.8 9.28-70.82 16.79L0 50.88c1.26-.89 2.41-2.24 3.8-2.59 20.49-5.01 40.95-10.2 61.56-14.68 5.36-1.17 8.42-2.44 9.1-8.47.81-7.25 2.68-14.39 4.45-21.49.35-1.42 2.29-3.47 3.52-3.48 16.33-.22 32.66-.12 49-.08a10 10 0 0 1 2 .6c-3.15 9.09-6.28 18.12-9.57 27.64 1.66.21 2.89.44 4.13.52 12.8.81 25.6 1.51 38.38 2.47 2.64.19 3.86-.65 4.91-2.92 3.84-8.31 7.76-16.59 11.88-24.75.76-1.51 2.63-3.46 4-3.48 19.14-.23 38.28-.16 58.52-.16l-25.65 40.92c44.68 11.82 85.74 30.42 123.27 56.55l-.61 1.4c-2.1-.89-4.39-1.49-6.26-2.72a391.45 391.45 0 0 0-113.11-51.5c-3.92-1.08-5.81-.33-7.92 3.14-9 14.79-18.64 29.21-27.42 44.12-3.15 5.35-6.7 7.25-12.68 6.8-6.77-.52-13.6-.12-21.11-.12v16.23c-.05 10.15 1.9 20.89-.79 30.3-2.63 9.23-10 17.12-15.31 25.57-14.48 23-29 45.86-43.41 68.89-1.81 2.89-3.68 4.18-7.14 4-6-.28-12-.08-19-.08 33.39-70 66.44-139.33 100-209.66-11.62-.64-22.39-1.36-33.17-1.81-12.5-.52-12.51-.42-16.41 11.5q-51.26 156.49-102.47 313c-.67 2-1 4.19-1.46 6.28z" fill="#696969"></path>
  <path d="M304.97 108.41c34.76.08 63.12 28.07 63.09 62.29 0 34.4-28.7 62.54-63.58 62.41-34.71-.14-63.05-28.18-63.05-62.4-.01-34.5 28.43-62.38 63.54-62.3zm11 61.24h.21v-24c0-8.17-4.57-13.55-11.38-13.65s-11.42 5.17-11.45 13.46q-.07 24.21 0 48.43c0 8 4.49 13.14 11.21 13.17s11.29-5 11.39-13c.09-8.11.01-16.26.01-24.41zM359.86 365.88c-7.87 0-15.51.17-23.13-.17-1.2-.06-3-2.3-3.31-3.78-3.84-17.72-7.46-35.48-11.14-53.23a15 15 0 0 0-2-5.38q-3 15.06-6.07 30.11c-1.9 9.46-3.95 18.89-5.62 28.39-.54 3.08-1.64 4.23-4.79 4.14-6.33-.2-12.67.12-19-.2-1.46-.07-3.8-1.63-4.09-2.88-8.55-36.26-16.89-72.56-25.25-108.86 0-.13.12-.3.34-.83h28.09l13.24 63.55h1q4.59-23.1 9.19-46.21c.94-4.73 1.69-9.52 3-14.15.39-1.4 2.3-3.3 3.59-3.36 6.79-.34 13.62-.16 21-.16 4.53 21.3 9 42.37 13.48 63.44l.85.08q3.06-14 6.1-27.92c2.33-10.72 4.56-21.47 7.07-32.16.31-1.32 2.07-3.22 3.23-3.28 6.61-.32 13.25-.15 20.57-.15zM141.14 308.13v-54.54h27.49v112c-8.65 0-17.1.15-25.52-.17-1.28 0-2.79-2.09-3.65-3.53q-16.53-27.65-32.91-55.39a11.86 11.86 0 0 0-3.51-4v62.78H74.49v-112c10.42 0 20.53-.15 30.63.17 1.41 0 3.14 2.12 4.06 3.65 9.47 15.67 18.8 31.43 28.18 47.16.83 1.4 1.73 2.76 2.6 4.14z" fill="#818181"></path>
  <path d="M351.68 108.41c12.82 0 24.8-.11 36.77.14 1.52 0 3.51 1.6 4.4 3 4.54 7.13 8.79 14.43 13.6 22.45 4.55-7.83 8.8-14.87 12.73-22.08 1.48-2.72 3.24-3.64 6.28-3.59 11.43.17 22.86.07 35 .07-1.18 2.21-2 3.8-2.85 5.33-9.7 16.69-19.35 33.4-29.19 50-1.64 2.78-1.71 4.79 0 7.63 11.13 18.35 22.05 36.83 33 55.28.85 1.42 1.67 2.86 3.08 5.28h-9.87c-8.49 0-17-.12-25.48.06a6.22 6.22 0 0 1-6.35-3.6c-5.08-9-10.43-17.77-16.08-27.32-5.28 9.09-10.44 17.55-15.11 26.28-1.86 3.47-4.1 4.58-7.86 4.51-10.79-.21-21.59-.07-33.26-.07 1.1-2.08 1.85-3.62 2.7-5.11 10.42-18.19 20.78-36.42 31.37-54.51 1.83-3.13 1.91-5.37 0-8.52-10.15-16.62-20-33.39-30-50.12-.87-1.38-1.62-2.83-2.88-5.11zM164.09 108.47h76.61c.79 11.14 1.57 22 2.38 33.4H200.4v16.22h34.42v33.6h-25.34c-10 0-10 0-10 10v29.83h-35.39zM465.37 277.58l-24.38 7.86c-3-7.68-8.35-11.68-16.59-11.14-4.73.31-8.59 3.21-9.15 7.06-.75 5.12 2.55 7.17 6.69 8.39 6.54 1.94 13.12 3.7 19.65 5.66 17.62 5.3 26.12 15.33 26.61 31.26.53 17.32-9 31.53-25.21 37.46-19.06 7-42.89 1.36-53.65-13.32-3.74-5.1-6-11.27-9.44-17.88l27.67-6.27c5.57 11.44 10.79 14.81 21.27 13.8 4.43-.43 8.35-2 9-7.05s-2.51-7.63-6.91-9c-7.14-2.22-14.44-4-21.43-6.64-17.82-6.71-25-17-24.09-33.54s11.51-28.95 28.25-33.31c23.29-6.08 43.16 3.32 51.05 24.16.22.61.33 1.26.66 2.5zM249.02 253.3v25.78h-44.55c0 5.35-.21 10.14.18 14.89.08.86 2.56 2.15 3.95 2.18 8.82.21 17.65.11 26.48.11h5.82v24h-36.15v19.14h44.88v26.13h-73V253.3zM15.03 362.88c3.77-8.11 7.65-16.18 11.28-24.35 12.41-27.92 24.73-55.89 37.66-85.14.35 2.38.55 3.51.68 4.64 2.35 19.42-2.31 36.48-14.07 52.6-11.62 15.93-21 33.49-31.39 50.33a11.23 11.23 0 0 1-3.79 4.14l-.21-2.4zM466.1 241.44c5.39 1.67 14.25 20.92 13.88 30-4.85-10.56-9.21-19.92-13.88-30z" fill="#818181"></path>
</svg>
