<?xml version="1.0" encoding="UTF-8"?>
<svg xmlns="http://www.w3.org/2000/svg" width="1195.000000pt" height="180.000000pt" viewBox="0 0 1195.000000 180.000000" preserveAspectRatio="xMidYMid meet">
  <metadata>
</metadata>
  <g transform="translate(0.000000,180.000000) scale(0.100000,-0.100000)" fill="#818181" stroke="none">
    <path d="M787 1780 c-165 -28 -349 -124 -471 -246 -434 -434 -317 -1163 229 -1437 251 -125 552 -124 805 3 230 115 393 318 463 575 18 66 22 106 21 230 -1 133 -4 160 -27 238 -103 337 -375 583 -708 636 -73 12 -241 12 -312 1z"></path>
    <path d="M3705 1550 c-121 -26 -227 -87 -286 -163 -53 -71 -74 -137 -74 -237 0 -77 3 -93 33 -153 57 -116 141 -169 367 -233 152 -43 208 -67 235 -102 25 -32 25 -63 0 -95 -30 -38 -80 -50 -179 -44 -103 6 -176 31 -268 93 -37 25 -70 41 -73 37 -49 -56 -160 -203 -160 -211 0 -19 137 -109 217 -142 107 -45 201 -63 328 -63 228 0 386 77 465 225 31 56 35 73 38 158 3 79 0 104 -18 153 -45 120 -172 204 -399 267 -62 17 -128 38 -145 47 -89 44 -112 109 -56 157 76 64 242 37 391 -64 33 -23 64 -40 69 -38 12 4 170 206 170 218 0 14 -97 84 -165 118 -112 56 -189 74 -325 78 -69 2 -143 -1 -165 -6z"></path>
    <path d="M7562 1541 c-233 -59 -403 -228 -463 -458 -42 -162 -20 -378 51 -512 115 -215 320 -332 585 -333 204 -1 346 53 477 182 136 134 194 294 186 508 -13 295 -166 508 -429 597 -113 37 -295 45 -407 16z m293 -305 c64 -29 128 -101 157 -175 29 -75 32 -230 5 -312 -26 -77 -81 -146 -147 -183 -47 -26 -64 -31 -130 -31 -91 0 -157 30 -214 96 -61 72 -81 136 -81 269 0 105 2 120 28 175 56 120 150 185 267 185 47 0 79 -7 115 -24z"></path>
    <path d="M2102 1088 c3 -462 3 -463 27 -523 33 -81 63 -128 119 -181 95 -91 229 -134 423 -134 292 0 466 111 545 350 16 49 18 104 22 503 l3 447 -180 0 -180 0 -3 -427 c-3 -405 -4 -430 -23 -467 -11 -22 -37 -53 -58 -70 -33 -27 -48 -31 -111 -34 -131 -7 -203 47 -226 167 -6 31 -10 221 -10 442 l0 389 -176 0 -175 0 3 -462z"></path>
    <path d="M4812 1513 c-5 -16 -109 -299 -231 -631 -121 -332 -221 -608 -221 -613 0 -5 74 -9 174 -9 l174 0 30 83 c16 45 35 99 41 120 l13 37 232 0 232 0 39 -120 39 -120 184 0 c170 0 183 1 177 18 -3 9 -108 296 -233 637 l-228 620 -206 3 -206 2 -10 -27z m348 -745 c0 -5 -63 -8 -141 -8 -130 0 -141 1 -134 18 4 9 36 105 73 212 l66 194 68 -204 c37 -113 68 -208 68 -212z"></path>
    <path d="M5980 1395 l0 -145 190 0 190 0 0 -495 0 -495 180 0 180 0 0 495 0 495 185 0 185 0 0 145 0 145 -555 0 -555 0 0 -145z"></path>
    <path d="M8510 900 l0 -641 328 3 c324 4 328 4 408 31 199 66 344 223 399 432 25 92 23 262 -4 361 -59 213 -214 367 -436 430 -49 14 -119 18 -377 21 l-318 5 0 -642z m592 340 c52 -15 117 -67 151 -121 87 -141 65 -390 -44 -498 -57 -57 -109 -75 -236 -79 l-113 -4 0 356 0 356 103 0 c56 0 119 -5 139 -10z"></path>
    <path d="M10057 1533 c-3 -5 -106 -285 -230 -623 -124 -338 -229 -623 -232 -633 -7 -16 5 -17 172 -17 l179 0 39 120 39 120 235 -2 234 -3 40 -117 39 -118 179 0 c110 0 179 4 179 10 0 5 -99 281 -221 612 -122 332 -226 615 -231 631 l-10 27 -203 0 c-112 0 -206 -3 -208 -7z m272 -555 c35 -106 66 -199 68 -205 4 -10 -27 -13 -136 -13 -78 0 -141 3 -141 8 0 14 135 402 140 402 3 0 34 -87 69 -192z"></path>
    <path d="M10690 1532 c0 -5 101 -191 225 -414 l225 -406 0 -226 0 -226 180 0 180 0 0 228 0 227 221 400 c122 220 224 406 226 413 4 10 -37 12 -197 10 l-203 -3 -111 -242 c-61 -133 -113 -242 -116 -242 -3 0 -56 109 -117 242 l-112 242 -201 3 c-110 1 -200 -1 -200 -6z"></path>
  </g>
</svg>
